<svg id="Layer_1" data-name="Layer 1" xmlns="http://www.w3.org/2000/svg" viewBox="0 0 64 64"><defs><style>.cls-1{fill:#fff;}</style></defs><path class="cls-1" d="M59.51,21.44,33.89,1.73a2.9,2.9,0,0,0-3.53,0L4.74,21.44A2.86,2.86,0,0,0,3.63,23.7V54.56a8.61,8.61,0,0,0,8.63,8.57H52a8.62,8.62,0,0,0,8.64-8.57V23.7A2.84,2.84,0,0,0,59.51,21.44Zm-21.91,36H26.37V35.13H37.6Zm17.27-2.85A2.87,2.87,0,0,1,52,57.41H43.35V32.27a2.86,2.86,0,0,0-2.87-2.86h-17a2.87,2.87,0,0,0-2.88,2.86V57.41H12.26a2.87,2.87,0,0,1-2.87-2.85V25.1L32.13,7.6,54.87,25.1Z"/></svg>