<svg id="Layer_1" data-name="Layer 1" xmlns="http://www.w3.org/2000/svg" viewBox="0 0 64 64"><defs><style>.cls-1{fill:#e9b25f;}</style></defs><path class="cls-1" d="M59.29,21.31,33.67,1.6a2.9,2.9,0,0,0-3.53,0L4.52,21.31a2.86,2.86,0,0,0-1.11,2.26V54.43A8.61,8.61,0,0,0,12,63H51.77a8.61,8.61,0,0,0,8.64-8.57V23.57A2.87,2.87,0,0,0,59.29,21.31Zm-21.92,36H26.15V35H37.37Zm17.28-2.86a2.87,2.87,0,0,1-2.88,2.86H43.13V32.14a2.86,2.86,0,0,0-2.88-2.85h-17a2.86,2.86,0,0,0-2.88,2.85V57.29H12a2.87,2.87,0,0,1-2.88-2.86V25L31.91,7.47,54.65,25Z"/></svg>