<svg viewBox="0 0 569 86" fill="none" xmlns="http://www.w3.org/2000/svg">
<path d="M0 57.5389L23.705 28.6639H0.55V23.2189H30.91V27.9489L7.755 56.8239H30.965V62.2689H0V57.5389Z" fill="white"/>
<path d="M73.1448 56.8239V62.2689H46.3598V23.2189H72.6498V28.6639H52.5198V39.7739H69.9548V44.8889H52.5198V56.8239H73.1448Z" fill="white"/>
<path d="M88.5745 62.2689V23.2189H105.569C107.329 23.2189 108.943 23.5856 110.409 24.3189C111.913 25.0523 113.196 26.0239 114.259 27.2339C115.323 28.4073 116.148 29.7639 116.734 31.3039C117.358 32.8073 117.669 34.3473 117.669 35.9239C117.669 37.2439 117.486 38.5089 117.119 39.7189C116.753 40.9289 116.239 42.0473 115.579 43.0739C114.919 44.1006 114.113 44.9989 113.159 45.7689C112.206 46.5023 111.161 47.0523 110.024 47.4189L119.209 62.2689H112.224L103.754 48.6839H94.7345V62.2689H88.5745ZM94.7345 43.2389H105.514C106.394 43.2389 107.183 43.0556 107.879 42.6889C108.613 42.2856 109.236 41.7539 109.749 41.0939C110.263 40.3973 110.666 39.6089 110.959 38.7289C111.253 37.8489 111.399 36.9139 111.399 35.9239C111.399 34.9339 111.216 33.9989 110.849 33.1189C110.519 32.2389 110.061 31.4689 109.474 30.8089C108.924 30.1489 108.264 29.6356 107.494 29.2689C106.761 28.8656 105.991 28.6639 105.184 28.6639H94.7345V43.2389Z" fill="white"/>
<path d="M285.35 28.6639H272.37V62.2689H266.155V28.6639H253.12V23.2189H285.35V28.6639Z" fill="white"/>
<path d="M331.727 23.2189V62.2689H325.512V45.0539H305.822V62.2689H299.662V23.2189H305.822V39.5539H325.512V23.2189H331.727Z" fill="white"/>
<path d="M376.396 56.8239V62.2689H349.611V23.2189H375.901V28.6639H355.771V39.7739H373.206V44.8889H355.771V56.8239H376.396Z" fill="white"/>
<path d="M407.245 62.5439C404.458 62.5439 401.91 61.9939 399.6 60.8939C397.326 59.7572 395.365 58.2722 393.715 56.4389C392.065 54.5689 390.781 52.4422 389.865 50.0589C388.985 47.6756 388.545 45.2372 388.545 42.7439C388.545 40.1406 389.021 37.6472 389.975 35.2639C390.928 32.8806 392.23 30.7722 393.88 28.9389C395.566 27.1056 397.546 25.6572 399.82 24.5939C402.13 23.4939 404.641 22.9439 407.355 22.9439C410.141 22.9439 412.671 23.5306 414.945 24.7039C417.255 25.8406 419.216 27.3439 420.83 29.2139C422.48 31.0839 423.745 33.2106 424.625 35.5939C425.541 37.9406 426 40.3422 426 42.7989C426 45.4022 425.523 47.8956 424.57 50.2789C423.653 52.6622 422.351 54.7706 420.665 56.6039C418.978 58.4006 416.98 59.8489 414.67 60.9489C412.396 62.0122 409.921 62.5439 407.245 62.5439ZM394.815 42.7439C394.815 44.5772 395.108 46.3556 395.695 48.0789C396.281 49.8022 397.106 51.3239 398.17 52.6439C399.27 53.9639 400.59 55.0272 402.13 55.8339C403.67 56.6039 405.393 56.9889 407.3 56.9889C409.28 56.9889 411.021 56.5856 412.525 55.7789C414.065 54.9356 415.366 53.8356 416.43 52.4789C417.493 51.1222 418.3 49.6006 418.85 47.9139C419.4 46.2272 419.675 44.5039 419.675 42.7439C419.675 40.8739 419.381 39.0956 418.795 37.4089C418.208 35.6856 417.365 34.1822 416.265 32.8989C415.201 31.5789 413.9 30.5339 412.36 29.7639C410.856 28.9572 409.17 28.5539 407.3 28.5539C405.32 28.5539 403.56 28.9756 402.02 29.8189C400.48 30.6256 399.178 31.6889 398.115 33.0089C397.051 34.3289 396.226 35.8506 395.64 37.5739C395.09 39.2606 394.815 40.9839 394.815 42.7439Z" fill="white"/>
<path d="M441.452 62.2689V23.2189H458.447C460.207 23.2189 461.82 23.5856 463.287 24.3189C464.79 25.0522 466.074 26.0239 467.137 27.2339C468.201 28.4072 469.025 29.7639 469.612 31.3039C470.235 32.8072 470.547 34.3472 470.547 35.9239C470.547 37.2439 470.364 38.5089 469.997 39.7189C469.63 40.9289 469.117 42.0472 468.457 43.0739C467.797 44.1006 466.99 44.9989 466.037 45.7689C465.084 46.5022 464.039 47.0522 462.902 47.4189L472.087 62.2689H465.102L456.632 48.6839H447.612V62.2689H441.452ZM447.612 43.2389H458.392C459.272 43.2389 460.06 43.0556 460.757 42.6889C461.49 42.2856 462.114 41.7539 462.627 41.0939C463.14 40.3972 463.544 39.6089 463.837 38.7289C464.13 37.8489 464.277 36.9139 464.277 35.9239C464.277 34.9339 464.094 33.9989 463.727 33.1189C463.397 32.2389 462.939 31.4689 462.352 30.8089C461.802 30.1489 461.142 29.6356 460.372 29.2689C459.639 28.8656 458.869 28.6639 458.062 28.6639H447.612V43.2389Z" fill="white"/>
<path d="M513.674 56.8239V62.2689H486.889V23.2189H513.179V28.6639H493.049V39.7739H510.484V44.8889H493.049V56.8239H513.674Z" fill="white"/>
<path d="M561.939 62.2689V34.1639L550.334 55.4489H546.924L535.264 34.1639V62.2689H529.104V23.2189H535.704L548.629 47.0889L561.554 23.2189H568.154V62.2689H561.939Z" fill="white"/>
<path d="M229.295 42.7689C229.295 66.241 210.267 85.2689 186.795 85.2689C163.323 85.2689 144.295 66.241 144.295 42.7689C144.295 19.2968 163.323 0.268921 186.795 0.268921C210.267 0.268921 229.295 19.2968 229.295 42.7689Z" fill="#FFC500"/>
<path d="M224.368 42.7689C224.368 63.5196 207.546 80.3414 186.795 80.3414C166.044 80.3414 149.223 63.5196 149.223 42.7689C149.223 22.0182 166.044 5.19647 186.795 5.19647C207.546 5.19647 224.368 22.0182 224.368 42.7689Z" fill="black"/>
</svg>
