<svg viewBox="0 0 182 107" fill="none" xmlns="http://www.w3.org/2000/svg">
<path d="M11.4697 76.9174C11.4697 80.334 11.6162 83.116 11.4209 85.9468C11.0305 91.9501 10.4448 97.9046 9.90791 103.908C9.76148 105.665 8.93176 106.397 7.07708 106.251C4.83193 106.055 2.58679 106.202 0 106.202C0.439267 103.713 0.927341 101.516 1.12257 99.2712C1.51303 94.9762 1.90349 90.6811 1.90349 86.3861C2.09872 65.3501 2.04991 44.2653 2.14753 23.2293C2.14753 21.1306 2.34276 18.983 2.6356 16.9331C3.9534 7.80614 9.95671 1.6564 19.1813 0.338601C25.3311 -0.539932 31.3832 0.192179 36.752 3.70631C46.2694 9.80724 47.2944 23.5709 38.8995 31.8194C37.7281 32.942 36.4591 33.9669 34.9461 35.2847C43.7314 39.5798 49.1491 46.2176 49.3443 56.3207C49.4419 63.8371 46.8551 70.2308 41.9744 75.9413C35.727 83.2136 19.6206 86.0932 11.4697 76.9174ZM30.9439 33.5765C34.6045 26.841 36.0199 19.9104 34.0676 12.5405C32.4569 6.63476 28.2595 3.65751 22.4026 3.99916C17.1802 4.292 12.8852 8.39182 12.0066 14.0047C11.7138 15.8594 11.5186 17.714 11.5186 19.5687C11.4697 36.4073 11.4697 53.2458 11.5186 70.0844C11.5186 71.1094 11.9578 72.3296 12.5435 73.2081C17.8635 81.3101 32.6034 81.6518 36.7032 70.6213C40.9982 59.1515 38.6555 48.6091 31.8224 38.7988C30.9927 37.5787 29.9678 37.481 28.5035 37.6275C25.8679 37.9203 23.1835 37.8715 20.5479 37.5299C19.7182 37.4322 18.6444 35.9192 18.5468 34.9919C18.498 34.3086 19.7182 33.1372 20.6455 32.7955C21.9145 32.3563 23.3788 32.3075 24.6966 32.4539C26.7465 32.6491 28.6988 33.1372 30.9439 33.5765Z" fill="#B81717"/>
<path d="M90.1854 58.8239V64.2689H63.4004V25.2189H89.6904V30.6639H69.5604V41.7739H86.9954V46.8889H69.5604V58.8239H90.1854Z" fill="#B81717"/>
<path d="M136.47 30.6639H123.49V64.2689H117.275V30.6639H104.24V25.2189H136.47V30.6639Z" fill="#B81717"/>
<path d="M160.609 25.2189H165.999L181.399 64.2689H174.909L170.784 53.6539H155.714L151.644 64.2689H145.099L160.609 25.2189ZM169.574 49.0889L163.304 32.3139L156.814 49.0889H169.574Z" fill="#B81717"/>
</svg>
