<svg width="473" height="493" viewBox="0 0 473 493" fill="none" xmlns="http://www.w3.org/2000/svg">
<rect x="239" width="234" height="234" rx="117" fill="url(#paint0_linear)"/>
<path d="M296.353 121.382V108.602H300.997C302.041 108.602 302.953 108.77 303.733 109.106C304.525 109.442 305.185 109.898 305.713 110.474C306.241 111.05 306.637 111.728 306.901 112.508C307.165 113.276 307.297 114.098 307.297 114.974C307.297 115.946 307.147 116.828 306.847 117.62C306.559 118.4 306.139 119.072 305.587 119.636C305.035 120.188 304.369 120.62 303.589 120.932C302.821 121.232 301.957 121.382 300.997 121.382H296.353ZM304.795 114.974C304.795 114.362 304.711 113.798 304.543 113.282C304.375 112.766 304.129 112.322 303.805 111.95C303.481 111.578 303.079 111.29 302.599 111.086C302.131 110.882 301.597 110.78 300.997 110.78H298.837V119.204H300.997C301.609 119.204 302.149 119.096 302.617 118.88C303.097 118.664 303.493 118.37 303.805 117.998C304.129 117.614 304.375 117.164 304.543 116.648C304.711 116.132 304.795 115.574 304.795 114.974ZM310.138 121.382V108.602H315.79C316.378 108.602 316.918 108.728 317.41 108.98C317.914 109.22 318.346 109.544 318.706 109.952C319.066 110.348 319.348 110.804 319.552 111.32C319.756 111.824 319.858 112.334 319.858 112.85C319.858 113.678 319.648 114.434 319.228 115.118C318.82 115.79 318.262 116.276 317.554 116.576L320.47 121.382H317.68L315.07 117.098H312.622V121.382H310.138ZM312.622 114.92H315.736C315.964 114.92 316.174 114.866 316.366 114.758C316.57 114.65 316.744 114.506 316.888 114.326C317.032 114.134 317.146 113.912 317.23 113.66C317.314 113.408 317.356 113.138 317.356 112.85C317.356 112.55 317.308 112.274 317.212 112.022C317.116 111.77 316.984 111.554 316.816 111.374C316.66 111.182 316.474 111.038 316.258 110.942C316.054 110.834 315.844 110.78 315.628 110.78H312.622V114.92ZM323.009 121.382V108.602H325.493V119.204H332.009V121.382H323.009ZM342.226 108.602H344.422L349.282 121.382H346.726L345.538 118.196H341.074L339.904 121.382H337.348L342.226 108.602ZM345.088 116.45L343.324 111.428L341.488 116.45H345.088ZM359.983 119.942C358.963 120.962 357.775 121.472 356.419 121.472C355.579 121.472 354.787 121.304 354.043 120.968C353.311 120.632 352.669 120.17 352.117 119.582C351.577 118.994 351.145 118.304 350.821 117.512C350.509 116.708 350.353 115.844 350.353 114.92C350.353 114.044 350.509 113.222 350.821 112.454C351.145 111.674 351.583 110.996 352.135 110.42C352.699 109.832 353.359 109.37 354.115 109.034C354.871 108.686 355.693 108.512 356.581 108.512C357.781 108.512 358.807 108.764 359.659 109.268C360.523 109.772 361.171 110.45 361.603 111.302L359.749 112.67C359.425 112.034 358.969 111.548 358.381 111.212C357.805 110.876 357.175 110.708 356.491 110.708C355.951 110.708 355.453 110.822 354.997 111.05C354.553 111.278 354.169 111.59 353.845 111.986C353.533 112.382 353.287 112.838 353.107 113.354C352.939 113.87 352.855 114.416 352.855 114.992C352.855 115.592 352.951 116.156 353.143 116.684C353.335 117.2 353.599 117.65 353.935 118.034C354.271 118.418 354.667 118.724 355.123 118.952C355.591 119.168 356.095 119.276 356.635 119.276C357.871 119.276 358.987 118.694 359.983 117.53V116.63H357.409V114.812H362.035V121.382H359.983V119.942ZM373.926 119.204V121.382H365.052V108.602H373.764V110.78H367.536V113.858H372.918V115.874H367.536V119.204H373.926ZM379.247 113.192V121.382H376.763V108.602H378.689L385.349 116.99V108.62H387.833V121.382H385.817L379.247 113.192ZM400.949 110.78H396.863V121.382H394.397V110.78H390.311V108.602H400.949V110.78ZM407.502 121.382C407.502 120.842 407.544 120.356 407.628 119.924C407.712 119.48 407.856 119.072 408.06 118.7C408.276 118.328 408.564 117.98 408.924 117.656C409.296 117.332 409.764 117.014 410.328 116.702C410.82 116.438 411.252 116.21 411.624 116.018C412.008 115.814 412.326 115.628 412.578 115.46C412.83 115.292 413.022 115.124 413.154 114.956C413.286 114.776 413.352 114.572 413.352 114.344C413.352 113.984 413.208 113.678 412.92 113.426C412.632 113.162 412.218 113.03 411.678 113.03C411.39 113.03 411.126 113.072 410.886 113.156C410.646 113.228 410.418 113.33 410.202 113.462C409.998 113.594 409.806 113.744 409.626 113.912C409.458 114.068 409.302 114.236 409.158 114.416L407.61 112.634C407.766 112.466 407.988 112.286 408.276 112.094C408.564 111.89 408.9 111.704 409.284 111.536C409.68 111.356 410.112 111.212 410.58 111.104C411.06 110.984 411.57 110.924 412.11 110.924C412.722 110.924 413.268 111.002 413.748 111.158C414.228 111.302 414.63 111.512 414.954 111.788C415.29 112.052 415.542 112.376 415.71 112.76C415.89 113.132 415.98 113.54 415.98 113.984C415.98 114.404 415.902 114.776 415.746 115.1C415.59 115.424 415.392 115.712 415.152 115.964C414.912 116.216 414.648 116.438 414.36 116.63C414.084 116.81 413.814 116.972 413.55 117.116C413.334 117.236 413.088 117.374 412.812 117.53C412.536 117.686 412.26 117.86 411.984 118.052C411.72 118.232 411.474 118.424 411.246 118.628C411.018 118.82 410.844 119.012 410.724 119.204H416.178V121.382H407.502Z" fill="white" fill-opacity="0.7"/>
<path d="M8.00003 493L8.00001 420C8.00001 405.088 20.0883 393 35 393L167 393C181.912 393 194 380.912 194 366L194 155C194 140.088 206.088 128 221 128L239 128" stroke="#4A4A4A"/>
<path d="M0 483.077H7.077V476H8.923V483.077H16V484.922H8.924V492H7.078L7.078 484.923H0V483.077Z" fill="#B4B4B4"/>
<defs>
<linearGradient id="paint0_linear" x1="264.831" y1="22.1796" x2="486.413" y2="58.4054" gradientUnits="userSpaceOnUse">
<stop stop-color="#1F1C18"/>
<stop offset="1" stop-color="#16222B"/>
</linearGradient>
</defs>
</svg>
