<svg id="Layer_1" data-name="Layer 1" xmlns="http://www.w3.org/2000/svg" viewBox="0 0 64 64"><defs><style>.cls-1{fill:#e9b25f;}</style></defs><path class="cls-1" d="M56.73,42.39l.23-21a3.53,3.53,0,0,0,2.8-3.51,3.29,3.29,0,0,0-2.1-3.26A3.68,3.68,0,0,0,53.22,16L36,6a3.66,3.66,0,0,0-1.4-4.2,4,4,0,0,0-4,0A3.47,3.47,0,0,0,28.94,6L11.2,16.24c-.23-.23-.23-.47-.47-.47A3.14,3.14,0,0,0,7,15.54a3,3,0,0,0-1.87,3.27,3.31,3.31,0,0,0,2.1,3c.7.24.7.47.7.94V42.39a3.73,3.73,0,0,0-2.8,3.5,3.37,3.37,0,0,0,1.63,3A3.28,3.28,0,0,0,11.2,48L28.71,58v.47a3.3,3.3,0,0,0,1.4,3.73,4,4,0,0,0,4,0,3.58,3.58,0,0,0,1.63-3.73c0-.23.24-.47.47-.7,5.6-3.27,11-6.31,16.58-9.57.23,0,.23-.24.46-.24a3.37,3.37,0,0,0,4.21,1.17,3.59,3.59,0,0,0-.7-6.77Zm-.94-27.08a2.34,2.34,0,0,1,2.34,2.33v.23A2.1,2.1,0,0,1,56,20h-.24a2.1,2.1,0,0,1-2.1-2.11A2.53,2.53,0,0,1,55.79,15.31ZM35.25,6.9l5.83,3.5c3.51,2.1,7.24,4.21,11,6.31.23,0,.46.46.46.7a6.29,6.29,0,0,0,.24,2.1L46.45,23a3.35,3.35,0,0,0-3.5-.93,3.11,3.11,0,0,0-1.17.7.71.71,0,0,1-.93,0,58.57,58.57,0,0,0-5.14-3c0-.23,0-.23.24-.23a3.6,3.6,0,0,0-2.8-4.44V9.7c0-.93,0-1.86,1.16-2.1C34.55,7.6,34.78,7.14,35.25,6.9Zm5.37,32.92v.23l-5.37,3L35,42.86a3.67,3.67,0,0,0-5.13.23l-5.61-3.27a4.48,4.48,0,0,0-.23-3,4.83,4.83,0,0,0-2.57-1.87V28.85a.71.71,0,0,1,.24-.47A3.59,3.59,0,0,0,24,24l5.37-3a4.32,4.32,0,0,0,2.8,1.17A3.86,3.86,0,0,0,35,20.91l5.61,3.27c0,.23-.24.7-.24.93a3.35,3.35,0,0,0,2.34,3.74c.23,0,.47.47.47.7v5.37c0,.47,0,.47-.24.7A3.33,3.33,0,0,0,40.62,39.82Zm-6.07,5.6a2.51,2.51,0,0,1-2.34,2.34,2.3,2.3,0,0,1-2.1-2.34,2.15,2.15,0,0,1,2.1-2.33A2.35,2.35,0,0,1,34.55,45.42Zm-11.44-7a2.52,2.52,0,0,1-2.34,2.34,2.51,2.51,0,0,1-2.33-2.34,2.33,2.33,0,0,1,2.33-2.33A2.72,2.72,0,0,1,23.11,38.42ZM18.44,25.11a2.33,2.33,0,0,1,2.33-2.33,2.52,2.52,0,0,1,2.34,2.33,2.34,2.34,0,1,1-4.67,0Zm11.67-6.77a2.22,2.22,0,1,1,2.1,2.34A2.16,2.16,0,0,1,30.11,18.34Zm14,18.21a2.51,2.51,0,0,1,2.33,2.34,2.34,2.34,0,0,1-4.67,0A2.21,2.21,0,0,1,44.12,36.55Zm-2.34-11a2.21,2.21,0,0,1,2.34-2.34,2.34,2.34,0,0,1,2.33,2.34,2.49,2.49,0,0,1-2.33,2.33A2.34,2.34,0,0,1,41.78,25.58ZM32.45,2.23a2.31,2.31,0,0,1,2.1,2.34,1.94,1.94,0,0,1-2.34,2.1,2.3,2.3,0,0,1-2.1-2.34A2.31,2.31,0,0,1,32.45,2.23ZM12.37,16.94l11.2-6.3,6.07-3.27c.7.23,1.17.7,1.87.93.24,0,.24,0,.24.24v6.53h-.47a3.75,3.75,0,0,0-2.34,4.67l-5.37,3a4,4,0,0,0-5.37-.24h-.46c-1.87-.93-3.5-1.86-5.37-2.8-.24-.23-.24-.23-.24-.46V17.41C11.9,17.17,12.13,16.94,12.37,16.94ZM6.53,18.58a2.34,2.34,0,0,1,2.34-2.34A2.31,2.31,0,0,1,11,18.58a2.5,2.5,0,0,1-2.1,2.33A2.34,2.34,0,0,1,6.53,18.58ZM8.87,48.23a2.34,2.34,0,0,1-2.34-2.34v-.23a2.3,2.3,0,0,1,2.34-2.1,2.35,2.35,0,0,1,0,4.67Zm.46-5.84V22.78a1.25,1.25,0,0,1,.47-.94,14.14,14.14,0,0,0,1.87-.93l5.83,2.8a2.14,2.14,0,0,0-.23,1.17,3.1,3.1,0,0,0,2.33,3.5c.47.23.47.47.47.7v5.37c0,.23,0,.23-.23.47s-.24.23-.47.23a3.52,3.52,0,0,0-1.87,4.67l-6.07,3.74ZM29.18,56.86,28,56.16c-5.14-3-10.27-5.83-15.41-8.87-.47,0-.7-.46-.47-.93V45c0-.24,0-.47.47-.47,1.87-1.17,3.74-2.1,5.6-3.27,0-.23.24,0,.47,0a3.24,3.24,0,0,0,4.44,0h.46c1.87.94,3.51,2.1,5.37,3A3.74,3.74,0,0,0,31,48.93c0,.23.24.23.24.46v6.07c0,.24,0,.47-.24.47A14.48,14.48,0,0,0,29.18,56.86Zm3.27,4.44A2.31,2.31,0,0,1,30.34,59a2.1,2.1,0,0,1,2.11-2.11,2.5,2.5,0,0,1,2.1,2.34C34.55,60.6,33.61,61.53,32.45,61.3ZM52.52,46.13a1.22,1.22,0,0,1-.46.93c-4.91,2.8-10,5.84-14.94,8.64l-1.87,1.16a8.39,8.39,0,0,0-2.1-.93c-.24-.23-.24-.23-.24-.47V48.93c2.57-.94,3.27-2.1,2.8-4.67l3-1.87c.47-.23.7-.47,1.17-.7a1.31,1.31,0,0,1,2.1,0c1.4.93,3,.7,4.67-.7,1.87,1.17,3.73,2.1,5.6,3.27.23,0,.23.23.23.46Zm-4.9-6.08c-.23,0-.23-.23-.23-.46a3.34,3.34,0,0,0-2.34-4.2c-.46,0-.46-.24-.46-.47V29.55c0-.23,0-.23.23-.47s.23-.23.47-.23a3.73,3.73,0,0,0,1.86-4.67l6.31-3.5h.47l1.4.7v21l-1.87.93C51.59,42.39,49.49,41.22,47.62,40.05ZM56,48.23a2.35,2.35,0,0,1-2.34-2.34,2.4,2.4,0,0,1,2.57-2.33,2.29,2.29,0,0,1,2.1,2.33A2.35,2.35,0,0,1,56,48.23Z"/><rect class="cls-1" x="49.51" y="51.28" width="1.36" height="1.36" transform="matrix(0.86, -0.51, 0.51, 0.86, -19.58, 33.23)"/><rect class="cls-1" x="42.74" y="55.02" width="1.36" height="1.36" transform="translate(-22.47 30.27) rotate(-30.96)"/><polygon class="cls-1" points="20.3 55.93 21.47 56.63 22.17 55.7 21.01 55 20.3 55.93"/><rect class="cls-1" x="42.27" y="7.15" width="1.36" height="1.36" transform="matrix(0.51, -0.86, 0.86, 0.51, 14.14, 40.64)"/><rect class="cls-1" x="57.89" y="24.18" width="1.17" height="1.17"/><rect class="cls-1" x="57.89" y="29.32" width="1.17" height="1.17"/><rect class="cls-1" x="16.12" y="9.96" width="1.36" height="1.36" transform="translate(-3.08 10.16) rotate(-30.97)"/><rect class="cls-1" x="57.89" y="31.88" width="1.17" height="1.17"/><rect class="cls-1" x="57.89" y="26.75" width="1.17" height="1.17"/><polygon class="cls-1" points="19.84 9.47 19.37 8.3 18.2 9 18.9 10.17 19.84 9.47"/><polygon class="cls-1" points="18.2 54.76 19.14 55.46 20.07 54.3 18.9 53.6 18.2 54.76"/><rect class="cls-1" x="14.02" y="11.12" width="1.36" height="1.36" transform="translate(-3.98 9.25) rotate(-30.96)"/><rect class="cls-1" x="16.12" y="52.68" width="1.36" height="1.36" transform="translate(-37.6 40.32) rotate(-59.04)"/><rect class="cls-1" x="45.07" y="53.85" width="1.36" height="1.36" transform="translate(-21.53 31.31) rotate(-30.96)"/><rect class="cls-1" x="40.64" y="56.42" width="1.36" height="1.36" transform="matrix(0.86, -0.51, 0.51, 0.86, -23.49, 29.39)"/><rect class="cls-1" x="22.66" y="56.42" width="1.36" height="1.36" transform="translate(-37.63 47.74) rotate(-59.04)"/><rect class="cls-1" x="13.79" y="51.28" width="1.36" height="1.36" transform="translate(-37.53 37.63) rotate(-59.03)"/><rect class="cls-1" x="47.41" y="52.45" width="1.36" height="1.36" transform="translate(-20.48 32.31) rotate(-30.96)"/><rect class="cls-1" x="20.56" y="7.39" width="1.36" height="1.36" transform="translate(-1.12 12.08) rotate(-30.96)"/><polygon class="cls-1" points="41.78 6.43 40.62 5.73 39.92 6.67 41.08 7.37 41.78 6.43"/><rect class="cls-1" x="46.71" y="9.72" width="1.36" height="1.36" transform="matrix(0.51, -0.86, 0.86, 0.51, 14.09, 45.69)"/><rect class="cls-1" x="44.61" y="8.56" width="1.36" height="1.36" transform="translate(14.07 43.32) rotate(-59.04)"/><polygon class="cls-1" points="24.27 6.9 23.57 5.73 22.64 6.43 23.34 7.6 24.27 6.9"/><rect class="cls-1" x="57.89" y="34.45" width="1.17" height="1.17"/><rect class="cls-1" x="57.89" y="37.02" width="1.17" height="0.7"/><polygon class="cls-1" points="49.96 11.1 49.49 10.87 48.79 12.04 49.26 12.27 49.96 11.1"/><polygon class="cls-1" points="38.05 37.02 25.68 37.02 25.68 38.19 39.22 38.19 39.22 26.05 38.05 26.05 38.05 37.02"/><polygon class="cls-1" points="34.31 29.78 34.31 30.48 35.48 30.48 35.48 27.45 32.45 27.45 32.45 28.61 33.38 28.61 27.31 34.69 28.24 35.85 34.31 29.78"/></svg>