<svg id="Layer_1" data-name="Layer 1" xmlns="http://www.w3.org/2000/svg" viewBox="0 0 64 64"><defs><style>.cls-1{fill:#fff;}</style></defs><path class="cls-1" d="M55.48,42.51l.23-21a3.51,3.51,0,0,0,2.8-3.5,3.31,3.31,0,0,0-2.1-3.27A3.68,3.68,0,0,0,52,16.12L34.7,6.08a3.67,3.67,0,0,0-1.4-4.2,4,4,0,0,0-4,0,3.48,3.48,0,0,0-1.64,4.2L10,16.36c-.23-.24-.23-.47-.47-.47a3.14,3.14,0,0,0-3.73-.23,3,3,0,0,0-1.87,3.27A3.32,3.32,0,0,0,6,22c.7.23.7.47.7.93V42.51A3.71,3.71,0,0,0,3.88,46a3.34,3.34,0,0,0,1.63,3A3.27,3.27,0,0,0,10,48.11l17.51,10v.47a3.3,3.3,0,0,0,1.4,3.73,4,4,0,0,0,4,0,3.58,3.58,0,0,0,1.63-3.73c0-.24.24-.47.47-.7,5.6-3.27,11-6.31,16.58-9.58.23,0,.23-.23.46-.23a3.37,3.37,0,0,0,4.21,1.17,3.59,3.59,0,0,0-.7-6.77Zm-.94-27.09a2.35,2.35,0,0,1,2.34,2.34V18a2.09,2.09,0,0,1-2.1,2.1h-.24a2.09,2.09,0,0,1-2.1-2.1A2.55,2.55,0,0,1,54.54,15.42ZM34,7l5.83,3.5c3.51,2.1,7.24,4.2,11,6.3.23,0,.46.47.46.7a6.32,6.32,0,0,0,.24,2.11l-6.31,3.5a3.36,3.36,0,0,0-3.5-.94,3.39,3.39,0,0,0-1.17.7.69.69,0,0,1-.93,0,58.42,58.42,0,0,0-5.14-3c0-.23,0-.23.24-.23a3.59,3.59,0,0,0-2.8-4.44V9.82c0-.93,0-1.87,1.16-2.1C33.3,7.72,33.53,7.25,34,7Zm5.37,32.92v.23l-5.37,3L33.76,43a3.67,3.67,0,0,0-5.13.24L23,39.94a4.51,4.51,0,0,0-.23-3A4.86,4.86,0,0,0,20.22,35V29a.7.7,0,0,1,.24-.46,3.6,3.6,0,0,0,2.33-4.44l5.37-3A4.3,4.3,0,0,0,31,22.19,3.85,3.85,0,0,0,33.76,21l5.61,3.27c0,.23-.24.7-.24.93A3.34,3.34,0,0,0,41.47,29c.23,0,.47.47.47.71V35c0,.46,0,.46-.24.7A3.33,3.33,0,0,0,39.37,39.94Zm-6.07,5.6A2.52,2.52,0,0,1,31,47.88a2.3,2.3,0,0,1-2.1-2.34A2.15,2.15,0,0,1,31,43.21,2.34,2.34,0,0,1,33.3,45.54Zm-11.44-7a2.51,2.51,0,0,1-2.34,2.33,2.51,2.51,0,0,1-2.33-2.33,2.34,2.34,0,0,1,2.33-2.34A2.73,2.73,0,0,1,21.86,38.54ZM17.19,25.23a2.34,2.34,0,0,1,2.33-2.34,2.52,2.52,0,0,1,2.34,2.34,2.34,2.34,0,0,1-4.67,0Zm11.67-6.77A2.22,2.22,0,1,1,31,20.79,2.15,2.15,0,0,1,28.86,18.46Zm14,18.21A2.5,2.5,0,0,1,45.2,39a2.34,2.34,0,1,1-4.67,0A2.21,2.21,0,0,1,42.87,36.67Zm-2.34-11a2.21,2.21,0,0,1,2.34-2.34A2.34,2.34,0,0,1,45.2,25.7,2.49,2.49,0,0,1,42.87,28,2.35,2.35,0,0,1,40.53,25.7ZM31.2,2.35a2.31,2.31,0,0,1,2.1,2.33A1.93,1.93,0,0,1,31,6.78a2.29,2.29,0,0,1-2.1-2.33A2.3,2.3,0,0,1,31.2,2.35ZM11.12,17.06l11.2-6.31,6.07-3.26c.7.23,1.17.7,1.87.93.24,0,.24,0,.24.23v6.54H30a3.75,3.75,0,0,0-2.34,4.67l-5.37,3A4,4,0,0,0,17,22.66h-.46c-1.87-.93-3.5-1.87-5.37-2.8-.24-.23-.24-.23-.24-.47V17.52C10.65,17.29,10.88,17.06,11.12,17.06ZM5.28,18.69a2.34,2.34,0,0,1,2.34-2.33,2.3,2.3,0,0,1,2.1,2.33A2.51,2.51,0,0,1,7.62,21,2.34,2.34,0,0,1,5.28,18.69ZM7.62,48.34A2.33,2.33,0,0,1,5.28,46v-.24a2.31,2.31,0,0,1,2.34-2.1,2.35,2.35,0,0,1,0,4.67Zm.46-5.83V22.89A1.22,1.22,0,0,1,8.55,22,14.14,14.14,0,0,0,10.42,21l5.83,2.8A2.14,2.14,0,0,0,16,25a3.1,3.1,0,0,0,2.33,3.5c.47.23.47.46.47.7v5.37c0,.23,0,.23-.23.47s-.24.23-.47.23a3.52,3.52,0,0,0-1.87,4.67l-6.07,3.73ZM27.93,57l-1.17-.7c-5.14-3-10.27-5.84-15.41-8.87-.47,0-.7-.47-.47-.93V45.07c0-.23,0-.46.47-.46,1.87-1.17,3.74-2.1,5.6-3.27,0-.23.24,0,.47,0a3.24,3.24,0,0,0,4.44,0h.46c1.87.93,3.51,2.1,5.37,3A3.73,3.73,0,0,0,29.79,49c0,.24.24.24.24.47v6.07c0,.23,0,.47-.24.47A13.27,13.27,0,0,0,27.93,57Zm3.27,4.44a2.31,2.31,0,0,1-2.11-2.34A2.1,2.1,0,0,1,31.2,57a2.49,2.49,0,0,1,2.1,2.34C33.3,60.72,32.36,61.65,31.2,61.42ZM51.27,46.24a1.24,1.24,0,0,1-.46.94C45.9,50,40.77,53,35.87,55.81L34,57a8,8,0,0,0-2.1-.93c-.24-.24-.24-.24-.24-.47V49c2.57-.93,3.27-2.1,2.8-4.67l3-1.86c.47-.24.7-.47,1.17-.7a1.31,1.31,0,0,1,2.1,0c1.4.93,3,.7,4.67-.7,1.87,1.16,3.73,2.1,5.6,3.26.23,0,.23.24.23.47Zm-4.9-6.07c-.23,0-.23-.23-.23-.47a3.35,3.35,0,0,0-2.34-4.2c-.46,0-.46-.23-.46-.46V29.67c0-.24,0-.24.23-.47S43.8,29,44,29A3.72,3.72,0,0,0,45.9,24.3l6.31-3.51h.47c.46.24.93.47,1.4.7v21l-1.87.93C50.34,42.51,48.24,41.34,46.37,40.17Zm8.41,8.17A2.34,2.34,0,0,1,52.44,46,2.41,2.41,0,0,1,55,43.67,2.3,2.3,0,0,1,57.11,46,2.34,2.34,0,0,1,54.78,48.34Z"/><rect class="cls-1" x="48.26" y="51.4" width="1.36" height="1.36" transform="translate(-19.82 32.61) rotate(-30.97)"/><rect class="cls-1" x="41.49" y="55.13" width="1.36" height="1.36" transform="translate(-22.71 29.65) rotate(-30.96)"/><polygon class="cls-1" points="19.05 56.05 20.22 56.75 20.92 55.81 19.76 55.11 19.05 56.05"/><rect class="cls-1" x="41.02" y="7.27" width="1.36" height="1.36" transform="translate(13.43 39.62) rotate(-59.04)"/><rect class="cls-1" x="56.64" y="24.3" width="1.17" height="1.17"/><rect class="cls-1" x="56.64" y="29.43" width="1.17" height="1.17"/><rect class="cls-1" x="14.87" y="10.07" width="1.36" height="1.36" transform="translate(-3.32 9.54) rotate(-30.97)"/><rect class="cls-1" x="56.64" y="32" width="1.17" height="1.17"/><rect class="cls-1" x="56.64" y="26.86" width="1.17" height="1.17"/><polygon class="cls-1" points="18.59 9.59 18.12 8.42 16.95 9.12 17.65 10.29 18.59 9.59"/><polygon class="cls-1" points="16.95 54.88 17.89 55.58 18.82 54.41 17.65 53.71 16.95 54.88"/><rect class="cls-1" x="12.77" y="11.24" width="1.36" height="1.36" transform="translate(-4.22 8.62) rotate(-30.96)"/><rect class="cls-1" x="14.87" y="52.8" width="1.36" height="1.36" transform="translate(-38.31 39.3) rotate(-59.04)"/><rect class="cls-1" x="43.82" y="53.97" width="1.36" height="1.36" transform="translate(-21.77 30.68) rotate(-30.96)"/><rect class="cls-1" x="39.39" y="56.53" width="1.36" height="1.36" transform="matrix(0.86, -0.51, 0.51, 0.86, -23.73, 28.77)"/><rect class="cls-1" x="21.41" y="56.53" width="1.36" height="1.36" transform="translate(-38.34 46.72) rotate(-59.04)"/><rect class="cls-1" x="12.54" y="51.4" width="1.36" height="1.36" transform="translate(-38.24 36.62) rotate(-59.03)"/><rect class="cls-1" x="46.16" y="52.57" width="1.36" height="1.36" transform="translate(-20.72 31.68) rotate(-30.96)"/><rect class="cls-1" x="19.31" y="7.51" width="1.36" height="1.36" transform="translate(-1.36 11.45) rotate(-30.96)"/><polygon class="cls-1" points="40.53 6.55 39.37 5.85 38.67 6.79 39.83 7.49 40.53 6.55"/><rect class="cls-1" x="45.46" y="9.84" width="1.36" height="1.36" transform="matrix(0.51, -0.86, 0.86, 0.51, 13.38, 44.67)"/><rect class="cls-1" x="43.36" y="8.67" width="1.36" height="1.36" transform="translate(13.36 42.3) rotate(-59.04)"/><polygon class="cls-1" points="23.02 7.02 22.32 5.85 21.39 6.55 22.09 7.72 23.02 7.02"/><rect class="cls-1" x="56.64" y="34.57" width="1.17" height="1.17"/><rect class="cls-1" x="56.64" y="37.14" width="1.17" height="0.7"/><polygon class="cls-1" points="48.71 11.22 48.24 10.99 47.54 12.15 48.01 12.39 48.71 11.22"/><polygon class="cls-1" points="36.8 37.14 24.43 37.14 24.43 38.3 37.97 38.3 37.97 26.16 36.8 26.16 36.8 37.14"/><polygon class="cls-1" points="33.06 29.9 33.06 30.6 34.23 30.6 34.23 27.56 31.2 27.56 31.2 28.73 32.13 28.73 26.06 34.8 26.99 35.97 33.06 29.9"/></svg>