<svg id="Layer_1" data-name="Layer 1" xmlns="http://www.w3.org/2000/svg" viewBox="0 0 162 29.34"><defs><style>.cls-1{isolation:isolate;font-size:15px;font-family:Roboto-Regular, Roboto;}.cls-1,.cls-3{fill:#fff;}.cls-2{letter-spacing:-0.01em;}</style></defs><text class="cls-1" transform="translate(34.06 20.51)">Resou<tspan class="cls-2" x="41.74" y="0">r</tspan><tspan x="46.68" y="0">ces</tspan></text><path class="cls-3" d="M30.13,19a1.52,1.52,0,0,1,1.23,1.53,1.41,1.41,0,0,1-.91,1.36,1.49,1.49,0,0,1-1.83-.47l-.17.08-7.09,4.09a.28.28,0,0,0-.16.35,1.52,1.52,0,0,1-2.34,1.55,1.51,1.51,0,0,1-.63-1.57c0-.06,0-.12,0-.2l-7.45-4.3a1.51,1.51,0,0,1-1.9.44,1.42,1.42,0,0,1-.85-1.4A1.5,1.5,0,0,1,9.32,19V10.62a.35.35,0,0,0-.26-.4,1.42,1.42,0,0,1-1-1.3,1.44,1.44,0,0,1,.77-1.43,1.48,1.48,0,0,1,1.64.1l.2.15,7.59-4.38a1.51,1.51,0,0,1,.66-1.8,1.41,1.41,0,0,1,1.65.05,1.5,1.5,0,0,1,.58,1.75l7.4,4.27a1.53,1.53,0,0,1,1.87-.57,1.47,1.47,0,0,1,.93,1.4A1.52,1.52,0,0,1,30.13,10ZM20.87,9.78a1.55,1.55,0,0,1-1.16.53,1.6,1.6,0,0,1-1.16-.53L16.2,11.14a1.54,1.54,0,0,1-1,1.91l0,0a.21.21,0,0,0-.11.16c0,.85,0,1.7,0,2.57a1.55,1.55,0,0,1,1.05.78,1.62,1.62,0,0,1,.08,1.33l2.4,1.38a1.58,1.58,0,0,1,2.23-.12l.12.12,2.33-1.35v-.09a1.5,1.5,0,0,1,1-1.84h0c.15-.05.15-.14.15-.26V13.49a.23.23,0,0,0-.2-.28h0a1.5,1.5,0,0,1-1-1.62c0-.14.06-.28.08-.43Zm.3-.47c.74.43,1.49.85,2.22,1.29a.29.29,0,0,0,.39,0,1.47,1.47,0,0,1,.52-.25,1.49,1.49,0,0,1,1.5.4l2.67-1.5a4.85,4.85,0,0,1-.13-.85A.32.32,0,0,0,28.15,8q-2.37-1.35-4.74-2.73L20.89,3.84c-.15.11-.27.27-.42.3-.55.1-.51.48-.49.88,0,.22,0,.44,0,.66V7.27a1.59,1.59,0,0,1,1.24,1.86c0,.06,0,.12,0,.18Zm-2.9,10.45c-.78-.44-1.54-.89-2.31-1.32a.27.27,0,0,0-.25,0,1.51,1.51,0,0,1-1.94,0,.28.28,0,0,0-.25,0c-.8.45-1.59.91-2.39,1.38a.35.35,0,0,0-.09.25,2.75,2.75,0,0,1,.05.57.36.36,0,0,0,.22.43L18,24.89l.55.32.8-.44a.35.35,0,0,0,.14-.2q0-1.32,0-2.64a.26.26,0,0,0-.13-.18,1.55,1.55,0,0,1-1.07-1.91l0-.08Zm7.85-8.58a1.55,1.55,0,0,1-.85,2l-.17.06a.27.27,0,0,0-.12.22c0,.77,0,1.54,0,2.32a.21.21,0,0,0,.18.23,1.52,1.52,0,0,1,1,1.79.24.24,0,0,0,.07.21l2.47,1.4.84-.44V10L29,9.69a.34.34,0,0,0-.2,0l-2.66,1.49ZM13.33,17.91a1.53,1.53,0,0,1,.82-2l.19-.07a.3.3,0,0,0,.12-.22V13.29a.21.21,0,0,0-.19-.25,1.5,1.5,0,0,1-1-1.54,4.17,4.17,0,0,1,.08-.49L10.86,9.76a5.91,5.91,0,0,1-.76.46.31.31,0,0,0-.24.36V19l.85.46ZM21,25.21l.83-.48L28.17,21a.32.32,0,0,0,.19-.37,4.4,4.4,0,0,1,0-.62.27.27,0,0,0-.08-.22l-2.44-1.39c-.69.6-1.42.74-2,.28a.63.63,0,0,0-.89,0l0,0a4.08,4.08,0,0,1-.5.29l-1.31.76c.2,1.06-.1,1.57-1.17,2v2.78a.25.25,0,0,0,.11.17c.26.15.53.28.84.44ZM16,10.65l2.32-1.34a1.58,1.58,0,0,1,1-2l.17,0V4.44a.17.17,0,0,0-.1-.12l-.85-.45L15.92,5.36,11.2,8.08c-.1.06-.21.09-.17.27a6.16,6.16,0,0,1,.05.75.35.35,0,0,0,.1.2l2.32,1.19a.27.27,0,0,0,.23,0,1.54,1.54,0,0,1,2.17.14l0,.05Zm-1.2,0a1,1,0,0,0-1,1h0a1,1,0,0,0,1,1,1,1,0,0,0,0-1.94h0Zm0,5.7a1,1,0,1,0,1,1,1,1,0,0,0-1-1h0Zm9-4.55a1,1,0,0,0,1,1,1,1,0,1,0-1-1Zm0,5.68a1,1,0,1,0,1.94,0,1,1,0,0,0-1-1,1,1,0,0,0-1,1h0Zm5.16-9a.91.91,0,0,0,.91.94h.07a.92.92,0,0,0,.95-.89V8.44a1,1,0,1,0-1.94,0h0Zm-18.34.35a1,1,0,0,0-.94-1h0a1,1,0,0,0-1,1h0a1,1,0,1,0,1.92,0Zm10.13,17.4a1,1,0,0,0-.93-1h0a1,1,0,0,0-.95.95h0a1,1,0,0,0,.93,1h0a1,1,0,0,0,1-1v0Zm8.21-5.72a1,1,0,0,0,.95,1h0a1,1,0,0,0,1-1h0a1,1,0,0,0-.95-1h0a1,1,0,0,0-1,.95h0Zm-18.34,0a1,1,0,0,0-.92-1h0a1,1,0,0,0-1,.89v.06a1,1,0,0,0,1,1h0A1,1,0,0,0,10.55,20.53ZM20.68,2.85a1,1,0,0,0-.93-1h0a1,1,0,0,0-1,.94h0a1,1,0,0,0,.93,1h0a1,1,0,0,0,1-.94v0Zm-1,6.9a1,1,0,0,0,1-.9v0a1,1,0,0,0-.91-1h0a1,1,0,0,0-1,.89v0a1,1,0,0,0,.9,1Zm1,10.52a1,1,0,0,0-1-.95h0a1,1,0,0,0-.95,1h0a1,1,0,0,0,.94,1h0a1,1,0,0,0,1-.95v0Z"/><path class="cls-3" d="M27,23l.47-.27.28.47-.48.27Z"/><path class="cls-3" d="M24.9,24.83l-.48.28-.28-.47.47-.28Z"/><path class="cls-3" d="M14.85,24.38l.48.27-.27.47-.47-.26Z"/><path class="cls-3" d="M24.66,4.1l-.28.48-.47-.28.28-.47Z"/><path class="cls-3" d="M30.7,11.2h.5v.52h-.5Z"/><path class="cls-3" d="M31.21,13.4v.52H30.7V13.4Z"/><path class="cls-3" d="M12.7,5.3,13.17,5l.28.47L13,5.77Z"/><path class="cls-3" d="M31.2,15h-.5v-.52h.5Z"/><path class="cls-3" d="M30.69,12.29h.5v.53h-.5Z"/><path class="cls-3" d="M14.41,5l-.48.27-.27-.47.46-.27Z"/><path class="cls-3" d="M14.09,24.57l-.47-.27.27-.47.47.27Z"/><path class="cls-3" d="M11.75,5.85l.47-.27.28.47L12,6.32Z"/><path class="cls-3" d="M13,23.28l.47.27-.27.48-.48-.28Z"/><path class="cls-3" d="M25.57,23.8l.27.48-.46.28-.29-.47Z"/><path class="cls-3" d="M23.19,25.19l.47-.28.28.47-.47.28Z"/><path class="cls-3" d="M16,25.68l-.48-.28.27-.46.47.26Z"/><path class="cls-3" d="M11.71,23.2l.28-.47.47.27-.27.47Z"/><path class="cls-3" d="M26,23.53l.47-.27.28.47-.46.27Z"/><path class="cls-3" d="M14.89,4.67l-.27-.47.47-.28.27.48Z"/><path class="cls-3" d="M26.09,4.93l.48.28-.28.47-.47-.27Z"/><path class="cls-3" d="M25.14,4.38l.47.28-.27.47-.48-.27Z"/><path class="cls-3" d="M31.21,15.61v.51H30.7v-.51Z"/><path class="cls-3" d="M30.67,16.71h.54V17h-.52Z"/><path class="cls-3" d="M27,6.08,26.77,6,27,5.49l.23.13Z"/><path class="cls-3" d="M22.13,12h.54V17.2h-5.8v-.54h5.26Z"/><path class="cls-3" d="M21.08,13.89h-.51l0-.35-2.62,2.63-.4-.46,2.61-2.6-.37,0v-.52h1.32Z"/></svg>