<svg id="Layer_1" data-name="Layer 1" xmlns="http://www.w3.org/2000/svg" viewBox="0 0 162 29.34"><defs><style>.cls-1,.cls-2{fill:#e9b25f;}.cls-2{isolation:isolate;font-size:15px;font-family:Roboto-Regular, Roboto;}.cls-3{letter-spacing:-0.01em;}</style></defs><path class="cls-1" d="M20.2,4.17l-.48-.28L20,3.41l.46.27Z"/><path class="cls-1" d="M12.33,3.79l.44-.26L13,4l-.43.26Z"/><text class="cls-2" transform="translate(32.7 20.65)">Resou<tspan class="cls-3" x="41.74" y="0">r</tspan><tspan x="46.68" y="0">ces</tspan></text><path class="cls-1" d="M28.77,19.14A1.48,1.48,0,0,1,30,20.66,1.41,1.41,0,0,1,29.08,22a1.49,1.49,0,0,1-1.83-.47.8.8,0,0,0-.16.08L20,25.73a.27.27,0,0,0-.16.35,1.51,1.51,0,1,1-3,0c0-.06,0-.12,0-.21l-7.46-4.3a1.5,1.5,0,0,1-1.9.45,1.4,1.4,0,0,1-.84-1.4A1.51,1.51,0,0,1,8,19.14V10.76c0-.21,0-.32-.26-.4a1.41,1.41,0,0,1-1-1.31,1.41,1.41,0,0,1,.77-1.42,1.45,1.45,0,0,1,1.64.1l.2.15L16.91,3.5a1.5,1.5,0,0,1,.65-1.8,1.4,1.4,0,0,1,1.66.05,1.5,1.5,0,0,1,.57,1.75l7.4,4.27a1.52,1.52,0,0,1,1.87-.57A1.46,1.46,0,0,1,30,8.6a1.55,1.55,0,0,1-1.23,1.5ZM19.51,9.91a1.55,1.55,0,0,1-2.33,0l-2.35,1.36a1.53,1.53,0,0,1-1,1.92h0a.23.23,0,0,0-.12.17v2.57a1.55,1.55,0,0,1,1.06.77A1.63,1.63,0,0,1,14.78,18l2.4,1.38a1.58,1.58,0,0,1,2.23-.12l.12.12,2.33-1.34a.17.17,0,0,0,0-.1,1.49,1.49,0,0,1,1.05-1.83h0c.15-.06.15-.15.15-.26V13.62a.25.25,0,0,0-.2-.28h0a1.46,1.46,0,0,1-1-1.61,3.25,3.25,0,0,1,.08-.43Zm.3-.46L22,10.73a.28.28,0,0,0,.39,0,1.53,1.53,0,0,1,2,.16l2.66-1.5A6.14,6.14,0,0,1,27,8.5a.33.33,0,0,0-.19-.34L22,5.43,19.52,4c-.15.12-.27.28-.42.3-.54.1-.51.49-.49.88,0,.22,0,.44,0,.66v1.6a1.58,1.58,0,0,1,1.24,1.86,1.21,1.21,0,0,1-.05.18ZM16.91,19.9l-2.32-1.33a.29.29,0,0,0-.24,0,1.52,1.52,0,0,1-1.95,0,.26.26,0,0,0-.24,0Q11,19.26,9.76,20c-.06,0-.08.16-.08.25a2.64,2.64,0,0,1,0,.57.34.34,0,0,0,.23.42L16.58,25l.55.31.8-.44a.27.27,0,0,0,.14-.2c0-.88,0-1.75,0-2.63a.24.24,0,0,0-.12-.18A1.55,1.55,0,0,1,16.88,20a.19.19,0,0,1,0-.07Zm7.84-8.58a1.54,1.54,0,0,1-.85,2l-.17,0a.32.32,0,0,0-.12.22v2.32c0,.14.05.19.18.24a1.51,1.51,0,0,1,1,1.78.26.26,0,0,0,.07.21l2.48,1.4.83-.44v-9c-.21-.1-.39-.2-.58-.28a.26.26,0,0,0-.21,0l-2.66,1.49ZM12,18a1.54,1.54,0,0,1,.83-2A1.06,1.06,0,0,1,13,16a.3.3,0,0,0,.11-.23c0-.77,0-1.54,0-2.32,0-.14,0-.2-.19-.25a1.46,1.46,0,0,1-1-1.53,3.85,3.85,0,0,1,.07-.49L9.5,9.9a7.45,7.45,0,0,1-.77.46.31.31,0,0,0-.24.35c0,2.72,0,5.45,0,8.17v.21l.85.46Zm7.62,7.3.84-.48,6.38-3.68a.31.31,0,0,0,.19-.37,4.21,4.21,0,0,1,.05-.62A.32.32,0,0,0,27,20c-.81-.47-1.63-.92-2.44-1.38-.69.6-1.42.74-2,.27a.63.63,0,0,0-.89,0l0,0a5.09,5.09,0,0,1-.5.3l-1.31.75c.2,1.06-.1,1.58-1.18,2v2.79a.25.25,0,0,0,.11.17l.85.44Zm-5-14.55L16.9,9.45a1.58,1.58,0,0,1,1-2l.17,0V4.58a.19.19,0,0,0-.1-.13L17.13,4,14.55,5.49,9.84,8.21c-.1.06-.21.09-.18.27s0,.5.06.75a.26.26,0,0,0,.1.2c.77.41,1.54.8,2.32,1.19a.25.25,0,0,0,.22,0,1.54,1.54,0,0,1,2.17.13l0,0Zm-1.2,0a1,1,0,0,0-1,1h0a1,1,0,0,0,.95,1,1,1,0,0,0,1-.95,1,1,0,0,0-1-1Zm0,5.7a1,1,0,1,0,1,1,1,1,0,0,0-1-1Zm9-4.56a1,1,0,1,0,1-1,1,1,0,0,0-1,1Zm0,5.68a1,1,0,1,0,1.94,0,1,1,0,0,0-1-1,1,1,0,0,0-1,.95Zm5.16-9a.93.93,0,0,0,.92.94h.06a.93.93,0,0,0,.95-.9V8.58a1,1,0,1,0-1.93,0h0ZM9.19,9a1,1,0,0,0-.95-1h0a1,1,0,0,0-1,1h0A1,1,0,1,0,9.18,9h0Zm10.13,17.4a1,1,0,0,0-.93-1h-.05a1,1,0,0,0-.95,1h0a1,1,0,0,0,.94,1h0a1,1,0,0,0,.95-.95v0Zm8.2-5.72a1,1,0,0,0,1,1h0a1,1,0,0,0,1-1h0a1,1,0,0,0-.94-.95h0a.94.94,0,0,0-.95.95Zm-18.34,0a1,1,0,0,0-.92-1h0a1,1,0,0,0-1,.9v.06a1,1,0,0,0,1,1h0A1,1,0,0,0,9.18,20.67ZM19.31,3a1,1,0,0,0-.93-1h0a1,1,0,0,0-1,.94h0a1,1,0,0,0,.93,1h0a1,1,0,0,0,1-1Zm-1,6.9a1,1,0,0,0,1-.9V9a.94.94,0,0,0-.91-1h0a.94.94,0,0,0-1,.89v0a.94.94,0,0,0,.9,1Zm1,10.52a1,1,0,0,0-.95-.95h0a.93.93,0,0,0-.94.95h0a1,1,0,0,0,.93,1h0a1,1,0,0,0,1-.94v0Z"/><path class="cls-1" d="M25.63,23.12l.47-.28.28.47-.47.28Z"/><path class="cls-1" d="M23.53,25l-.47.27-.28-.47.46-.27Z"/><path class="cls-1" d="M13.49,24.51l.47.27-.27.48L13.22,25Z"/><path class="cls-1" d="M23.3,4.24,23,4.71l-.47-.27L22.82,4Z"/><path class="cls-1" d="M29.33,11.34h.5v.51h-.5Z"/><path class="cls-1" d="M29.84,13.54v.52h-.51v-.52Z"/><path class="cls-1" d="M11.33,5.44l.48-.28.27.47-.47.28Z"/><path class="cls-1" d="M29.83,15.17h-.5v-.53h.5Z"/><path class="cls-1" d="M29.33,12.43h.5V13h-.5Z"/><path class="cls-1" d="M13,5.08l-.47.28-.28-.47.46-.28Z"/><path class="cls-1" d="M12.72,24.71l-.47-.27.27-.48.48.28Z"/><path class="cls-1" d="M10.38,6l.47-.27.28.47-.47.28Z"/><path class="cls-1" d="M11.58,23.41l.47.28-.27.47-.47-.27Z"/><path class="cls-1" d="M24.2,23.94l.28.48-.47.27-.28-.46Z"/><path class="cls-1" d="M21.82,25.32l.48-.27.27.46-.46.28Z"/><path class="cls-1" d="M14.64,25.81l-.48-.27.27-.47.48.26Z"/><path class="cls-1" d="M10.35,23.34l.27-.47.48.27-.28.47Z"/><path class="cls-1" d="M24.68,23.67l.47-.28.28.47-.47.28Z"/><path class="cls-1" d="M13.52,4.81l-.27-.47.47-.28.27.47Z"/><path class="cls-1" d="M24.73,5.07l.47.27-.27.48-.48-.28Z"/><path class="cls-1" d="M23.77,4.52l.47.27L24,5.27,23.5,5Z"/><path class="cls-1" d="M29.84,15.75v.5h-.51v-.5Z"/><path class="cls-1" d="M29.31,16.84h.53v.28h-.51Z"/><path class="cls-1" d="M25.64,6.22l-.23-.13.26-.46.24.12Z"/><path class="cls-1" d="M20.77,12.14h.53v5.19H15.51V16.8h5.26Z"/><path class="cls-1" d="M19.71,14H19.2l0-.34-2.63,2.63-.4-.47,2.61-2.6-.36,0v-.51h1.31Z"/></svg>