<svg id="Layer_1" data-name="Layer 1" xmlns="http://www.w3.org/2000/svg" viewBox="0 0 64 64"><defs><style>.cls-1{fill:#e9b25f;}.cls-2{fill:#104165;}.cls-3{fill:#e5b798;}.cls-10,.cls-4,.cls-5{fill:#7f411f;}.cls-4{opacity:0.3;}.cls-11,.cls-12,.cls-14,.cls-4,.cls-5,.cls-7,.cls-9{isolation:isolate;}.cls-11,.cls-5,.cls-9{opacity:0.2;}.cls-6{fill:#fbcaab;}.cls-7,.cls-9{fill:#1f1e21;}.cls-14,.cls-7{opacity:0.4;}.cls-11,.cls-12,.cls-14,.cls-8{fill:#fff;}.cls-12{opacity:0.5;}.cls-13{fill:#3a1b0c;}.cls-15{fill:#743e20;}</style></defs><g id="Group_809" data-name="Group 809"><g id="Group_788" data-name="Group 788"><path id="Path_3463" data-name="Path 3463" class="cls-1" d="M58.54,37A25.82,25.82,0,0,1,50,56.3a25,25,0,0,1-3.33,2.56A25.75,25.75,0,0,1,33.55,63l-1,0c-.32,0-.65,0-1,0A26,26,0,1,1,58.54,37.05Z"/><g id="Group_787" data-name="Group 787"><path id="Path_3464" data-name="Path 3464" class="cls-2" d="M50,56.3a25,25,0,0,1-3.33,2.56A25.72,25.72,0,0,1,33.55,63l-1,0c-.32,0-.65,0-1,0A25.89,25.89,0,0,1,15.18,56.3a20,20,0,0,1,10.15-5.4,28.51,28.51,0,0,1,3-.56,33,33,0,0,1,8.42,0l.72.11.54.08c.6.11,1.2.23,1.78.37A20,20,0,0,1,50,56.3Z"/><g id="Group_786" data-name="Group 786"><g id="Group_785" data-name="Group 785"><path id="Path_3465" data-name="Path 3465" class="cls-3" d="M39.82,50.9c0,2.73-4,4.31-7.24,4.31s-7.23-1.58-7.25-4.31c.54-.13,1.09-.25,1.66-.35a1.66,1.66,0,0,0,1.38-1.64V42.66h8.42v6.26a1.66,1.66,0,0,0,1.37,1.64C38.73,50.66,39.28,50.77,39.82,50.9Z"/></g></g><path id="Path_3466" data-name="Path 3466" class="cls-4" d="M36.79,42.65v5.87a10.35,10.35,0,0,1-4.6-.05,10.89,10.89,0,0,1-3.82-2V42.65Z"/></g></g><g id="Group_793" data-name="Group 793"><g id="Group_789" data-name="Group 789"><path id="Path_3467" data-name="Path 3467" class="cls-3" d="M18.56,32.81s0,0,0,0c-.36.82-1.78.9-2.52.75A2.67,2.67,0,0,1,14,32.07a10.61,10.61,0,0,1-.11-2.58,11.92,11.92,0,0,1-.45-3.56,3,3,0,0,1,1.81-2,3.62,3.62,0,0,1,2.92.06c.71.32.46,1.19.46,1.84v6A3.77,3.77,0,0,1,18.56,32.81Z"/></g><g id="Group_790" data-name="Group 790"><path id="Path_3468" data-name="Path 3468" class="cls-3" d="M46.18,32.81s0,0,0,0c.35.82,1.78.9,2.52.75a2.67,2.67,0,0,0,2.07-1.54A10.62,10.62,0,0,0,51,29.49a11.24,11.24,0,0,0,.36-3.56,3,3,0,0,0-1.81-2,3.6,3.6,0,0,0-2.91.06c-.71.32-.46,1.19-.46,1.84v6A3.35,3.35,0,0,0,46.18,32.81Z"/></g><g id="Group_791" data-name="Group 791"><path id="Path_3469" data-name="Path 3469" class="cls-5" d="M48.64,32.27a3.43,3.43,0,0,1-.64,0,1.32,1.32,0,0,1-1.18-1.45l0-.18c0-.41.17-.8.24-1.2s0-.87.06-1.3c.07-.84.22-1.67.27-2.51a.68.68,0,0,1,.25-.58,2,2,0,0,1,1.06-.34c.74,0,1.22.67,1.47,1.3a3.1,3.1,0,0,1,.15,1.88,2,2,0,0,1-.42.83c-.15.18-.36.27-.52.45a1.36,1.36,0,0,0-.2,1.47c.11.25.35.43.35.73a1.29,1.29,0,0,1-.28.68A.9.9,0,0,1,48.64,32.27Z"/></g><g id="Group_792" data-name="Group 792"><path id="Path_3470" data-name="Path 3470" class="cls-5" d="M16.28,32.37a3.42,3.42,0,0,0,.64,0,1.34,1.34,0,0,0,1.18-1.45l0-.19c-.05-.4-.17-.79-.24-1.19s0-.88-.06-1.3c-.07-.84-.22-1.68-.27-2.52a.65.65,0,0,0-.25-.57,2.12,2.12,0,0,0-1.06-.35c-.74,0-1.22.68-1.47,1.3A3.11,3.11,0,0,0,14.57,28a2.08,2.08,0,0,0,.42.84c.15.17.36.26.52.45a1.33,1.33,0,0,1,.2,1.46c-.11.26-.35.43-.34.74a1.23,1.23,0,0,0,.27.68A.9.9,0,0,0,16.28,32.37Z"/></g></g><path id="Path_3471" data-name="Path 3471" class="cls-6" d="M47.75,27.08c0,7.63-3,13.18-7.42,16.82-2.27,1.87-4.92,3.5-7.75,3.5s-5.51-1.64-7.79-3.52c-4.42-3.65-7.38-9.19-7.38-16.8,0-11.52,0-20.64,15.17-20.64S47.75,15.56,47.75,27.08Z"/><g id="Group_799" data-name="Group 799"><g id="Group_794" data-name="Group 794"><path id="Path_3472" data-name="Path 3472" class="cls-7" d="M36.59,38.38h-8a.73.73,0,0,0-.64.81.77.77,0,0,0,.15.36l.41.56a4.91,4.91,0,0,0,6.82,1.35,5,5,0,0,0,1.36-1.35l.41-.56a.74.74,0,0,0-.14-1A.64.64,0,0,0,36.59,38.38Z"/><path id="Path_3473" data-name="Path 3473" class="cls-8" d="M36.35,38.38H28.56a.63.63,0,0,0-.48,1l.39.48a5.09,5.09,0,0,0,7.15.82,4.83,4.83,0,0,0,.81-.82l.4-.49a.63.63,0,0,0-.1-.89A.65.65,0,0,0,36.35,38.38Z"/><path id="Path_3474" data-name="Path 3474" class="cls-9" d="M37,39.18a.62.62,0,0,0-.6-.47H28.56a.6.6,0,0,0-.59.47.62.62,0,0,1,.42-.78.51.51,0,0,1,.17,0h7.79A.63.63,0,0,1,37,39,1,1,0,0,1,37,39.18Z"/></g><g id="Group_798" data-name="Group 798"><g id="Group_797" data-name="Group 797"><g id="Group_795" data-name="Group 795"><path id="Path_3475" data-name="Path 3475" class="cls-10" d="M32.23,35c-.15,0-.31-.16-.46-.2a1,1,0,0,0-.34,0c-.15,0-.12.23,0,.29a.19.19,0,0,0,.1,0C31.75,35.06,32,34.91,32.23,35Z"/></g><g id="Group_796" data-name="Group 796"><path id="Path_3476" data-name="Path 3476" class="cls-10" d="M32.94,35c.14,0,.29-.15.43-.19a1,1,0,0,1,.35-.06.15.15,0,0,1,0,.29.17.17,0,0,1-.1,0C33.41,35.07,33.16,34.91,32.94,35Z"/></g></g><path id="Rectangle_40" data-name="Rectangle 40" class="cls-11" d="M32.58,25.06h0a.5.5,0,0,1,.51.5v8.28a.51.51,0,0,1-.51.51h0a.51.51,0,0,1-.51-.51V25.56A.5.5,0,0,1,32.58,25.06Z"/></g></g><g id="Group_808" data-name="Group 808"><g id="Group_803" data-name="Group 803"><g id="Group_801" data-name="Group 801"><path id="Path_3477" data-name="Path 3477" class="cls-12" d="M28.26,28.16a2,2,0,1,1-2-2.41A2.24,2.24,0,0,1,28.26,28.16Z"/><g id="Group_800" data-name="Group 800"><ellipse id="Ellipse_55" data-name="Ellipse 55" class="cls-13" cx="26.09" cy="27.83" rx="1.84" ry="2.22"/><circle id="Ellipse_56" data-name="Ellipse 56" class="cls-14" cx="25.52" cy="27.06" r="0.94"/></g></g><g id="Group_802" data-name="Group 802"><path id="Path_3478" data-name="Path 3478" class="cls-10" d="M29.86,23.52c.52.16.75.53.4.94a.78.78,0,0,1-.78.24,42,42,0,0,0-5-.88,6,6,0,0,0-2.88,1.35,4.38,4.38,0,0,1,4.27-2.37A20,20,0,0,1,29.86,23.52Z"/></g></g><g id="Group_807" data-name="Group 807"><g id="Group_805" data-name="Group 805"><ellipse id="Ellipse_57" data-name="Ellipse 57" class="cls-12" cx="39.4" cy="28.16" rx="2" ry="2.4"/><g id="Group_804" data-name="Group 804"><ellipse id="Ellipse_58" data-name="Ellipse 58" class="cls-13" cx="39.23" cy="27.83" rx="1.84" ry="2.22"/><circle id="Ellipse_59" data-name="Ellipse 59" class="cls-14" cx="38.66" cy="27.06" r="0.94"/></g></g><g id="Group_806" data-name="Group 806"><path id="Path_3479" data-name="Path 3479" class="cls-10" d="M35.41,23.5c-.52.16-.76.54-.41,1a.79.79,0,0,0,.78.24,44.74,44.74,0,0,1,5-.89,6.1,6.1,0,0,1,2.88,1.36,4.39,4.39,0,0,0-4.27-2.39A19.91,19.91,0,0,0,35.41,23.5Z"/></g></g></g><path id="Path_3480" data-name="Path 3480" class="cls-15" d="M50.13,23.92c-1.31,0-2.24,4.75-2.73,7.51-.21,1.16-.41,1.92-.41,1.92V31.63c0-3.34.44-8.13-3.49-9.54a11.82,11.82,0,0,0-4.23-.31,11.05,11.05,0,0,1-5.91-1.35,3.87,3.87,0,0,0,2.11,1.4A9.92,9.92,0,0,0,38,22.1a3.73,3.73,0,0,0-.88.19c-.3.06-.61.11-.91.15a10.8,10.8,0,0,1-4.42-.28,12.17,12.17,0,0,1-3.38-1.59,4.71,4.71,0,0,0,1.05.94A11.44,11.44,0,0,0,31,22.58a9.3,9.3,0,0,1-4.89-2.93,11.48,11.48,0,0,1-2.39-5.23c-.09-.37-.17-.74-.25-1.11a12.25,12.25,0,0,1-4.29,9C17.74,23.58,18.07,33,18.07,33a17.22,17.22,0,0,1-.39-2c-.38-2.72-1.06-7.23-2.22-7.23-.37,0-.75-2.2-.83-2.51a14.58,14.58,0,0,1,.76-9.57c1-2.28,2.78-4.56,5.58-4a2.28,2.28,0,0,0-1.54-.22A4.94,4.94,0,0,0,18,8a4.08,4.08,0,0,1,3.77-1.11,4.28,4.28,0,0,1,.81-3.17,5.77,5.77,0,0,1,3.25-2.59,4.54,4.54,0,0,0-2.28,2.55c.19-.53,1.22-1.05,1.69-1.26a9.47,9.47,0,0,1,2.13-.69,23.87,23.87,0,0,1,9.78.11,22.62,22.62,0,0,1,8.82,3.73A15.14,15.14,0,0,1,51,20.82C51,21.17,50.55,23.92,50.13,23.92Z"/></g></svg>