<svg width="37" height="37" viewBox="0 0 37 37" fill="none" xmlns="http://www.w3.org/2000/svg">
<g clip-path="url(#clip0)">
<path d="M34.2529 6.14246H31.7236V3.61316C31.7236 3.31376 31.481 3.07117 31.1816 3.07117H28.6523V0.54187C28.6523 0.242474 28.4097 -0.00012207 28.1104 -0.00012207H5.63574C5.33642 -0.00012207 5.09375 0.242474 5.09375 0.54187V24.8593H2.74512C2.44579 24.8593 2.20312 25.1018 2.20312 25.4012V26.702C2.20312 28.9933 4.06714 30.8573 6.3584 30.8573H8.16504V33.3866C8.16504 33.686 8.40771 33.9286 8.70703 33.9286H11.2363V36.4579C11.2363 36.7573 11.479 36.9999 11.7783 36.9999H22.6543C22.9536 36.9999 23.1963 36.7573 23.1963 36.4579C23.1963 36.1585 22.9536 35.9159 22.6543 35.9159H12.3203V33.9286H31.1816C31.481 33.9286 31.7236 33.686 31.7236 33.3866V24.8593C31.7236 24.5599 31.481 24.3173 31.1816 24.3173C30.8823 24.3173 30.6397 24.5599 30.6397 24.8593V32.8446H9.24902V30.8573H28.1104C28.4097 30.8573 28.6523 30.6147 28.6523 30.3153V4.15515H30.6397V22.4022C30.6397 22.7016 30.8823 22.9442 31.1816 22.9442C31.481 22.9442 31.7236 22.7016 31.7236 22.4022V7.22644H33.7109V35.9159H25.1113C24.812 35.9159 24.5693 36.1585 24.5693 36.4579C24.5693 36.7573 24.812 36.9999 25.1113 36.9999H34.2529C34.5523 36.9999 34.7949 36.7573 34.7949 36.4579V6.68445C34.7949 6.38505 34.5523 6.14246 34.2529 6.14246ZM27.5684 29.7733H24.5693C22.8758 29.7733 21.498 28.3956 21.498 26.702V25.4012C21.498 25.1018 21.2554 24.8593 20.9561 24.8593H17.1982C16.8989 24.8593 16.6563 25.1018 16.6563 25.4012C16.6563 25.7006 16.8989 25.9432 17.1982 25.9432H20.4141V26.702C20.4141 27.9176 20.9388 29.0128 21.7735 29.7733H6.3584C4.66485 29.7733 3.28711 28.3956 3.28711 26.702V25.9432H14.6689C14.9683 25.9432 15.2109 25.7006 15.2109 25.4012C15.2109 25.1018 14.9683 24.8593 14.6689 24.8593H6.17773V1.08386H27.5684V29.7733Z" fill="#FFC600"/>
<path d="M8.16504 11.5624H15.1025C15.4019 11.5624 15.6445 11.3198 15.6445 11.0204V4.08289C15.6445 3.78349 15.4019 3.54089 15.1025 3.54089H8.16504C7.86571 3.54089 7.62305 3.78349 7.62305 4.08289V11.0204C7.62305 11.3198 7.86571 11.5624 8.16504 11.5624ZM8.70703 4.62488H14.5605V10.4784H8.70703V4.62488Z" fill="#FFC600"/>
<path d="M25.5811 9.53894H17.6318C17.3325 9.53894 17.0898 9.78154 17.0898 10.0809C17.0898 10.3803 17.3325 10.6229 17.6318 10.6229H25.5811C25.8804 10.6229 26.123 10.3803 26.123 10.0809C26.123 9.78154 25.8804 9.53894 25.5811 9.53894Z" fill="#FFC600"/>
<path d="M12.3203 14.995C12.3203 15.2944 12.563 15.537 12.8623 15.537H20.8838C21.1831 15.537 21.4258 15.2944 21.4258 14.995C21.4258 14.6956 21.1831 14.453 20.8838 14.453H12.8623C12.563 14.453 12.3203 14.6956 12.3203 14.995Z" fill="#FFC600"/>
<path d="M25.5811 7.00964H17.6318C17.3325 7.00964 17.0898 7.25224 17.0898 7.55164C17.0898 7.85103 17.3325 8.09363 17.6318 8.09363H25.5811C25.8804 8.09363 26.123 7.85103 26.123 7.55164C26.123 7.25224 25.8804 7.00964 25.5811 7.00964Z" fill="#FFC600"/>
<path d="M25.5811 4.48035H17.6318C17.3325 4.48035 17.0898 4.72294 17.0898 5.02234C17.0898 5.32174 17.3325 5.56433 17.6318 5.56433H25.5811C25.8804 5.56433 26.123 5.32174 26.123 5.02234C26.123 4.72294 25.8804 4.48035 25.5811 4.48035Z" fill="#FFC600"/>
<path d="M25.5811 20.8846H8.16504C7.86571 20.8846 7.62305 21.1272 7.62305 21.4266C7.62305 21.726 7.86571 21.9686 8.16504 21.9686H25.5811C25.8804 21.9686 26.123 21.726 26.123 21.4266C26.123 21.1272 25.8804 20.8846 25.5811 20.8846Z" fill="#FFC600"/>
<path d="M25.5811 17.6327H16.1143C15.8149 17.6327 15.5723 17.8753 15.5723 18.1747C15.5723 18.4741 15.8149 18.7167 16.1143 18.7167H25.5811C25.8804 18.7167 26.123 18.4741 26.123 18.1747C26.123 17.8753 25.8804 17.6327 25.5811 17.6327Z" fill="#FFC600"/>
<path d="M8.12793 18.7167H13.584C13.8833 18.7167 14.126 18.4741 14.126 18.1747C14.126 17.8753 13.8833 17.6327 13.584 17.6327H8.12793C7.82861 17.6327 7.58594 17.8753 7.58594 18.1747C7.58594 18.4741 7.82861 18.7167 8.12793 18.7167Z" fill="#FFC600"/>
</g>
<defs>
<clipPath id="clip0">
<rect width="37" height="37" fill="white" transform="translate(0 -0.00012207)"/>
</clipPath>
</defs>
</svg>
