<svg width="26" height="22" viewBox="0 0 26 22" fill="none" xmlns="http://www.w3.org/2000/svg">
<path d="M0 17.0082V4.25206C0 3.12434 0.447983 2.04281 1.2454 1.2454C2.04281 0.447983 3.12434 0 4.25206 0H21.2603C22.388 0 23.4695 0.447983 24.2669 1.2454C25.0644 2.04281 25.5123 3.12434 25.5123 4.25206V17.0082C25.5123 18.1359 25.0644 19.2175 24.2669 20.0149C23.4695 20.8123 22.388 21.2603 21.2603 21.2603H4.25206C3.12434 21.2603 2.04281 20.8123 1.2454 20.0149C0.447983 19.2175 0 18.1359 0 17.0082ZM21.2603 2.12603H4.25206C3.6882 2.12603 3.14744 2.35002 2.74873 2.74873C2.35002 3.14744 2.12603 3.6882 2.12603 4.25206V5.82532L12.7562 11.5486L23.3863 5.82532V4.25206C23.3863 3.6882 23.1623 3.14744 22.7636 2.74873C22.3649 2.35002 21.8241 2.12603 21.2603 2.12603Z" fill="#0F58B3"/>
</svg>
