<svg width="21" height="21" viewBox="0 0 21 21" fill="none" xmlns="http://www.w3.org/2000/svg">
<path fill-rule="evenodd" clip-rule="evenodd" d="M2.56905e-07 1.73562C2.56905e-07 1.2753 0.182859 0.833844 0.50835 0.508352C0.833842 0.182861 1.2753 2.31382e-06 1.73562 2.31382e-06H19.037C19.2651 -0.00037026 19.4911 0.0442548 19.7019 0.131322C19.9128 0.21839 20.1044 0.34619 20.2658 0.507407C20.4272 0.668623 20.5552 0.860089 20.6425 1.07084C20.7298 1.2816 20.7746 1.5075 20.7745 1.73562V19.037C20.7748 19.2652 20.73 19.4911 20.6428 19.702C20.5557 19.9129 20.4278 20.1045 20.2665 20.2658C20.1052 20.4272 19.9137 20.5552 19.7029 20.6425C19.4921 20.7298 19.2661 20.7746 19.038 20.7745H1.73562C1.50761 20.7745 1.28184 20.7296 1.07121 20.6423C0.86057 20.555 0.669196 20.4271 0.508016 20.2658C0.346837 20.1046 0.219012 19.9131 0.131845 19.7024C0.0446777 19.4918 -0.000123793 19.266 2.56905e-07 19.038V1.73562ZM8.22293 7.92076H11.036V9.33342C11.442 8.52133 12.4808 7.79045 14.0417 7.79045C17.0342 7.79045 17.7433 9.40802 17.7433 12.3759V17.8736H14.715V13.0521C14.715 11.3618 14.3089 10.408 13.2777 10.408C11.8471 10.408 11.2522 11.4364 11.2522 13.0521V17.8736H8.22293V7.92076ZM3.0293 17.7443H6.0586V7.79045H3.0293V17.7433V17.7443ZM6.49204 4.54395C6.49775 4.80333 6.45159 5.06123 6.35628 5.30252C6.26097 5.54382 6.11843 5.76364 5.93701 5.9491C5.75559 6.13455 5.53896 6.28191 5.29982 6.38251C5.06068 6.4831 4.80386 6.53492 4.54443 6.53492C4.28499 6.53492 4.02817 6.4831 3.78903 6.38251C3.54989 6.28191 3.33326 6.13455 3.15184 5.9491C2.97042 5.76364 2.82788 5.54382 2.73257 5.30252C2.63726 5.06123 2.5911 4.80333 2.59681 4.54395C2.60803 4.03484 2.81814 3.55036 3.18217 3.19426C3.5462 2.83816 4.03519 2.63876 4.54443 2.63876C5.05366 2.63876 5.54265 2.83816 5.90668 3.19426C6.27071 3.55036 6.48082 4.03484 6.49204 4.54395Z" fill="#0F58B3"/>
</svg>
