<svg width="32" height="32" viewBox="0 0 32 32" fill="none" xmlns="http://www.w3.org/2000/svg">
<path d="M16.0059 12.9895C16.0059 10.9029 16.0059 8.81632 16.0059 6.72974C16.0059 6.02216 16.2796 5.45403 16.8476 5.03568C17.2142 4.76711 17.6273 4.66382 18.0818 4.66382C19.8582 4.66898 21.6346 4.66382 23.411 4.66382C25.5798 4.66382 27.7487 4.66898 29.9176 4.66382C30.5682 4.66382 31.1053 4.8859 31.5287 5.37656C31.8747 5.77942 31.9987 6.26491 31.9987 6.78655C31.9987 9.43609 31.9987 12.0908 31.9987 14.7403C31.9987 16.2071 32.0038 17.674 31.9935 19.1408C31.9935 19.4145 31.9522 19.6934 31.8799 19.9516C31.7508 20.4216 31.4461 20.7728 31.033 21.0259C30.6767 21.2428 30.2894 21.3306 29.8763 21.3255C29.0965 21.3203 28.3167 21.3255 27.5422 21.3255C27.3253 21.3255 27.3253 21.3255 27.3253 21.5476C27.3253 22.1208 27.3201 22.6941 27.3253 23.2623C27.3253 23.5722 27.2065 23.7994 26.9173 23.9285C26.8967 23.9389 26.876 23.9492 26.8605 23.9543C26.6694 24.0112 26.6694 24.0112 26.6694 24.2074C26.6694 26.1029 26.6746 28.0036 26.6694 29.899C26.6694 30.6531 26.3596 31.2522 25.7244 31.6706C25.3939 31.8875 25.0221 31.9753 24.6348 31.9804C24.103 31.9856 23.5659 31.9908 23.0392 31.9443C22.4402 31.8926 21.9857 31.5621 21.6552 31.0611C21.4229 30.7099 21.3351 30.3225 21.3351 29.899C21.3402 28.0036 21.3402 26.1132 21.3402 24.2178C21.3402 24.1713 21.3506 24.1196 21.3351 24.0783C21.3196 24.037 21.2783 23.975 21.2421 23.9698C20.8858 23.9234 20.6586 23.5876 20.6638 23.2571C20.6689 22.7613 20.6638 22.2655 20.6638 21.7748C20.6638 21.6715 20.6586 21.5682 20.6638 21.4649C20.6741 21.3513 20.6224 21.3203 20.514 21.3203C19.8169 21.3255 19.1197 21.3255 18.4226 21.3203C18.1334 21.3151 17.8442 21.31 17.5654 21.2583C17.0283 21.1602 16.6204 20.8451 16.326 20.3958C16.0988 20.0446 16.0059 19.6572 16.0059 19.2337C16.0059 17.1575 16.0059 15.0761 16.0059 12.9895ZM30.6612 12.9998C30.6612 12.3697 30.6612 11.7448 30.6612 11.1147C30.6612 9.67367 30.6612 8.2327 30.6612 6.79172C30.6612 6.6626 30.656 6.51798 30.6044 6.39919C30.4804 6.09963 30.2274 5.99634 29.9072 5.99634C26.8192 6.0015 23.726 5.99634 20.6379 5.99634C19.7756 5.99634 18.908 5.99634 18.0456 5.99634C17.8855 5.99634 17.741 6.03249 17.6119 6.13062C17.395 6.29589 17.333 6.51798 17.333 6.77622C17.333 9.52906 17.333 12.2871 17.333 15.0399C17.333 16.4292 17.3278 17.8186 17.3382 19.2079C17.3382 19.3628 17.3743 19.5281 17.4414 19.6624C17.5705 19.9206 17.8184 19.9929 18.0921 19.9929C19.8685 19.9929 21.6449 19.9929 23.4213 19.9929C25.5747 19.9929 27.7332 19.9929 29.8866 19.9878C30.0312 19.9878 30.1913 19.9568 30.3204 19.8896C30.5941 19.7502 30.6612 19.4971 30.6612 19.2027C30.6612 17.142 30.6612 15.0709 30.6612 12.9998ZM22.6674 27.0739C22.6674 27.0739 22.6725 27.0739 22.6674 27.0739C22.6674 28.0397 22.6725 29.0004 22.6674 29.9662C22.6674 30.3019 22.9307 30.6583 23.3335 30.6531C23.7828 30.6479 24.2269 30.6531 24.6762 30.6479C24.7639 30.6479 24.8569 30.6324 24.9395 30.5963C25.2287 30.4672 25.332 30.2244 25.332 29.9197C25.332 28.0036 25.332 26.0926 25.332 24.1764C25.332 24.006 25.3165 23.9905 25.1461 23.9905C24.387 23.9905 23.6227 23.9905 22.8636 23.9905C22.6725 23.9905 22.6725 23.9905 22.6725 24.1868C22.6674 25.1474 22.6674 26.1132 22.6674 27.0739ZM24.0152 22.658C24.6297 22.658 25.2442 22.658 25.8587 22.658C25.962 22.658 26.0033 22.6322 26.0033 22.5185C25.9981 22.1622 25.9981 21.8058 26.0033 21.4494C26.0033 21.3616 25.9723 21.3306 25.8794 21.3306C24.6348 21.3306 23.3955 21.3306 22.151 21.3306C22.0425 21.3306 21.9961 21.3719 22.0012 21.4856C22.0064 21.8161 22.0012 22.1467 22.0012 22.4772C22.0012 22.6528 22.0064 22.658 22.182 22.658C22.7913 22.658 23.4007 22.658 24.0152 22.658Z" fill="#B8B9B9"/>
<path d="M0.00878906 8.32566C0.00878906 6.27523 0.00878906 4.21964 0.00878906 2.16922C0.00878906 1.81801 0.0397729 1.47713 0.199856 1.15175C0.416742 0.717907 0.731744 0.39769 1.16552 0.185933C1.46503 0.0413184 1.78003 0 2.10536 0C5.5962 0 9.08704 0 12.5727 0C12.9962 0 13.3938 0.077472 13.7501 0.315053C14.3646 0.723072 14.6693 1.31186 14.6796 2.0401C14.6899 2.62888 14.6848 3.21767 14.6848 3.80646C14.6848 6.30106 14.6848 8.80082 14.6848 11.2954C14.6848 11.533 14.6331 11.7448 14.4472 11.91C14.2407 12.0908 13.998 12.1166 13.7604 12.0237C13.5384 11.9359 13.3886 11.7654 13.3628 11.5123C13.3525 11.4245 13.3525 11.3419 13.3525 11.2541C13.3525 8.20687 13.3525 5.15964 13.3525 2.1124C13.3525 1.79735 13.2595 1.53395 12.9549 1.3945C12.8516 1.34801 12.7276 1.33768 12.614 1.33768C11.1888 1.33252 9.76352 1.33252 8.34343 1.33252C6.27268 1.33252 4.20193 1.33252 2.13634 1.33252C1.92978 1.33252 1.73355 1.34801 1.57347 1.50296C1.4547 1.61658 1.37724 1.75087 1.36691 1.91614C1.36175 1.98328 1.36175 2.05559 1.36175 2.12273C1.36175 6.25457 1.36175 10.3864 1.36175 14.5183C1.36175 14.761 1.38757 14.9882 1.59413 15.1587C1.74905 15.2878 1.92462 15.3136 2.11052 15.3188C2.71471 15.3188 3.31373 15.3291 3.91791 15.3136C4.25873 15.3033 4.52726 15.4169 4.78029 15.639C5.3535 16.1348 5.94219 16.6152 6.53088 17.1007C6.56186 17.1265 6.6135 17.1368 6.64965 17.1523C6.66514 17.111 6.69096 17.0697 6.69096 17.0283C6.69613 16.703 6.69096 16.3724 6.69096 16.047C6.69096 15.7733 6.77875 15.5409 7.03178 15.4169C7.14539 15.3601 7.28482 15.324 7.41392 15.324C9.15417 15.3188 10.8996 15.3188 12.6399 15.3188C13.0168 15.3188 13.275 15.5357 13.3525 15.8973C13.4093 16.1658 13.1872 16.5377 12.9187 16.61C12.7948 16.641 12.6657 16.6616 12.5366 16.6616C11.101 16.6668 9.66024 16.6616 8.22466 16.6668C8.0181 16.6668 8.0181 16.6668 8.0181 16.8786C8.0181 17.4519 8.0181 18.0252 8.0181 18.5933C8.0181 18.9135 7.88384 19.1511 7.574 19.275C7.31064 19.3783 7.08342 19.306 6.88203 19.1407C6.20039 18.5778 5.52391 18.0097 4.84226 17.4467C4.57374 17.2194 4.30005 17.0025 4.03152 16.7701C3.94373 16.6926 3.85078 16.6668 3.73717 16.6668C3.18463 16.672 2.62692 16.672 2.07438 16.6668C1.33076 16.6565 0.742072 16.3518 0.328955 15.7268C0.0810846 15.355 0.013953 14.9314 0.019117 14.4976C0.00878906 12.4368 0.00878906 10.3812 0.00878906 8.32566Z" fill="#B8B9B9"/>
<path d="M8.7557 22.627C8.81767 22.658 8.85898 22.689 8.90546 22.7045C9.20497 22.8284 9.34439 23.0608 9.34439 23.3811C9.34439 25.9996 9.34439 28.6233 9.34439 31.2419C9.34439 31.5414 9.24111 31.7894 8.96226 31.9185C8.52332 32.1199 8.07406 31.8462 8.02242 31.4278C8.00176 31.2625 8.01209 31.0921 8.01209 30.9268C8.01209 28.6956 8.01209 26.4593 8.01209 24.2281C8.01209 23.9905 8.01209 23.9905 7.77455 23.9905C7.61963 23.9905 7.46471 23.9905 7.30979 23.9853C7.03094 23.9802 6.82954 23.8356 6.73143 23.5877C6.63331 23.3501 6.6643 23.1073 6.82954 22.8956C7.39241 22.1932 7.95529 21.4908 8.51816 20.7883C8.82283 20.4113 9.12234 20.0291 9.42702 19.6521C9.66972 19.3525 9.92792 19.2699 10.2791 19.4093C10.3823 19.4507 10.4805 19.5333 10.5476 19.6159C11.1776 20.3958 11.8076 21.1809 12.4324 21.9659C12.6752 22.2706 12.9179 22.5754 13.1606 22.8801C13.4652 23.2571 13.3465 23.7581 12.9075 23.9492C12.8197 23.9853 12.7165 23.9853 12.6183 23.9905C12.4583 23.9957 12.2982 23.9957 12.1433 23.9905C12.0451 23.9905 11.9987 24.037 12.0038 24.13C12.0038 24.1713 12.0038 24.2178 12.0038 24.2591C12.0038 26.5729 12.0038 28.8919 12.0038 31.2057C12.0038 31.4227 11.978 31.6241 11.8179 31.7894C11.6114 31.9959 11.3635 32.0321 11.1053 31.9443C10.8471 31.8565 10.718 31.6447 10.6767 31.3813C10.6664 31.3297 10.6715 31.278 10.6715 31.2264C10.6715 28.6337 10.6715 26.0358 10.6715 23.443C10.6715 23.1693 10.749 22.9317 10.9865 22.7768C11.0692 22.72 11.1673 22.6838 11.2706 22.6373C10.8523 22.1157 10.4443 21.6044 10.0157 21.0724C9.58194 21.5992 9.17398 22.1054 8.7557 22.627Z" fill="#B8B9B9"/>
<path d="M3.32838 25.7468C3.15796 25.9586 2.98755 26.1703 2.81714 26.3821C2.60542 26.6455 2.3937 26.9089 2.18197 27.1775C2.09419 27.2859 2.10452 27.3376 2.22845 27.3737C2.48148 27.446 2.67772 27.7404 2.67772 28.0142C2.67255 28.572 2.67772 29.1349 2.67772 29.6927C2.67772 30.2195 2.67772 30.7515 2.67772 31.2783C2.67772 31.5624 2.56411 31.7948 2.30075 31.9188C1.88246 32.115 1.42804 31.8671 1.35574 31.4488C1.34025 31.3455 1.34025 31.2318 1.34025 31.1286C1.34025 30.3693 1.34025 29.6153 1.34025 28.856C1.34025 28.6804 1.31959 28.6598 1.13885 28.6598C0.968442 28.6598 0.792867 28.6598 0.622457 28.6546C0.35393 28.6443 0.162864 28.4997 0.0595842 28.2621C-0.0436951 28.0245 -0.0127113 27.7766 0.152536 27.57C0.617293 26.9864 1.08721 26.4079 1.55197 25.8243C1.9496 25.3233 2.35755 24.8327 2.74485 24.3213C3.05468 23.9133 3.60723 23.9288 3.91707 24.3265C4.73297 25.3646 5.56437 26.3924 6.38544 27.4254C6.48356 27.5493 6.57651 27.694 6.62815 27.8386C6.75208 28.2156 6.45774 28.6443 6.02397 28.6546C5.85872 28.6598 5.69864 28.6598 5.53339 28.6598C5.34232 28.6598 5.32683 28.6804 5.32683 28.8664C5.32683 29.6566 5.32167 30.452 5.32683 31.2422C5.32683 31.5056 5.2597 31.7277 5.03765 31.8774C4.83109 32.0169 4.60387 32.0272 4.38699 31.9291C4.14428 31.8206 4.01002 31.614 3.99969 31.3506C3.9842 31.0407 3.99453 30.7309 3.99453 30.421C3.99453 29.6359 3.99969 28.856 3.99453 28.071C3.98936 27.7508 4.18043 27.4409 4.46445 27.3686C4.54707 27.3479 4.58322 27.2911 4.52125 27.2136C4.14428 26.7436 3.76215 26.2736 3.38001 25.8036C3.38001 25.783 3.35936 25.7726 3.32838 25.7468Z" fill="#B8B9B9"/>
<path d="M16.6772 25.7259C16.5068 25.9376 16.3571 26.1236 16.2125 26.3043C15.9749 26.5987 15.7374 26.8931 15.505 27.1875C15.4327 27.2805 15.443 27.3321 15.5567 27.3631C15.8097 27.4303 16.0111 27.7298 16.0111 27.9984C16.0059 29.0985 16.0111 30.2037 16.0059 31.3038C16.0059 31.5931 15.8252 31.8513 15.5825 31.9391C15.3036 32.0372 14.9938 31.9494 14.8079 31.717C14.7046 31.5879 14.6788 31.433 14.6788 31.2677C14.6788 30.7357 14.6788 30.1986 14.6788 29.6666C14.6788 29.3929 14.6788 29.114 14.6788 28.8402C14.6788 28.6698 14.6633 28.6491 14.4825 28.6491C14.338 28.6491 14.1882 28.6491 14.0436 28.6491C13.5634 28.6543 13.2432 28.2566 13.3775 27.7918C13.4136 27.6627 13.5066 27.5439 13.5943 27.4354C14.4206 26.3921 15.2571 25.3592 16.0834 24.3159C16.3003 24.0421 16.5688 23.9285 16.8993 24.0473C17.0284 24.0938 17.1523 24.1971 17.2401 24.3055C17.7617 24.9408 18.2729 25.5864 18.7893 26.232C19.1353 26.6659 19.4813 27.0997 19.8273 27.5284C20.1216 27.8951 20.0493 28.3393 19.6414 28.5717C19.5484 28.6233 19.4193 28.6388 19.3057 28.6491C19.1559 28.6595 19.0062 28.6543 18.8564 28.6543C18.6963 28.6543 18.6654 28.6801 18.6654 28.8402C18.6654 29.6356 18.6705 30.431 18.6602 31.2264C18.6602 31.3658 18.6344 31.5156 18.5724 31.6344C18.4175 31.934 18.1438 32.0321 17.7926 31.9494C17.5603 31.8978 17.3537 31.6292 17.3331 31.3555C17.3227 31.2574 17.3279 31.1592 17.3279 31.0611C17.3279 30.0591 17.3279 29.0572 17.3279 28.0552C17.3279 27.7866 17.4208 27.5697 17.6584 27.4251C17.6997 27.3993 17.741 27.3838 17.7875 27.3683C17.9114 27.3218 17.9217 27.2856 17.8391 27.1823C17.5809 26.857 17.3176 26.5367 17.0542 26.2114C16.9613 26.0926 16.8683 25.9789 16.7753 25.8602C16.7495 25.8188 16.7185 25.7775 16.6772 25.7259Z" fill="#B8B9B9"/>
<path d="M6.69016 10.6552C7.01033 10.6552 7.32533 10.6448 7.6455 10.6552C8.02247 10.6655 8.32714 10.3349 8.32198 9.98889C8.31681 9.64285 8.02763 9.3278 7.65066 9.33296C7.43377 9.33296 7.21172 9.33296 6.99484 9.33296C6.17377 9.3278 5.46114 8.84747 5.14614 8.08308C4.73818 7.10177 5.19261 5.95002 6.14795 5.5265C6.28221 5.46969 6.4268 5.43354 6.5559 5.37672C6.59721 5.35606 6.64369 5.29409 6.64369 5.25277C6.65402 5.06167 6.64369 4.87574 6.64885 4.68464C6.65918 4.45222 6.74697 4.25596 6.94836 4.11651C7.32533 3.85311 7.87787 4.0597 7.95533 4.51937C7.99148 4.72596 7.98115 4.93772 7.98632 5.14947C7.99148 5.31475 8.00181 5.33024 8.16189 5.33024C8.41493 5.33024 8.66796 5.32508 8.921 5.33024C9.24116 5.3354 9.4787 5.46969 9.6078 5.77958C9.74207 6.09463 9.53034 6.54913 9.19469 6.62661C9.08108 6.65243 8.95714 6.66792 8.83837 6.66792C8.24452 6.67309 7.65066 6.66792 7.0568 6.66792C6.82959 6.66792 6.62303 6.71957 6.47328 6.91067C6.2977 7.13792 6.26155 7.38583 6.40098 7.64407C6.52492 7.87649 6.73147 7.99011 6.98967 8.00044C7.27885 8.01077 7.56804 7.99011 7.85205 8.01594C8.49239 8.07275 8.98296 8.39297 9.33411 8.92494C9.57166 9.29164 9.68526 9.69966 9.64395 10.1387C9.57682 10.8462 9.236 11.3886 8.61632 11.7346C8.46657 11.8224 8.29616 11.8792 8.13091 11.9309C8.01214 11.967 7.98632 12.029 7.98632 12.1426C7.98632 12.375 7.98115 12.6074 7.95017 12.8347C7.90369 13.1291 7.54738 13.3615 7.25304 13.315C6.88123 13.253 6.65918 13.0051 6.64885 12.6281C6.64369 12.4887 6.64885 12.3544 6.64885 12.2149C6.64885 11.9877 6.64885 11.9928 6.4268 11.9877C6.13245 11.9825 5.83294 11.9877 5.5386 11.967C5.26491 11.9464 5.03253 11.6933 5.00155 11.4402C4.94991 11.0528 5.17712 10.7946 5.4095 10.7171C5.51794 10.681 5.63671 10.6603 5.75032 10.6552C6.06532 10.65 6.37516 10.6552 6.69016 10.6552Z" fill="#B8B9B9"/>
<path d="M14.0178 13.4233C14.4051 13.413 14.6787 13.7539 14.6736 14.0896C14.6736 14.4408 14.3483 14.7558 13.9919 14.7403C13.646 14.7248 13.3361 14.4718 13.3464 14.0638C13.3568 13.6919 13.6356 13.4182 14.0178 13.4233Z" fill="#B8B9B9"/>
<path d="M20.0338 12.5249C20.0235 12.5869 20.0132 12.6488 20.0132 12.716C20.0132 13.9968 20.0132 15.2829 20.0132 16.5638C20.0132 16.8065 19.9512 17.0183 19.755 17.1835C19.3883 17.4831 18.8151 17.2972 18.7067 16.8375C18.686 16.7445 18.6705 16.6516 18.6705 16.5586C18.6705 14.4049 18.6705 12.2563 18.6705 10.1026C18.6705 9.87018 18.7222 9.65842 18.9029 9.49831C19.2334 9.20908 19.7188 9.31754 19.9512 9.71523C20.323 10.3453 20.7051 10.9703 21.0769 11.6004C21.4797 12.2718 21.8825 12.9432 22.2853 13.6198C22.3938 13.8006 22.5074 13.9865 22.6468 14.1673C22.652 14.1105 22.6623 14.0485 22.6623 13.9917C22.6623 12.6798 22.6623 11.368 22.6623 10.0561C22.6623 9.8082 22.7449 9.61194 22.9463 9.46732C23.1322 9.32787 23.3388 9.29172 23.5556 9.37436C23.8087 9.47249 23.9791 9.65326 23.9843 9.92699C23.9997 10.4745 23.9946 11.0219 23.9946 11.5642C23.9946 13.1963 23.9946 14.8284 23.9946 16.4553C23.9946 16.6102 23.9946 16.7703 23.9429 16.9098C23.8603 17.1474 23.6693 17.2868 23.4111 17.3126C23.1167 17.3436 22.8998 17.2197 22.7501 16.9769C22.4144 16.4243 22.0788 15.8717 21.7483 15.3139C21.3661 14.6786 20.984 14.0433 20.607 13.4081C20.4418 13.1292 20.2714 12.8503 20.1061 12.5714C20.0958 12.5559 20.0803 12.5404 20.07 12.5249C20.0596 12.5249 20.0441 12.5249 20.0338 12.5249Z" fill="#B8B9B9"/>
<path d="M27.3356 11.3369C28.4304 11.3111 29.3392 12.2511 29.3341 13.3254C29.3237 14.4358 28.4407 15.319 27.3356 15.319C26.2305 15.3242 25.3372 14.4255 25.3372 13.3254C25.3372 12.2046 26.2615 11.3163 27.3356 11.3369ZM27.3408 13.9865C27.7074 14.0072 28.0069 13.6611 28.0018 13.3254C28.0018 12.969 27.6919 12.6695 27.3304 12.6695C26.9638 12.6695 26.6746 12.9639 26.6798 13.3357C26.685 13.7128 26.9638 13.9865 27.3408 13.9865Z" fill="#B8B9B9"/>
<path d="M27.3408 17.3227C26.9071 17.3227 26.4733 17.3124 26.0395 17.3279C25.5851 17.3434 25.2494 16.9199 25.3682 16.4808C25.4353 16.2278 25.6935 16.0057 25.9724 16.0005C26.3339 15.9954 26.6953 15.9954 27.0568 15.9954C27.5835 15.9954 28.1154 15.9954 28.6422 15.9954C29.0604 16.0005 29.3496 16.3104 29.329 16.7236C29.3135 17.0232 29.045 17.3072 28.7454 17.3124C28.2755 17.3227 27.8056 17.3175 27.3408 17.3175C27.3408 17.3175 27.3408 17.3175 27.3408 17.3227Z" fill="#B8B9B9"/>
</svg>
