<svg width="27" height="22" viewBox="0 0 27 22" fill="none" xmlns="http://www.w3.org/2000/svg">
<path d="M26.1525 2.52186C25.1907 2.94802 24.1576 3.23597 23.0714 3.36612C24.1921 2.69554 25.0306 1.64013 25.4303 0.396812C24.3774 1.02222 23.225 1.46244 22.0233 1.69833C21.2152 0.835487 20.1448 0.26358 18.9784 0.071402C17.8119 -0.120776 16.6146 0.0775266 15.5724 0.635523C14.5302 1.19352 13.7014 2.07999 13.2146 3.1573C12.7279 4.23462 12.6104 5.4425 12.8804 6.59342C10.747 6.4863 8.65986 5.93178 6.75457 4.96584C4.84928 3.9999 3.16838 2.64413 1.82097 0.986527C1.36026 1.78126 1.09535 2.70269 1.09535 3.68401C1.09484 4.56743 1.31238 5.43731 1.72869 6.21648C2.145 6.99565 2.7472 7.66002 3.48185 8.15064C2.62985 8.12353 1.79664 7.89331 1.05158 7.47915V7.54826C1.0515 8.78728 1.48008 9.98818 2.26462 10.9472C3.04916 11.9062 4.14133 12.5642 5.35581 12.8096C4.56543 13.0235 3.73679 13.055 2.93245 12.9018C3.2751 13.9679 3.94256 14.9001 4.84138 15.5681C5.7402 16.236 6.82539 16.6061 7.94503 16.6266C6.04439 18.1187 3.69711 18.928 1.28079 18.9245C0.852761 18.9246 0.425097 18.8996 0 18.8496C2.4527 20.4266 5.30783 21.2635 8.22376 21.2603C18.0946 21.2603 23.4907 13.0849 23.4907 5.9945C23.4907 5.76414 23.4849 5.53148 23.4746 5.30112C24.5242 4.54206 25.4302 3.60211 26.1502 2.52531L26.1525 2.52186Z" fill="#0F58B3"/>
</svg>
