<svg width="34" height="34" viewBox="0 0 34 34" fill="none" xmlns="http://www.w3.org/2000/svg">
<g clip-path="url(#clip0)">
<path d="M26.6289 0H3.78516C2.68666 0 1.79297 0.893695 1.79297 1.99219V32.0078C1.79297 33.1063 2.68666 34 3.78516 34H18.793C19.1597 34 19.457 33.7026 19.457 33.3359C19.457 32.9692 19.1597 32.6719 18.793 32.6719H3.78516C3.41899 32.6719 3.12109 32.374 3.12109 32.0078V1.99219C3.12109 1.62602 3.41899 1.32812 3.78516 1.32812H26.6289C26.9951 1.32812 27.293 1.62602 27.293 1.99219V15.2364C27.293 15.6031 27.5903 15.9004 27.957 15.9004C28.3237 15.9004 28.6211 15.6031 28.6211 15.2364V1.99219C28.6211 0.893695 27.7274 0 26.6289 0Z" fill="white" fill-opacity="0.7"/>
<path d="M28.4265 17.0618C28.303 16.9382 28.1317 16.8672 27.957 16.8672C27.7824 16.8672 27.6111 16.9382 27.4875 17.0618C27.364 17.1853 27.293 17.3566 27.293 17.5312C27.293 17.7059 27.364 17.8772 27.4875 18.0007C27.6111 18.1242 27.7824 18.1953 27.957 18.1953C28.1317 18.1953 28.303 18.1243 28.4265 18.0007C28.55 17.8772 28.6211 17.7059 28.6211 17.5312C28.6211 17.3566 28.55 17.1853 28.4265 17.0618Z" fill="white" fill-opacity="0.7"/>
<path d="M6.37958 3.78051C6.25613 3.65693 6.0848 3.58594 5.91016 3.58594C5.73551 3.58594 5.56418 3.65693 5.44066 3.78051C5.31715 3.90409 5.24609 4.07535 5.24609 4.25C5.24609 4.42465 5.31708 4.59598 5.44066 4.71943C5.56418 4.84301 5.73551 4.91406 5.91016 4.91406C6.0848 4.91406 6.25613 4.84301 6.37958 4.71943C6.50316 4.59598 6.57422 4.42465 6.57422 4.25C6.57422 4.07535 6.50316 3.90402 6.37958 3.78051Z" fill="white" fill-opacity="0.7"/>
<path d="M24.5039 7.83601C24.1372 7.83601 23.8398 8.13337 23.8398 8.50007V16.336H21.4492V8.32967L25.0164 4.76253C25.2757 4.50321 25.2757 4.08273 25.0164 3.82334C24.757 3.56409 24.3366 3.56409 24.0772 3.82334L17.0692 10.8314L13.0134 6.7757C12.7541 6.51645 12.3337 6.51645 12.0743 6.7757L6.57422 12.2757V6.92657C6.57422 6.55988 6.27685 6.26251 5.91016 6.26251C5.54346 6.26251 5.24609 6.55988 5.24609 6.92657V17.0001C5.24609 17.3668 5.54346 17.6641 5.91016 17.6641H24.5039C24.8706 17.6641 25.168 17.3668 25.168 17.0001V8.50007C25.168 8.13337 24.8706 7.83601 24.5039 7.83601ZM8.96484 16.336H6.57422V14.1541L8.96484 11.7635V16.336ZM12.6836 16.336H10.293V10.4353L12.5439 8.18437L12.6836 8.32409V16.336ZM16.4023 16.336H14.0117V9.65228L16.4023 12.0429V16.336ZM20.1211 16.336H17.7305V12.0485L20.1211 9.65786V16.336Z" fill="white" fill-opacity="0.7"/>
<path d="M11.9531 19.5234H5.91016C5.54346 19.5234 5.24609 19.8208 5.24609 20.1875C5.24609 20.5542 5.54346 20.8516 5.91016 20.8516H11.9531C12.3198 20.8516 12.6172 20.5542 12.6172 20.1875C12.6172 19.8208 12.3198 19.5234 11.9531 19.5234Z" fill="white" fill-opacity="0.7"/>
<path d="M11.9531 22.7109H5.91016C5.54346 22.7109 5.24609 23.0083 5.24609 23.375C5.24609 23.7417 5.54346 24.0391 5.91016 24.0391H11.9531C12.3198 24.0391 12.6172 23.7417 12.6172 23.375C12.6172 23.0083 12.3198 22.7109 11.9531 22.7109Z" fill="white" fill-opacity="0.7"/>
<path d="M11.9531 25.8984H5.91016C5.54346 25.8984 5.24609 26.1958 5.24609 26.5625C5.24609 26.9292 5.54346 27.2266 5.91016 27.2266H11.9531C12.3198 27.2266 12.6172 26.9292 12.6172 26.5625C12.6172 26.1958 12.3198 25.8984 11.9531 25.8984Z" fill="white" fill-opacity="0.7"/>
<path d="M11.9531 29.0859H5.91016C5.54346 29.0859 5.24609 29.3833 5.24609 29.75C5.24609 30.1167 5.54346 30.4141 5.91016 30.4141H11.9531C12.3198 30.4141 12.6172 30.1167 12.6172 29.75C12.6172 29.3833 12.3198 29.0859 11.9531 29.0859Z" fill="white" fill-opacity="0.7"/>
<path d="M25.1678 19.9219C23.4657 19.9219 21.9029 20.5293 20.6844 21.5385L20.6743 21.5283V20.1008C20.6743 19.7341 20.3769 19.4368 20.0102 19.4368C19.6435 19.4368 19.3461 19.7341 19.3461 20.1008V20.2002L18.7772 19.6313C18.5179 19.372 18.0975 19.372 17.8381 19.6313C17.5787 19.8906 17.5787 20.3111 17.8381 20.5705L18.407 21.1394H18.3076C17.9409 21.1394 17.6436 21.4367 17.6436 21.8034C17.6436 22.1701 17.9409 22.4675 18.3076 22.4675H19.7351L19.7452 22.4776C18.7361 23.6961 18.1287 25.2589 18.1287 26.961C18.1287 30.8423 21.2865 34.0001 25.1678 34.0001C29.0491 34.0001 32.2068 30.8423 32.2068 26.961C32.2068 23.0797 29.0491 19.9219 25.1678 19.9219ZM25.1678 32.6719C22.0187 32.6719 19.4568 30.11 19.4568 26.961C19.4568 25.6253 19.919 24.3963 20.6901 23.4225L21.6365 24.3689C21.1018 25.0954 20.785 25.9917 20.785 26.961C20.785 29.3777 22.7511 31.3438 25.1678 31.3438C27.5845 31.3438 29.5506 29.3777 29.5506 26.961C29.5506 24.5443 27.5845 22.5782 25.1678 22.5782C24.1985 22.5782 23.3022 22.895 22.5757 23.4297L21.6293 22.4834C22.603 21.7122 23.8321 21.2501 25.1678 21.2501C28.3168 21.2501 30.8787 23.8119 30.8787 26.961C30.8787 30.11 28.3168 32.6719 25.1678 32.6719ZM25.1678 28.9532C26.2663 28.9532 27.16 28.0595 27.16 26.961C27.16 25.8625 26.2663 24.9688 25.1678 24.9688C24.8607 24.9688 24.5695 25.0388 24.3094 25.1635L23.5303 24.3844C24.0039 24.0822 24.5655 23.9063 25.1678 23.9063C26.8521 23.9063 28.2225 25.2767 28.2225 26.961C28.2225 28.6453 26.8521 30.0157 25.1678 30.0157C23.4835 30.0157 22.1131 28.6453 22.1131 26.961C22.1131 26.3588 22.289 25.7972 22.5911 25.3235L23.3703 26.1026C23.2456 26.3627 23.1756 26.6538 23.1756 26.961C23.1756 28.0595 24.0693 28.9532 25.1678 28.9532ZM25.2087 26.299C25.5558 26.3203 25.8318 26.6086 25.8318 26.961C25.8318 27.3272 25.5339 27.6251 25.1678 27.6251C24.8154 27.6251 24.5271 27.349 24.5058 27.0019C24.5194 27.0028 24.5329 27.0039 24.5466 27.0039C24.7166 27.0039 24.8865 26.939 25.0162 26.8094C25.1562 26.6693 25.2199 26.4823 25.2087 26.299Z" fill="white" fill-opacity="0.7"/>
</g>
<defs>
<clipPath id="clip0">
<rect width="34" height="34" fill="white"/>
</clipPath>
</defs>
</svg>
