<svg id="Layer_1" data-name="Layer 1" xmlns="http://www.w3.org/2000/svg" viewBox="0 0 162 29.34"><defs><style>.cls-1,.cls-2{isolation:isolate;}.cls-2{font-size:15px;font-family:Roboto-Regular, Roboto;}.cls-2,.cls-6{fill:#e9b25f;}.cls-3{letter-spacing:-0.01em;}.cls-4{letter-spacing:0.01em;}.cls-5{letter-spacing:-0.02em;}</style></defs><g class="cls-1"><text class="cls-2" transform="translate(37 19.06)"><tspan class="cls-3">F</tspan><tspan x="8.14" y="0">o</tspan><tspan class="cls-4" x="16.69" y="0">r</tspan><tspan x="21.89" y="0">ward </tspan><tspan class="cls-5" x="58.57" y="0">V</tspan><tspan x="67.78" y="0">aluation</tspan></text></g><path class="cls-6" d="M25.8,10c-1.27.7-2.55,1.46-3.88,2.12a1.26,1.26,0,0,0-.84,1.42c.08.94,0,1.9,0,2.85a.41.41,0,0,0,.25.42c1.41.77,2.83,1.54,4.23,2.33a.41.41,0,0,0,.48,0c.7-.44,1.43-.85,2.15-1.26a.7.7,0,0,1,.75,0c.67.4,1.35.78,2,1.17a.73.73,0,0,1,.4.7q0,1.15,0,2.31a.73.73,0,0,1-.4.7c-.68.38-1.36.77-2,1.17a.71.71,0,0,1-.8,0c-.67-.4-1.34-.79-2-1.17a.68.68,0,0,1-.39-.67c0-.41,0-.83,0-1.24a.45.45,0,0,0-.19-.33q-2.43-1.37-4.87-2.69a.48.48,0,0,0-.37,0c-.93.5-1.86,1-2.79,1.55a.5.5,0,0,0-.2.34c0,1.11,0,2.22,0,3.32a.47.47,0,0,0,.19.32c.52.32,1.05.62,1.58.92a.73.73,0,0,1,.42.72v2.31a.7.7,0,0,1-.4.7c-.68.38-1.35.77-2,1.17a.73.73,0,0,1-.8,0l-2-1.16a.69.69,0,0,1-.41-.68c0-.79,0-1.57,0-2.35a.71.71,0,0,1,.41-.69c.53-.29,1.06-.6,1.58-.92a.47.47,0,0,0,.2-.34c0-1.1,0-2.2,0-3.29a.35.35,0,0,0-.22-.37c-.92-.51-1.84-1-2.77-1.53a.44.44,0,0,0-.39,0L7.84,20.55a.36.36,0,0,0-.21.37c0,.42,0,.85,0,1.27a.65.65,0,0,1-.34.6L5.15,24a.64.64,0,0,1-.69,0L2.35,22.8A.67.67,0,0,1,2,22.17v-2.4a.69.69,0,0,1,.38-.65L4.4,18a.69.69,0,0,1,.78,0l2.24,1.31a.42.42,0,0,0,.27,0q2.2-1.2,4.4-2.43a.4.4,0,0,0,.17-.29c0-1.23,0-2.45,0-3.67a.39.39,0,0,0-.2-.31c-1.44-.81-2.9-1.6-4.34-2.41a.3.3,0,0,0-.36,0c-.74.45-1.48.89-2.25,1.3a.79.79,0,0,1-.62,0c-.74-.38-1.46-.8-2.16-1.25A.82.82,0,0,1,2,9.63C2,8.81,2,8,2,7.16a.63.63,0,0,1,.35-.59c.71-.4,1.41-.81,2.11-1.22a.67.67,0,0,1,.72,0l2.08,1.2a.69.69,0,0,1,.37.68c0,.39,0,.78,0,1.17a.38.38,0,0,0,.24.42l4.82,2.65a.53.53,0,0,0,.39,0c.93-.5,1.84-1,2.77-1.53a.36.36,0,0,0,.22-.37c0-1.1,0-2.2,0-3.29a.37.37,0,0,0-.23-.37L14.27,5a.73.73,0,0,1-.41-.69V2a.7.7,0,0,1,.38-.65l2-1.18a.68.68,0,0,1,.77,0l2.06,1.19a.68.68,0,0,1,.37.64c0,.8,0,1.6,0,2.41A.69.69,0,0,1,19.1,5c-.53.3-1.06.62-1.59.91a.35.35,0,0,0-.22.37c0,1.1,0,2.2,0,3.29a.47.47,0,0,0,.2.34c.92.53,1.85,1.05,2.79,1.55a.38.38,0,0,0,.36,0c1.63-.88,3.26-1.78,4.87-2.69a.42.42,0,0,0,.2-.33c0-.42,0-.84,0-1.27a.65.65,0,0,1,.36-.62l2.1-1.22a.67.67,0,0,1,.72,0L31,6.54a.69.69,0,0,1,.38.64V9.59a.63.63,0,0,1-.32.58c-.74.43-1.47.87-2.22,1.27a.77.77,0,0,1-.63,0C27.41,11,26.62,10.51,25.8,10ZM27,8.36c-.25.75.16,1.08.76,1.43a1.35,1.35,0,0,0,1.58,0,1.43,1.43,0,0,0,.84-1.46A1.37,1.37,0,0,0,29.41,7a1.38,1.38,0,0,0-1.69,0c-.54.34-1,.63-.72,1.36ZM30.11,21c.24-.72-.14-1.05-.73-1.41A1.62,1.62,0,0,0,26.93,21a1.39,1.39,0,0,0,.8,1.39,1.37,1.37,0,0,0,1.66,0c.55-.34,1-.64.72-1.37ZM6.43,8.5c0-1,0-1-.78-1.5A1.31,1.31,0,0,0,4,7,1.41,1.41,0,0,0,3.2,8.39,1.4,1.4,0,0,0,4,9.78a1.34,1.34,0,0,0,1.63,0c.57-.35,1-.65.79-1.28Zm0,12.5c.27-.77-.12-1.18-.79-1.43l0,0c-.5-.45-1-.32-1.51,0A1.43,1.43,0,0,0,3.2,21,1.39,1.39,0,0,0,4,22.34a1.37,1.37,0,0,0,1.71,0c.52-.35,1-.63.7-1.34ZM18.28,3.29c0-1.06,0-1-.81-1.55a1.26,1.26,0,0,0-1.56,0,1.42,1.42,0,0,0-.84,1.43,1.41,1.41,0,0,0,.81,1.39,1.37,1.37,0,0,0,1.63,0c.56-.35,1-.66.77-1.26Zm-3.13,22.9c-.28.76.18,1.06.74,1.41a1.34,1.34,0,0,0,1.6,0,1.38,1.38,0,0,0,.82-1.41,1.39,1.39,0,0,0-.81-1.41,1.32,1.32,0,0,0-1.6,0c-.56.36-1,.65-.75,1.41Zm.93-8V16A2.64,2.64,0,0,0,16,14.78c-.18-.3-.66-.43-1-.62l-1.5-.84v3.27a.27.27,0,0,0,.1.18l2.45,1.37Zm3.79-4.8-.28.14c-.68.38-1.36.77-2.05,1.13a.41.41,0,0,0-.23.43c0,.92,0,1.85,0,2.78,0,.08,0,.17,0,.3.65-.36,1.24-.74,1.88-1A1,1,0,0,0,19.89,16c-.07-.85,0-1.72,0-2.62Zm-.68-1a.54.54,0,0,1-.07-.09l-1.46-.81c-.31-.18-.63-.48-.94-.48s-.65.3-1,.47l-1.58.89c.85.47,1.64.92,2.44,1.35a.26.26,0,0,0,.23,0l2.35-1.31Z"/></svg>