<svg id="Layer_1" data-name="Layer 1" xmlns="http://www.w3.org/2000/svg" viewBox="0 0 64 64"><defs><style>.cls-1{fill:#e9b25f;}</style></defs><path class="cls-1" d="M50.4,21.83c-2.66,1.43-5.32,3.07-8,4.3A2.5,2.5,0,0,0,40.79,29a52,52,0,0,1,0,5.72c0,.41.21.81.41.81,2.86,1.64,5.72,3.07,8.58,4.7a.91.91,0,0,0,1,0c1.43-.81,2.86-1.63,4.49-2.65a1.7,1.7,0,0,1,1.43,0c1.43.82,2.66,1.63,4.09,2.45a1.37,1.37,0,0,1,.82,1.43v4.7a1.37,1.37,0,0,1-.82,1.43C59.39,48.4,58,49.22,56.73,50a1.23,1.23,0,0,1-1.63,0c-1.43-.81-2.66-1.63-4.09-2.45a1.37,1.37,0,0,1-.82-1.43V43.7c0-.21-.2-.61-.41-.61-3.27-1.84-6.53-3.68-10-5.52-.2-.21-.41-.21-.82,0-1.83,1-3.88,2-5.72,3.27-.2.2-.41.41-.41.61v6.74c0,.21.21.41.41.62,1,.61,2.05,1.22,3.27,1.84a1.35,1.35,0,0,1,.82,1.43v4.7a1.37,1.37,0,0,1-.82,1.43c-1.43.81-2.86,1.63-4.08,2.45a1.25,1.25,0,0,1-1.64,0c-1.43-.82-2.66-1.64-4.09-2.45a1.37,1.37,0,0,1-.81-1.43v-4.7a1.36,1.36,0,0,1,.81-1.43c1-.62,2.25-1.23,3.27-1.84.21-.21.41-.41.41-.62V41.45a1.06,1.06,0,0,0-.41-.82c-1.84-1-3.67-2-5.72-3.06a.61.61,0,0,0-.82,0c-3.26,1.84-6.53,3.68-10,5.52a1.05,1.05,0,0,0-.41.81v2.66a1.46,1.46,0,0,1-.61,1.23L8.3,50.44a1.7,1.7,0,0,1-1.43,0L2.58,48a1.28,1.28,0,0,1-.82-1.23v-4.9a1.14,1.14,0,0,1,.82-1.23C4,39.82,5.44,39,6.67,38.18a1.23,1.23,0,0,1,1.63,0c1.43.82,3.07,1.84,4.5,2.66h.61c3.07-1.64,5.93-3.27,9-4.91.21-.2.41-.41.41-.61V27.76c0-.2-.2-.41-.41-.61-2.86-1.64-5.92-3.27-8.78-4.91a.64.64,0,0,0-.82,0c-1.43,1-3.07,1.84-4.5,2.66a1.32,1.32,0,0,1-1.22,0c-1.43-.82-3.07-1.64-4.5-2.45A1.55,1.55,0,0,1,1.76,21V16.11a1.27,1.27,0,0,1,.82-1.22c1.23-.82,2.86-1.64,4.29-2.46a1.78,1.78,0,0,1,1.43,0l4.29,2.46a1.35,1.35,0,0,1,.82,1.43v2.45c0,.41.21.82.41.82,3.27,1.84,6.54,3.67,9.81,5.31a.64.64,0,0,0,.82,0c1.84-1,3.67-2,5.72-3.07a1.05,1.05,0,0,0,.41-.81V14.27a1.07,1.07,0,0,0-.41-.81c-1-.62-2.05-1.23-3.27-1.84a1.38,1.38,0,0,1-.82-1.43V5.28a1.12,1.12,0,0,1,.82-1.22L31.19,1.6a1.25,1.25,0,0,1,1.63,0l4.3,2.46a1.67,1.67,0,0,1,.81,1.22v4.91a1.11,1.11,0,0,1-.81,1.22c-1,.62-2.25,1.23-3.27,1.84a1.06,1.06,0,0,0-.41.82v6.74c0,.21.2.62.41.62,1.83,1,3.88,2.24,5.72,3.26.2.21.41.21.81,0,3.27-1.83,6.75-3.67,10-5.51.2-.21.41-.41.41-.62V15.91a1.13,1.13,0,0,1,.81-1.23l4.29-2.45a1.78,1.78,0,0,1,1.43,0l4.3,2.45a1.71,1.71,0,0,1,.81,1.23v4.9A1.46,1.46,0,0,1,61.84,22c-1.43.82-3.07,1.84-4.5,2.65a1.26,1.26,0,0,1-1.22,0A24.17,24.17,0,0,1,50.4,21.83Zm2.45-3.27c-.61,1.44.41,2.25,1.63,2.87a2.78,2.78,0,0,0,3.27,0,2.77,2.77,0,0,0,1.64-3.07,2.75,2.75,0,0,0-1.64-2.66,2.78,2.78,0,0,0-3.47,0c-1,.62-2,1.23-1.43,2.86Zm6.33,25.75c.41-1.43-.2-2.25-1.43-2.86a2.75,2.75,0,0,0-3.47,0,2.75,2.75,0,0,0-1.64,2.86,2.91,2.91,0,0,0,1.64,2.86,2.75,2.75,0,0,0,3.47,0c1-.82,2-1.43,1.43-2.86ZM10.76,18.77c0-2,0-2-1.64-3.07a2.5,2.5,0,0,0-3.27,0,2.73,2.73,0,0,0-1.63,2.86,3.28,3.28,0,0,0,1.63,2.87,2.5,2.5,0,0,0,3.27,0c1.23-.82,2.25-1.43,1.64-2.66Zm0,25.54c.61-1.63-.21-2.45-1.64-2.86h0c-1-1-1.84-.61-3.06,0a3.17,3.17,0,0,0-1.84,3.07,2.73,2.73,0,0,0,1.63,2.65,2.77,2.77,0,0,0,3.48,0c1-.82,1.83-1.43,1.43-2.86ZM35.07,8.14c0-2.24,0-2-1.63-3.06a2.48,2.48,0,0,0-3.27,0,2.51,2.51,0,0,0-1.64,2.86,3.26,3.26,0,0,0,1.64,2.86,2.48,2.48,0,0,0,3.27,0c1.22-.82,2-1.43,1.63-2.66Zm-6.33,46.8c-.62,1.63.41,2.24,1.43,2.86a2.5,2.5,0,0,0,3.27,0,2.73,2.73,0,0,0,1.63-2.86,2.72,2.72,0,0,0-1.63-2.86,2.48,2.48,0,0,0-3.27,0c-1.23.61-2.05,1.22-1.43,2.86Zm1.84-16.55v-4.5c0-.82.2-1.84-.21-2.45s-1.43-.82-2-1.23c-1-.61-2-1-3.07-1.63v6.74c0,.2,0,.2.21.41,1.63.82,3.27,1.84,5.11,2.66Zm7.76-9.81a.75.75,0,0,1-.61.2c-1.43.82-2.86,1.64-4.09,2.25-.41.2-.61.41-.41.82v6.33a33.77,33.77,0,0,1,3.89-2,2,2,0,0,0,1.43-2.25,22.58,22.58,0,0,1-.21-5.31Zm-1.43-2h0c-1.23-.81-2-1.22-3.06-1.84-.62-.4-1.23-1-1.84-1a4.93,4.93,0,0,0-2,1c-1,.62-2,1.23-3.27,1.84,1.64,1,3.27,1.84,4.91,2.86H32c1.63-1,3.27-2,4.9-2.86Z"/></svg>