<svg id="Layer_1" data-name="Layer 1" xmlns="http://www.w3.org/2000/svg" viewBox="0 0 162 29.34"><defs><style>.cls-1{opacity:0;}.cls-2,.cls-3,.cls-5{isolation:isolate;}.cls-3,.cls-5{font-size:14.73px;}.cls-3,.cls-4,.cls-5{fill:#e9b25f;}.cls-3{font-family:Roboto-Bold, Roboto;font-weight:700;}.cls-5{font-family:Roboto-Regular, Roboto;}</style></defs><g class="cls-1"><g class="cls-2"><text class="cls-3" transform="translate(44.38 21.36)">BackTest</text></g><path class="cls-4" d="M5.09,19.77V13a1.87,1.87,0,0,1,1.69-2h7a.85.85,0,0,1,.65.26l2.54,2.55a.77.77,0,0,1,.25.61V26.65a1.85,1.85,0,0,1-1.75,2H7A1.85,1.85,0,0,1,5.1,26.84a.6.6,0,0,1,0-.19Q5.09,23.2,5.09,19.77Zm8.37-7.89H7.12a1,1,0,0,0-1.09.8A.89.89,0,0,0,6,13V26.58a1,1,0,0,0,.8,1.1,1.06,1.06,0,0,0,.31,0h8a1,1,0,0,0,1.1-.79,1,1,0,0,0,0-.3V14.67H14.09c-.49,0-.64-.15-.64-.65,0-.7,0-1.4,0-2.14Zm.94,1.84h1.07L14.4,12.64Z"/><path class="cls-4" d="M12.57,2.9A7.56,7.56,0,0,0,9.31,10l-.9.12c0-.18,0-.35-.05-.51A8.36,8.36,0,0,1,25,8.27h0c0,.23,0,.47,0,.7,0,.41-.16.58-.58.58H17.2a.33.33,0,0,0-.34.19c-.26.48-.54.94-.82,1.44l-.8-.47c.28-.49.56-1,.82-1.44a.4.4,0,0,0,0-.34C14.94,7,13.79,5,12.64,3Zm.83-.48.13.25,3.3,5.72a.42.42,0,0,0,.43.24h6.88a7.33,7.33,0,0,0-3.66-5.92,7.31,7.31,0,0,0-7.08-.29Z"/><path class="cls-4" d="M25.55,23h2.24a1.86,1.86,0,0,1,1.93,1.78v1.9a1.85,1.85,0,0,1-1.81,1.89H23.24a1.85,1.85,0,0,1-1.89-1.81V24.91A1.87,1.87,0,0,1,23.18,23h.05C24,23,24.78,23,25.55,23Zm0,4.65h2.24a1,1,0,0,0,1-.86V25a.93.93,0,0,0-.88-1H23.28a1,1,0,0,0-1,.87v1.82a.94.94,0,0,0,.84,1h2.42Z"/><path class="cls-4" d="M29.24,9.09h-1.8a1.85,1.85,0,0,1-1.9-1.81v-.1c0-.6,0-1.2,0-1.8a1.84,1.84,0,0,1,1.83-1.86h0c1.23,0,2.47,0,3.71,0A1.85,1.85,0,0,1,33,5.36V7.24a1.85,1.85,0,0,1-1.85,1.85Zm0-.93h1.8a.93.93,0,0,0,1-.87V5.44a.94.94,0,0,0-.87-1H27.46a.94.94,0,0,0-1,.87V7.16a.94.94,0,0,0,.86,1h1.94Z"/><path class="cls-4" d="M24.66,16.26a7.37,7.37,0,0,0,1.79-4.37l-.44,0V11a8.51,8.51,0,0,1,1,0c.28,0,.38.26.37.53a8,8,0,0,1-1.24,4.29A15.44,15.44,0,0,1,25,17.22c-.28.32-.52.31-.82,0L18.77,11.8a.49.49,0,0,1-.17-.56.48.48,0,0,1,.51-.3h3.15v.93h-2Z"/><path class="cls-4" d="M29.7,21.63v.93H21.56a.8.8,0,0,1-.67-.27l-2.44-2.44-.2-.22.66-.63.22.21,2.23,2.24a.59.59,0,0,0,.45.18H29.7Z"/><path class="cls-4" d="M23.56,12.66,22.89,12,24,10.9c.38-.38.75-.76,1.14-1.13a.74.74,0,0,1,.45-.2c2.42,0,4.84,0,7.26,0l.09,0v.91H26a.62.62,0,0,0-.53.21C24.87,11.36,24.22,12,23.56,12.66Z"/><path class="cls-4" d="M18.46,13.68l.19.18,4.52,4.52c.39.39.39.58,0,1a8.13,8.13,0,0,1-2.06,1.44L20.69,20c.3-.18.59-.34.86-.52s.5-.38.78-.59l-4.55-4.54Z"/><path class="cls-4" d="M18.5,20.63l.13.92-1,.09v-.93Z"/><path class="cls-4" d="M12.51,19.33v.9H7v-.9Z"/><path class="cls-4" d="M11.59,23.05v.89H7v-.89Z"/><path class="cls-4" d="M15.29,22.09h-4.6v-.9h4.6Z"/><path class="cls-4" d="M13.44,15.61v.9H8.83v-.9Z"/><path class="cls-4" d="M15.3,17.47v.89H11.62v-.89Z"/><path class="cls-4" d="M10.66,17.48v.89H7v-.89Z"/><path class="cls-4" d="M7,22.08v-.89H9.73v.89Z"/><path class="cls-4" d="M13.47,20.22v-.89h1.82v.89Z"/><path class="cls-4" d="M8.79,13.72H7v-.89H8.79Z"/><path class="cls-4" d="M14.36,24H12.59v-.9h1.77Z"/><path class="cls-4" d="M14.83,25.8H13.06v-.89h1.77Z"/><path class="cls-4" d="M15.3,15.61v.9h-.89v-.9Z"/><path class="cls-4" d="M24.62,27.19V26.3h2.75v.89Z"/><path class="cls-4" d="M26.45,24.44v.9H23.7v-.9Z"/><path class="cls-4" d="M27.41,25.33v-.89h.89v.89Z"/><path class="cls-4" d="M23.67,26.3v.89h-.91V26.3Z"/><path class="cls-4" d="M29.7,5.83H27.87v-.9H29.7Z"/><path class="cls-4" d="M30.63,7.69H28.81v-.9h1.82Z"/><path class="cls-4" d="M30.67,4.92h.88v.91h-.88Z"/><path class="cls-4" d="M27,6.78h.89v.9H27Z"/></g><g class="cls-2"><text class="cls-5" transform="translate(41.14 21.36)">BackTest</text></g><path class="cls-4" d="M5.65,19.77V13a1.86,1.86,0,0,1,1.69-2h7a.81.81,0,0,1,.64.26l2.55,2.55a.77.77,0,0,1,.25.61V26.65a1.85,1.85,0,0,1-1.75,2H7.6a1.86,1.86,0,0,1-1.95-1.76V19.77ZM14,11.88H7.67a1,1,0,0,0-1.09.8,1.31,1.31,0,0,0,0,.28V26.58a1,1,0,0,0,.8,1.1,1.08,1.08,0,0,0,.31,0h8a1,1,0,0,0,1.1-.79.76.76,0,0,0,0-.3V14.67H14.65c-.5,0-.64-.15-.64-.65V11.88Zm1,1.84H16L15,12.64Z"/><path class="cls-4" d="M13.13,2.9A7.58,7.58,0,0,0,9.86,10L9,10.08a4.87,4.87,0,0,1-.05-.51,8.36,8.36,0,0,1,16.66-1.3h0c0,.23,0,.47.05.7,0,.41-.17.58-.58.58H17.76a.33.33,0,0,0-.34.19c-.26.48-.54.94-.82,1.44l-.81-.47c.29-.49.57-1,.83-1.44a.4.4,0,0,0,0-.34Q14.92,6,13.2,3ZM14,2.42l.13.25,3.3,5.72a.42.42,0,0,0,.43.24h6.87A7.48,7.48,0,0,0,14,2.42Z"/><path class="cls-4" d="M26.11,23h2.23a1.85,1.85,0,0,1,1.93,1.78v.13q0,.89,0,1.77a1.84,1.84,0,0,1-1.81,1.89H23.8a1.85,1.85,0,0,1-1.89-1.81V24.91A1.86,1.86,0,0,1,23.74,23h.05C24.56,23,25.34,23,26.11,23Zm0,4.65h2.24a1,1,0,0,0,1-.86.86.86,0,0,0,0-.16V25a.93.93,0,0,0-.87-1H23.83a.94.94,0,0,0-1,.87v1.82a.94.94,0,0,0,.84,1H26.1Z"/><path class="cls-4" d="M29.79,9.09H28a1.86,1.86,0,0,1-1.91-1.81V5.38a1.86,1.86,0,0,1,1.84-1.86h0c1.24,0,2.48,0,3.71,0a1.84,1.84,0,0,1,1.86,1.84v0q0,.93,0,1.86a1.84,1.84,0,0,1-1.84,1.85Zm0-.93h1.8a.93.93,0,0,0,1-.87V5.44a.94.94,0,0,0-.87-1H28a.94.94,0,0,0-1,.87V7.16a.94.94,0,0,0,.86,1h1.93Z"/><path class="cls-4" d="M25.22,16.26A7.36,7.36,0,0,0,27,11.89l-.43,0V11a8.51,8.51,0,0,1,1,0c.28,0,.37.26.37.53a8,8,0,0,1-1.25,4.29,13.91,13.91,0,0,1-1.12,1.44c-.27.32-.51.31-.81,0L19.33,11.8a.48.48,0,0,1,.34-.86h3.15v.93h-2Z"/><path class="cls-4" d="M30.26,21.63v.93H22.11a.8.8,0,0,1-.66-.27c-.81-.82-1.63-1.63-2.44-2.44l-.2-.22.66-.63a2.23,2.23,0,0,0,.22.21l2.23,2.24a.57.57,0,0,0,.45.18h7.89Z"/><path class="cls-4" d="M24.12,12.66,23.45,12l1.11-1.11c.38-.38.74-.76,1.13-1.13a.8.8,0,0,1,.46-.2c2.42,0,4.83,0,7.25,0l.1,0v.91H26.6a.62.62,0,0,0-.53.21C25.43,11.36,24.78,12,24.12,12.66Z"/><path class="cls-4" d="M19,13.68l.2.18,4.52,4.52c.39.39.39.58,0,1a8,8,0,0,1-2.07,1.44l-.4-.81c.29-.18.58-.34.85-.52s.51-.38.78-.59l-4.55-4.54Z"/><path class="cls-4" d="M19.05,20.63l.14.92-1,.09v-.93Z"/><path class="cls-4" d="M13.07,19.33v.9H7.52v-.9Z"/><path class="cls-4" d="M12.14,23.05v.89H7.53v-.89Z"/><path class="cls-4" d="M15.85,22.09H11.24v-.9h4.61Z"/><path class="cls-4" d="M14,15.61v.9H9.39v-.9Z"/><path class="cls-4" d="M15.86,17.47v.89H12.17v-.89Z"/><path class="cls-4" d="M11.21,17.48v.89H7.53v-.89Z"/><path class="cls-4" d="M7.52,22.08v-.89h2.76v.89Z"/><path class="cls-4" d="M14,20.22v-.89h1.82v.89Z"/><path class="cls-4" d="M9.35,13.72H7.53v-.89H9.35Z"/><path class="cls-4" d="M14.92,24H13.15v-.9h1.77Z"/><path class="cls-4" d="M15.39,25.8H13.62v-.89h1.77Z"/><path class="cls-4" d="M15.86,15.61v.9H15v-.9Z"/><path class="cls-4" d="M25.18,27.19V26.3h2.75v.89Z"/><path class="cls-4" d="M27,24.44v.9H24.26v-.9Z"/><path class="cls-4" d="M28,25.33v-.89h.9v.89Z"/><path class="cls-4" d="M24.22,26.3v.89h-.9V26.3Z"/><path class="cls-4" d="M30.25,5.83H28.43v-.9h1.82Z"/><path class="cls-4" d="M31.19,7.69H29.37v-.9h1.82Z"/><path class="cls-4" d="M31.23,4.92h.88v.91h-.88Z"/><path class="cls-4" d="M27.51,6.78h.89v.9h-.89Z"/></svg>