<svg id="Layer_1" data-name="Layer 1" xmlns="http://www.w3.org/2000/svg" viewBox="0 0 64 64"><defs><style>.cls-1{fill:#fff;}</style></defs><path class="cls-1" d="M21.73,24.28a2.33,2.33,0,0,0-1.53-.66H4.85a4.34,4.34,0,0,0-3.73,4.61V59.14a4.31,4.31,0,0,0,4.39,4H24.15a4.15,4.15,0,0,0,3.94-4.38V31.3A1.93,1.93,0,0,0,27.44,30ZM22,27.35l2.42,2.41H22Zm4.17,5.26V59.14a2.18,2.18,0,0,1-2.41,1.76H5.07a2.17,2.17,0,0,1-1.75-2.41V27.35a2.16,2.16,0,0,1,2.41-1.76h14A33.92,33.92,0,0,0,20,30.42C20,31.73,20.2,32,21.3,32h4.82Z"/><path class="cls-1" d="M44.32,20.33A1.16,1.16,0,0,0,45.64,19V17.48A18.67,18.67,0,0,0,25.24.82,19,19,0,0,0,8.36,20.55a1.65,1.65,0,0,1,.22,1.1l2-.22A17.18,17.18,0,0,1,17.79,5.64c2.85,4.6,5.26,9,7.89,13.6a.4.4,0,0,1,0,.65,23.3,23.3,0,0,1-1.75,3.29l1.75,1.1c.66-1.1,1.1-2.19,1.76-3.29,0-.44.43-.44.65-.66H44.32ZM27.44,17.92C24.8,13.75,22.39,9.37,20,5.2c0-.22-.22-.44-.22-.66a16.8,16.8,0,0,1,15.79.66,15.73,15.73,0,0,1,8.11,13.16H28.31C27.87,18.58,27.44,18.36,27.44,17.92Z"/><path class="cls-1" d="M51.78,50.59H41.69a4.17,4.17,0,0,0-4.17,4.17v4.16a4.13,4.13,0,0,0,4.17,3.95H52.21a4.12,4.12,0,0,0,3.95-4.16V54.54A4.49,4.49,0,0,0,51.78,50.59ZM54,58.49v.43a2,2,0,0,1-2.19,2H46.73a35.35,35.35,0,0,1-4.82-.22h-.44a1.89,1.89,0,0,1-2-2.19v-4a2.15,2.15,0,0,1,2.19-2H52a2.16,2.16,0,0,1,2,2.19Z"/><path class="cls-1" d="M59.45,7.17H51.12A4.17,4.17,0,0,0,47,11.34v4.17a4.12,4.12,0,0,0,4.17,3.94h3.94a30.78,30.78,0,0,1,4.39.22,4.16,4.16,0,0,0,4.17-4.16V11.34A4.17,4.17,0,0,0,59.45,7.17Zm1.75,8.12v.22a2.16,2.16,0,0,1-2.19,2H55.06a27.79,27.79,0,0,1-4.16-.22h-.22a2.15,2.15,0,0,1-2-2.19v-4a2.16,2.16,0,0,1,2.19-2h8.33a2.15,2.15,0,0,1,2,2.19Z"/><path class="cls-1" d="M39.5,23.62h-7a1.21,1.21,0,0,0-1.1.66,1,1,0,0,0,.44,1.31L43.88,37.65c.66.66,1.1.66,1.76,0a32.65,32.65,0,0,0,2.41-3.28,17.16,17.16,0,0,0,2.85-9.65c0-.44-.22-1.1-.88-1.1H47.83v2h.88a15.88,15.88,0,0,1-4,9.87l-9.65-9.87H39.5Z"/><path class="cls-1" d="M38.62,47.52a1.68,1.68,0,0,1-1.1-.44l-5-5L32,41.6l-1.53,1.32.43.44,5.49,5.48A2,2,0,0,0,38,49.5h18.2v-2H38.62Z"/><path class="cls-1" d="M47,20.55a1.63,1.63,0,0,0-1.09.44,26.22,26.22,0,0,0-2.64,2.41l-2.41,2.41,1.54,1.54C43.88,26,45.2,24.5,46.73,23a1.68,1.68,0,0,1,1.1-.44H63.4v-2H47Z"/><path class="cls-1" d="M36,44l.87,1.76a17.77,17.77,0,0,0,4.61-3.29c.88-.88.88-1.32,0-2.19L31.38,30.2l-.44-.44-1.31,1.75L39.72,41.6c-.66.44-1.1.88-1.76,1.32S36.65,43.58,36,44Z"/><polygon class="cls-1" points="28.97 45.55 28.97 47.52 31.16 47.3 30.94 45.33 28.97 45.55"/><rect class="cls-1" x="5.29" y="42.26" width="12.5" height="1.97"/><rect class="cls-1" x="5.29" y="50.59" width="10.31" height="1.97"/><rect class="cls-1" x="13.62" y="46.43" width="10.31" height="1.97"/><rect class="cls-1" x="9.45" y="33.93" width="10.31" height="1.97"/><rect class="cls-1" x="15.59" y="38.09" width="8.33" height="1.97"/><rect class="cls-1" x="5.29" y="38.09" width="8.33" height="2.19"/><rect class="cls-1" x="5.29" y="46.43" width="6.14" height="1.97"/><rect class="cls-1" x="19.76" y="42.26" width="4.17" height="1.97"/><rect class="cls-1" x="5.29" y="27.79" width="4.17" height="1.97"/><rect class="cls-1" x="17.79" y="50.59" width="3.95" height="1.97"/><rect class="cls-1" x="18.88" y="54.76" width="3.95" height="1.97"/><rect class="cls-1" x="21.95" y="33.93" width="1.97" height="1.97"/><rect class="cls-1" x="44.76" y="57.83" width="6.14" height="1.97"/><rect class="cls-1" x="42.57" y="53.66" width="6.14" height="1.97"/><rect class="cls-1" x="50.9" y="53.66" width="1.97" height="1.97"/><rect class="cls-1" x="40.59" y="57.83" width="1.97" height="1.97"/><rect class="cls-1" x="51.78" y="10.24" width="4.17" height="1.97"/><rect class="cls-1" x="53.97" y="14.41" width="4.17" height="1.97"/><rect class="cls-1" x="58.13" y="10.24" width="1.97" height="1.97"/><rect class="cls-1" x="50.02" y="14.41" width="1.97" height="1.97"/></svg>