<svg id="Layer_1" data-name="Layer 1" xmlns="http://www.w3.org/2000/svg" viewBox="0 0 64 64"><defs><style>.cls-1{fill:#e9b25f;}</style></defs><path class="cls-1" d="M21.37,24.28a2.33,2.33,0,0,0-1.53-.66H4.49A4.34,4.34,0,0,0,.76,28.23V59.14a4.31,4.31,0,0,0,4.39,4H23.79a4.15,4.15,0,0,0,3.94-4.38V31.3A1.93,1.93,0,0,0,27.08,30Zm.22,3.07L24,29.76H21.59Zm4.17,5.26V59.14a2.18,2.18,0,0,1-2.41,1.76H4.71A2.18,2.18,0,0,1,3,58.49V27.35a2.18,2.18,0,0,1,2.42-1.76h14a33.92,33.92,0,0,0,.22,4.83c0,1.31.22,1.53,1.32,1.53h4.82Z"/><path class="cls-1" d="M44,20.33A1.16,1.16,0,0,0,45.28,19V17.48A18.67,18.67,0,0,0,24.88.82,19,19,0,0,0,8,20.55a1.65,1.65,0,0,1,.22,1.1l2-.22A17.18,17.18,0,0,1,17.43,5.64c2.85,4.6,5.26,9,7.89,13.6a.4.4,0,0,1,0,.65,24.38,24.38,0,0,1-1.75,3.29l1.75,1.1c.66-1.1,1.1-2.19,1.76-3.29,0-.44.43-.44.65-.66H44ZM27.08,17.92c-2.64-4.17-5-8.55-7.46-12.72,0-.22-.22-.44-.22-.66a16.8,16.8,0,0,1,15.79.66A15.73,15.73,0,0,1,43.3,18.36H28C27.51,18.58,27.08,18.36,27.08,17.92Z"/><path class="cls-1" d="M51.42,50.59H41.33a4.17,4.17,0,0,0-4.17,4.17v4.16a4.13,4.13,0,0,0,4.17,3.95H51.85a4.12,4.12,0,0,0,3.95-4.16V54.54A4.49,4.49,0,0,0,51.42,50.59Zm2.19,7.9v.43a2,2,0,0,1-2.19,2H46.37a35.35,35.35,0,0,1-4.82-.22h-.44a1.89,1.89,0,0,1-2-2.19v-4a2.15,2.15,0,0,1,2.19-2h10.3a2.16,2.16,0,0,1,2,2.19Z"/><path class="cls-1" d="M59.09,7.17H50.76a4.17,4.17,0,0,0-4.17,4.17v4.17a4.12,4.12,0,0,0,4.17,3.94H54.7a30.78,30.78,0,0,1,4.39.22,4.16,4.16,0,0,0,4.17-4.16V11.34A4.17,4.17,0,0,0,59.09,7.17Zm1.75,8.12v.22a2.16,2.16,0,0,1-2.19,2H54.7a27.79,27.79,0,0,1-4.16-.22h-.22a2.15,2.15,0,0,1-2-2.19v-4a2.16,2.16,0,0,1,2.19-2h8.33a2.15,2.15,0,0,1,2,2.19Z"/><path class="cls-1" d="M39.14,23.62h-7a1.21,1.21,0,0,0-1.1.66,1,1,0,0,0,.44,1.31L43.52,37.65c.66.66,1.1.66,1.76,0a32.65,32.65,0,0,0,2.41-3.28,17.16,17.16,0,0,0,2.85-9.65c0-.44-.22-1.1-.88-1.1H47.47v2h.88a15.88,15.88,0,0,1-4,9.87l-9.65-9.87h4.39Z"/><path class="cls-1" d="M38.26,47.52a1.68,1.68,0,0,1-1.1-.44l-5-5-.44-.44-1.53,1.32.43.44,5.49,5.48a2,2,0,0,0,1.53.66H55.8v-2H38.26Z"/><path class="cls-1" d="M46.59,20.55a1.68,1.68,0,0,0-1.1.44,27.29,27.29,0,0,0-2.63,2.41l-2.41,2.41L42,27.35C43.52,26,44.84,24.5,46.37,23a1.68,1.68,0,0,1,1.1-.44H63v-2H46.59Z"/><path class="cls-1" d="M35.63,44l.87,1.76a17.77,17.77,0,0,0,4.61-3.29c.88-.88.88-1.32,0-2.19L31,30.2l-.44-.44-1.31,1.75L39.36,41.6c-.66.44-1.1.88-1.76,1.32S36.29,43.58,35.63,44Z"/><polygon class="cls-1" points="28.61 45.55 28.61 47.52 30.8 47.3 30.58 45.33 28.61 45.55"/><rect class="cls-1" x="4.93" y="42.26" width="12.5" height="1.97"/><rect class="cls-1" x="4.93" y="50.59" width="10.31" height="1.97"/><rect class="cls-1" x="13.26" y="46.43" width="10.31" height="1.97"/><rect class="cls-1" x="9.09" y="33.93" width="10.31" height="1.97"/><rect class="cls-1" x="15.23" y="38.09" width="8.33" height="1.97"/><rect class="cls-1" x="4.93" y="38.09" width="8.33" height="2.19"/><rect class="cls-1" x="4.93" y="46.43" width="6.14" height="1.97"/><rect class="cls-1" x="19.4" y="42.26" width="4.17" height="1.97"/><rect class="cls-1" x="4.93" y="27.79" width="4.17" height="1.97"/><rect class="cls-1" x="17.43" y="50.59" width="3.95" height="1.97"/><rect class="cls-1" x="18.52" y="54.76" width="3.95" height="1.97"/><rect class="cls-1" x="21.59" y="33.93" width="1.97" height="1.97"/><rect class="cls-1" x="44.4" y="57.83" width="6.14" height="1.97"/><rect class="cls-1" x="42.21" y="53.66" width="6.14" height="1.97"/><rect class="cls-1" x="50.54" y="53.66" width="1.97" height="1.97"/><rect class="cls-1" x="40.23" y="57.83" width="1.97" height="1.97"/><rect class="cls-1" x="51.42" y="10.24" width="4.17" height="1.97"/><rect class="cls-1" x="53.61" y="14.41" width="4.17" height="1.97"/><rect class="cls-1" x="57.77" y="10.24" width="1.97" height="1.97"/><rect class="cls-1" x="49.66" y="14.41" width="1.97" height="1.97"/></svg>