<svg id="Layer_1" data-name="Layer 1" xmlns="http://www.w3.org/2000/svg" viewBox="0 0 162 29.34"><defs><style>.cls-1{isolation:isolate;font-size:14.56px;font-family:Roboto-Regular, Roboto;}.cls-1,.cls-2{fill:#fff;}</style></defs><text class="cls-1" transform="translate(41.14 22.53)">BackTest</text><path class="cls-2" d="M4.93,19.76V13.05a1.84,1.84,0,0,1,1.67-2,1.82,1.82,0,0,1,.33,0h6.53a.81.81,0,0,1,.64.26l2.51,2.51a.79.79,0,0,1,.25.61V26.56a1.84,1.84,0,0,1-1.73,1.94H6.85a1.85,1.85,0,0,1-1.92-1.75v-7ZM13.19,12H6.93a1,1,0,0,0-1.08.8,1.22,1.22,0,0,0,0,.27V26.49a1,1,0,0,0,.79,1.09,1.5,1.5,0,0,0,.3,0h7.92A1,1,0,0,0,16,26.8a1.6,1.6,0,0,0,0-.31V14.72H13.82c-.49,0-.63-.14-.63-.63V12Zm.93,1.81h1.06l-1.06-1.06Z"/><path class="cls-2" d="M12.32,3.1a7.46,7.46,0,0,0-3.23,7l-.88.11c0-.17-.05-.34-.06-.51A8.26,8.26,0,0,1,24.62,8.4v0c0,.22,0,.45,0,.68,0,.41-.16.57-.57.58h-7.2a.31.31,0,0,0-.33.19c-.26.47-.54.93-.82,1.41L15,10.83c.28-.49.56-1,.82-1.43a.42.42,0,0,0,0-.33L12.39,3.18Zm.82-.48a2.73,2.73,0,0,0,.13.25l3.26,5.65a.4.4,0,0,0,.42.24h6.79a7.19,7.19,0,0,0-3.61-5.85,7.22,7.22,0,0,0-7-.29Z"/><path class="cls-2" d="M25.14,23h2.21a1.83,1.83,0,0,1,1.91,1.76v1.87a1.83,1.83,0,0,1-1.79,1.87h-.08q-2.27,0-4.53,0A1.83,1.83,0,0,1,21,26.7V24.84A1.83,1.83,0,0,1,22.8,23h2.34Zm0,4.59h2.21a.93.93,0,0,0,1-.85V24.88a.92.92,0,0,0-.86-1H22.89a.93.93,0,0,0-1,.86v1.79a.93.93,0,0,0,.83,1,.61.61,0,0,0,.19,0Z"/><path class="cls-2" d="M28.78,9.22H27a1.84,1.84,0,0,1-1.88-1.8V7.33c0-.59,0-1.19,0-1.78a1.82,1.82,0,0,1,1.81-1.84h3.69a1.83,1.83,0,0,1,1.84,1.81v0c0,.61,0,1.22,0,1.84a1.83,1.83,0,0,1-1.82,1.82Zm0-.92h1.78a.92.92,0,0,0,1-.86V7.33c0-.58,0-1.15,0-1.72a.92.92,0,0,0-.86-1H27a.93.93,0,0,0-1,.86V7.31a.93.93,0,0,0,.85,1H28.8Z"/><path class="cls-2" d="M24.26,16.3A7.29,7.29,0,0,0,26,12l-.43,0v-.89a8.17,8.17,0,0,1,1,0c.28,0,.38.26.37.53a7.9,7.9,0,0,1-1.23,4.23,14,14,0,0,1-1.11,1.43c-.27.32-.51.31-.8,0L18.45,11.9a.5.5,0,0,1-.18-.57.49.49,0,0,1,.51-.29h3.11V12h-2Z"/><path class="cls-2" d="M29.25,21.61v.92H21.19a.88.88,0,0,1-.66-.27c-.79-.81-1.6-1.61-2.4-2.42a2,2,0,0,1-.2-.21l.65-.62.21.2c.74.74,1.48,1.47,2.21,2.21a.56.56,0,0,0,.45.19h7.8Z"/><path class="cls-2" d="M23.17,12.74l-.66-.64,1.1-1.1c.37-.37.74-.75,1.12-1.11a.69.69,0,0,1,.45-.2c2.39,0,4.78,0,7.17,0h.1v.9H25.62a.65.65,0,0,0-.52.22Z"/><path class="cls-2" d="M18.13,13.75l.2.18,4.46,4.46c.39.39.39.58,0,1a8,8,0,0,1-2,1.41l-.4-.8c.29-.18.58-.33.84-.51s.5-.38.78-.58l-4.5-4.49Z"/><path class="cls-2" d="M18.17,20.62l.13.91-.95.09V20.7Z"/><path class="cls-2" d="M12.26,19.34v.88H6.78v-.88Z"/><path class="cls-2" d="M11.34,23v.88H6.79V23Z"/><path class="cls-2" d="M15,22.06H10.45v-.89H15Z"/><path class="cls-2" d="M13.18,15.66v.88H8.62v-.88Z"/><path class="cls-2" d="M15,17.49v.89H11.37v-.89Z"/><path class="cls-2" d="M10.42,17.5v.88H6.79V17.5Z"/><path class="cls-2" d="M6.78,22.05v-.88H9.5v.88Z"/><path class="cls-2" d="M13.2,20.21v-.88H15v.88Z"/><path class="cls-2" d="M8.58,13.79H6.79v-.88H8.58Z"/><path class="cls-2" d="M14.09,23.9H12.34V23h1.75Z"/><path class="cls-2" d="M14.55,25.73H12.8v-.89h1.75Z"/><path class="cls-2" d="M15,15.66v.88h-.88v-.88Z"/><path class="cls-2" d="M24.22,27.1v-.88h2.72v.88Z"/><path class="cls-2" d="M26,24.38v.89H23.31v-.89Z"/><path class="cls-2" d="M27,25.26v-.88h.89v.88Z"/><path class="cls-2" d="M23.28,26.21v.89h-.89v-.89Z"/><path class="cls-2" d="M29.24,6H27.43V5.11h1.81Z"/><path class="cls-2" d="M30.16,7.83h-1.8V6.94h1.8Z"/><path class="cls-2" d="M30.2,5.1h.87V6H30.2Z"/><path class="cls-2" d="M26.52,6.94h.89v.88h-.89Z"/></svg>