<svg id="Layer_1" data-name="Layer 1" xmlns="http://www.w3.org/2000/svg" viewBox="0 0 46 32"><defs><style>.cls-1{fill:#f6f6f6;}</style></defs><path class="cls-1" d="M14.06,18.19h0L1,5.33a.15.15,0,0,0-.21,0,.16.16,0,0,0,0,.13v25.1a.14.14,0,0,0,.14.15.12.12,0,0,0,.1,0L14,18.72A.38.38,0,0,0,14.06,18.19Z"/><path class="cls-1" d="M26.34,19.27l-.09.09-3,3a3.53,3.53,0,0,1-2.49,1,3.36,3.36,0,0,1-2.39-1l-3.1-3.05-.09-.09L2.31,31a.08.08,0,0,0,0,.12.09.09,0,0,0,.06,0H39.12a.08.08,0,0,0,.08-.09.07.07,0,0,0,0-.06Z"/><path class="cls-1" d="M44.53,4.51a6.14,6.14,0,0,0-11.47-.38H1.6a.08.08,0,0,0-.08.09.09.09,0,0,0,0,.06L15.17,17.69l.81.8,3.11,3.06a2,2,0,0,0,.36.29l.14.07.27.14.17.05.26.07.19,0,.26,0,.26,0,.2,0,.26-.08.19-.06.27-.14.15-.08a2.24,2.24,0,0,0,.38-.31l3.05-3,.81-.8,7.56-7.43a5.56,5.56,0,0,0,.78.83l-7.21,7.1a.38.38,0,0,0,0,.54h0l13,11.91a.14.14,0,0,0,.21,0,.15.15,0,0,0,0-.11V12.31A6.13,6.13,0,0,0,44.53,4.51Zm-5.81,6.57a4.58,4.58,0,0,1-4.57-4.57h0a4.58,4.58,0,1,1,4.58,4.58Z"/></svg>