<svg id="Layer_1" data-name="Layer 1" xmlns="http://www.w3.org/2000/svg" viewBox="0 0 46 32"><defs><style>.cls-1{fill:#e9b25f;}</style></defs><path class="cls-1" d="M14.72,18.43h0L1.66,5.57a.15.15,0,0,0-.21,0,.14.14,0,0,0-.05.13v25.1a.14.14,0,0,0,.14.15.11.11,0,0,0,.1,0L14.7,19A.38.38,0,0,0,14.72,18.43Z"/><path class="cls-1" d="M27,19.51l-.09.09-3,3a3.53,3.53,0,0,1-2.49,1,3.36,3.36,0,0,1-2.39-1l-3.1-3-.09-.09L3,31.25a.07.07,0,0,0,0,.12.05.05,0,0,0,0,0H39.78a.09.09,0,0,0,.09-.09.11.11,0,0,0,0-.06Z"/><path class="cls-1" d="M45.2,4.75a6.14,6.14,0,0,0-11.48-.38H2.26a.09.09,0,0,0-.08.09.09.09,0,0,0,0,.06L15.83,17.93l.82.8,3.1,3.06a2,2,0,0,0,.36.29l.14.07.27.14.18.05.25.07.2,0,.25,0,.26,0,.2,0,.27-.08.18-.06.28-.14.14-.08a1.91,1.91,0,0,0,.38-.31l3.05-3,.82-.8,7.55-7.43a5.56,5.56,0,0,0,.78.83l-7.21,7.1a.38.38,0,0,0,0,.54h0l13,11.91a.15.15,0,0,0,.21,0,.2.2,0,0,0,0-.11V12.55A6.14,6.14,0,0,0,45.2,4.75Zm-5.82,6.57a4.59,4.59,0,0,1-4.57-4.57h0a4.58,4.58,0,1,1,4.57,4.58Z"/></svg>