<svg width="35" height="34" viewBox="0 0 35 34" fill="none" xmlns="http://www.w3.org/2000/svg">
<path d="M9.32043 29.6204C9.32043 30.2841 9.32043 30.9094 9.32043 31.5347C9.32043 32.2149 8.99695 32.6757 8.39935 32.8567C7.83464 33.0267 7.31928 32.8183 6.94098 32.2478C6.40916 31.4525 5.87187 30.6571 5.35102 29.8508C5.24137 29.6752 5.12075 29.6094 4.91241 29.6149C3.84879 29.6259 2.79065 29.6204 1.72702 29.6204C0.707256 29.6149 0 28.9183 0 27.898C0 24.2887 0 20.6794 0 17.0701C0 16.0663 0.707256 15.3587 1.69961 15.3587C3.30601 15.3532 4.9179 15.3587 6.57912 15.3587C6.57912 15.2106 6.57912 15.079 6.57912 14.9473C6.57912 10.5701 6.57912 6.19834 6.57912 1.82111C6.57912 0.663716 7.248 0 8.41031 0C16.3382 0 24.2605 0 32.1884 0C33.3233 0 33.9921 0.669201 33.9921 1.81013C33.9921 7.52029 33.9757 13.2359 34.0086 18.9461C34.0141 20.109 33.1972 20.9482 32.1006 20.844C32.0239 20.8385 31.9471 20.844 31.8101 20.844C33.3891 23.1094 33.866 25.5339 33.093 28.1503C32.5502 29.9879 31.4647 31.4525 29.8912 32.544C26.7716 34.7162 22.5225 34.4255 19.71 31.8858C16.9029 29.3461 15.8612 24.7001 18.6134 20.8659C17.7143 20.8659 16.8316 20.8659 15.905 20.8659C15.905 20.9811 15.905 21.0963 15.905 21.217C15.905 23.4001 15.905 25.5832 15.905 27.7609C15.905 28.9512 15.2526 29.6094 14.0684 29.6094C12.5003 29.6204 10.9378 29.6204 9.32043 29.6204ZM7.74692 1.40971C7.80723 1.46456 7.86205 1.51942 7.92785 1.56878C11.4586 4.30044 14.9894 7.02661 18.5202 9.75827C19.6606 10.6359 20.9271 10.6304 22.073 9.7473C25.1871 7.33927 28.3012 4.93125 31.4153 2.51773C31.8868 2.15022 32.3583 1.78271 32.8353 1.40971C32.6544 1.10254 32.4022 1.09157 32.1281 1.09157C26.4974 1.09157 20.8668 1.09157 15.2362 1.09157C12.9499 1.09157 10.6691 1.09157 8.3829 1.09157C8.11974 1.09705 7.88398 1.12996 7.74692 1.40971ZM18.0926 25.7478C18.0816 29.6588 21.267 32.9006 25.1377 32.9115C29.1455 32.9225 32.3419 29.7465 32.3474 25.7423C32.3528 21.8807 29.14 18.6608 25.2693 18.6499C21.3273 18.6334 18.0981 21.8258 18.0926 25.7478ZM8.61865 19.7469C8.82699 19.7469 8.94761 19.7469 9.06823 19.7469C12.462 19.7469 15.8502 19.7414 19.2439 19.7524C19.5236 19.7524 19.7319 19.6756 19.9457 19.4946C22.9228 16.9604 27.2979 16.8836 30.3024 19.352C30.8177 19.7798 31.3111 19.7305 31.9362 19.736C31.8265 19.6372 31.7717 19.5824 31.7169 19.533C31.0151 18.9296 30.3133 18.3262 29.6115 17.7229C27.1389 15.611 24.6662 13.4937 22.2045 11.3709C21.9962 11.1899 21.8317 11.168 21.574 11.2722C20.7736 11.5903 19.9402 11.6397 19.1398 11.3106C18.7286 11.1406 18.4928 11.2612 18.1913 11.5245C15.8447 13.5486 13.4927 15.5562 11.1461 17.5693C10.3237 18.2714 9.50683 18.979 8.61865 19.7469ZM14.803 20.8275C10.5759 20.8275 6.39272 20.8275 2.20949 20.8275C2.20949 20.4545 2.20949 20.1144 2.20949 19.7469C3.69527 19.7469 5.16461 19.7469 6.62847 19.7469C6.60105 19.3684 6.57912 19.0229 6.55171 18.6389C5.82801 18.6389 5.11527 18.6389 4.39705 18.6389C4.39705 18.2604 4.39705 17.9258 4.39705 17.5473C5.12623 17.5473 5.83897 17.5473 6.55171 17.5473C6.55171 17.1634 6.55171 16.8178 6.55171 16.4558C4.90693 16.4558 3.28408 16.4503 1.66671 16.4613C1.27745 16.4613 1.09652 16.6971 1.09652 17.1524C1.09652 20.7068 1.09652 24.2558 1.09652 27.8103C1.09652 28.3368 1.28293 28.5233 1.82022 28.5233C3.02091 28.5233 4.21612 28.5343 5.41681 28.5179C5.69094 28.5124 5.83897 28.6001 5.987 28.8305C6.57364 29.7411 7.17673 30.6406 7.79078 31.5347C7.86205 31.639 7.99912 31.6993 8.10877 31.7816C8.14715 31.6609 8.20746 31.5402 8.21842 31.4195C8.23487 31.2385 8.22391 31.052 8.22391 30.871C8.22391 30.0976 8.22391 29.3242 8.22391 28.5233C8.3829 28.5233 8.509 28.5233 8.62962 28.5233C10.4334 28.5233 12.2372 28.5233 14.0409 28.5233C14.6221 28.5233 14.803 28.3478 14.803 27.7773C14.803 25.9946 14.803 24.2119 14.803 22.4292C14.803 21.9136 14.803 21.4035 14.803 20.8275ZM7.70306 2.78103C7.70306 8.24434 7.70306 13.6363 7.70306 19.0777C11.0529 16.2089 14.3589 13.3676 17.6978 10.5043C14.3644 7.93168 11.0529 5.37007 7.70306 2.78103ZM32.8737 19.0832C32.8737 13.6254 32.8737 8.23337 32.8737 2.78651C29.5183 5.37555 26.2123 7.93168 22.8789 10.5098C26.2123 13.3676 29.5183 16.2034 32.8737 19.0832Z" fill="#FFC600"/>
<path d="M5.45524 3.28642C3.63502 3.28642 1.84769 3.28642 0.0274658 3.28642C0.0274658 2.93537 0.0274658 2.58979 0.0274658 2.2168C1.82576 2.2168 3.63502 2.2168 5.45524 2.2168C5.45524 2.57334 5.45524 2.92988 5.45524 3.28642Z" fill="#FFC600"/>
<path d="M5.46619 6.60498C5.46619 6.96701 5.46619 7.30161 5.46619 7.65815C3.64596 7.65815 1.8367 7.65815 0.0164795 7.65815C0.0164795 7.30709 0.0164795 6.96701 0.0164795 6.60498C1.82574 6.60498 3.62952 6.60498 5.46619 6.60498Z" fill="#FFC600"/>
<path d="M5.46616 4.41089C5.46616 4.77292 5.46616 5.10752 5.46616 5.46406C4.38609 5.46406 3.31698 5.46406 2.22046 5.46406C2.22046 5.12397 2.22046 4.7784 2.22046 4.41089C3.28957 4.41089 4.36416 4.41089 5.46616 4.41089Z" fill="#FFC600"/>
<path d="M5.4552 9.86858C4.36964 9.86858 3.30601 9.86858 2.22046 9.86858C2.22046 9.51753 2.22046 9.17196 2.22046 8.80444C3.28957 8.80444 4.36416 8.80444 5.4552 8.80444C5.4552 9.1555 5.4552 9.51204 5.4552 9.86858Z" fill="#FFC600"/>
<path d="M19.4523 25.7814C21.3712 24.0975 23.2627 22.4464 25.198 20.7515C25.198 21.7278 25.198 22.6548 25.198 23.6038C26.8538 23.8561 28.1203 24.657 28.9591 26.0886C29.7925 27.5093 29.6664 29.0177 29.3648 30.6194C29.0962 30.2026 28.8495 29.8296 28.6082 29.4511C28.1751 28.7709 27.583 28.2718 26.7935 28.0962C26.3 27.9865 25.7847 27.9865 25.2255 27.9317C25.2255 28.919 25.2255 29.8241 25.2255 30.8389C23.2572 29.111 21.3767 27.4654 19.4523 25.7814ZM24.1509 26.884C25.6257 26.9004 27.0731 26.681 28.356 27.5587C27.6871 25.5127 26.2452 24.6021 24.1125 24.6734C24.1125 24.1688 24.1125 23.697 24.1125 23.154C23.0872 24.0536 22.1113 24.9038 21.119 25.7814C22.1278 26.6646 23.1037 27.5148 24.1509 28.4308C24.1509 27.8549 24.1509 27.3886 24.1509 26.884Z" fill="#FFC600"/>
<path d="M13.6901 21.9636C13.6901 22.3257 13.6901 22.6657 13.6901 23.0223C9.86321 23.0223 6.05828 23.0223 2.22046 23.0223C2.22046 22.6822 2.22046 22.3366 2.22046 21.9636C6.03087 21.9636 9.84676 21.9636 13.6901 21.9636Z" fill="#FFC600"/>
<path d="M2.20947 25.211C2.20947 24.849 2.20947 24.5089 2.20947 24.1523C6.03633 24.1523 9.84126 24.1523 13.6791 24.1523C13.6791 24.4924 13.6791 24.838 13.6791 25.211C9.86867 25.211 6.05278 25.211 2.20947 25.211Z" fill="#FFC600"/>
<path d="M11.497 26.3518C11.497 26.7138 11.497 27.0539 11.497 27.4105C8.40484 27.4105 5.3291 27.4105 2.22046 27.4105C2.22046 27.0704 2.22046 26.7248 2.22046 26.3518C5.30168 26.3518 8.38291 26.3518 11.497 26.3518Z" fill="#FFC600"/>
<path d="M2.21497 17.5701C2.56585 17.5701 2.90029 17.5701 3.26214 17.5701C3.26214 17.9102 3.26214 18.2557 3.26214 18.6287C2.92222 18.6287 2.57682 18.6287 2.21497 18.6287C2.21497 18.2777 2.21497 17.9321 2.21497 17.5701Z" fill="#FFC600"/>
<path d="M12.6375 26.3411C12.9883 26.3411 13.3283 26.3411 13.6846 26.3411C13.6846 26.6976 13.6846 27.0432 13.6846 27.4052C13.3392 27.4052 12.9993 27.4052 12.6375 27.4052C12.6375 27.0706 12.6375 26.725 12.6375 26.3411Z" fill="#FFC600"/>
</svg>
