<svg width="36" height="36" viewBox="0 0 36 36" fill="none" xmlns="http://www.w3.org/2000/svg">
<path d="M13.4235 12.7136C12.9888 13.1342 12.5414 13.5802 12.0876 14.0391C11.768 14.3577 11.7232 14.7847 11.9661 15.1862C12.1195 15.4411 12.2538 15.6705 12.3816 15.8935C12.4008 15.9254 12.388 16.072 12.2921 16.2823C12.1962 16.4989 12.094 16.6009 12.0556 16.6136C11.9597 16.6391 11.8639 16.6582 11.768 16.6837C11.6338 16.7156 11.4931 16.7475 11.3589 16.7857C10.8923 16.9131 10.5983 17.1043 10.5663 17.6524C10.5343 18.1941 10.5471 18.7421 10.5535 19.2774C10.5535 19.3857 10.5599 19.4941 10.5599 19.6088C10.5663 20.0039 10.8476 20.3544 11.2311 20.45C11.3269 20.4755 11.4228 20.4946 11.5187 20.5201C11.6593 20.5583 11.7999 20.5902 11.9406 20.622C12.094 20.6603 12.1771 20.724 12.2218 20.8514C12.241 20.9152 12.273 20.9725 12.2985 21.0299C12.3305 21.0936 12.356 21.151 12.3752 21.2147C12.3944 21.2848 12.388 21.3549 12.3752 21.3804C12.3113 21.5078 12.2346 21.6353 12.1579 21.7627C12.094 21.8774 12.0237 21.9922 11.9597 22.1132C11.9086 22.2152 11.8703 22.3172 11.8383 22.4191C11.8255 22.4637 11.8063 22.5083 11.7936 22.5466L11.7808 22.5784L11.7872 22.6103C11.8255 22.8652 11.915 23.0564 12.062 23.2093L12.1962 23.3432C12.5862 23.7383 12.9952 24.1525 13.4043 24.5476C13.7111 24.8471 14.0563 24.9172 14.3951 24.7388C14.5421 24.6623 14.6891 24.5795 14.8297 24.4966C14.964 24.4201 15.1046 24.3373 15.2388 24.2672C15.2772 24.2481 15.3475 24.2417 15.4242 24.2544C15.4625 24.2608 15.5137 24.2863 15.5648 24.3118C15.584 24.3182 15.5968 24.3309 15.6159 24.3373C15.6543 24.3564 15.6926 24.3692 15.731 24.3883C15.8844 24.452 15.9675 24.4966 15.9931 24.6304C16.0186 24.7898 16.0634 24.9427 16.1017 25.0956C16.1209 25.1785 16.1465 25.255 16.1656 25.3378C16.2615 25.7457 16.5875 26.0515 16.9327 26.0579C17.265 26.0643 17.5719 26.0643 17.8595 26.0643C18.3005 26.0643 18.6968 26.0579 19.074 26.0515C19.3744 26.0452 19.6237 25.8604 19.7323 25.58C19.7899 25.4206 19.841 25.255 19.8857 25.0893C19.9241 24.9618 19.956 24.8344 20.0008 24.7133C20.02 24.6496 20.0711 24.503 20.1286 24.4647C20.2565 24.3819 20.4163 24.3245 20.5761 24.2672L20.6528 24.2417C20.6656 24.2353 20.7103 24.2417 20.7295 24.2481C20.9404 24.3692 21.1705 24.503 21.4518 24.675C21.8289 24.9108 22.2508 24.879 22.5512 24.5922C22.8644 24.2991 23.1712 23.9868 23.4652 23.6937C23.6122 23.5471 23.7592 23.3941 23.9063 23.2476C24.1875 22.9672 24.2642 22.5147 24.0852 22.177C24.0405 22.0877 23.9894 22.0049 23.9382 21.9221C23.8807 21.8201 23.8232 21.7309 23.772 21.6289C23.7465 21.5779 23.7145 21.5333 23.6889 21.4887C23.6122 21.3804 23.5867 21.3358 23.6122 21.2657C23.6442 21.1701 23.6889 21.0745 23.7273 20.9853C23.7529 20.9215 23.7784 20.8642 23.804 20.8005C23.836 20.7176 23.8935 20.673 23.983 20.6539C24.0788 20.6284 24.1683 20.6093 24.2642 20.5838C24.4112 20.5456 24.5582 20.5073 24.7116 20.4755C25.1463 20.3799 25.4467 20.0294 25.4467 19.6024C25.4531 18.8568 25.4531 18.2514 25.4467 17.6842C25.4403 17.3592 25.2486 16.9769 24.8395 16.8685C24.7372 16.843 24.6349 16.8112 24.5327 16.7857C24.3601 16.7347 24.1811 16.6901 24.0021 16.6455C23.8999 16.62 23.8551 16.5945 23.8296 16.5308C23.804 16.4734 23.7784 16.4161 23.7529 16.3587C23.7017 16.244 23.6506 16.1421 23.6122 16.0273C23.6058 16.0019 23.6058 15.9381 23.6314 15.9063C23.7273 15.7342 23.8296 15.5685 23.9254 15.4028C23.9766 15.32 24.0277 15.2308 24.0788 15.1479C24.2642 14.8357 24.2195 14.3959 23.983 14.1474C23.4397 13.5866 22.9858 13.1278 22.5576 12.7072C22.2763 12.4332 21.8608 12.3949 21.5029 12.6052C21.2728 12.7454 21.0363 12.8793 20.8062 13.0131C20.7423 13.0513 20.5697 13.0449 20.3715 12.9685C20.167 12.8856 20.0519 12.7773 20.0328 12.7072C19.956 12.4459 19.9049 12.2356 19.8602 12.0381C19.7515 11.4964 19.4255 11.2351 18.8758 11.2351C18.3069 11.2351 17.7125 11.2351 17.118 11.2351C16.6003 11.2351 16.2679 11.5091 16.1529 12.0253C16.1081 12.242 16.0506 12.465 15.9803 12.7136C15.9675 12.7582 15.9419 12.79 15.9355 12.7964C15.7182 12.9047 15.5201 12.9876 15.3411 13.0513C15.3283 13.0513 15.2772 13.0449 15.2196 13.0131C15.0343 12.9111 14.8425 12.8028 14.6635 12.6944L14.5229 12.6116C14.1394 12.3758 13.7175 12.4204 13.4235 12.7136ZM17.4057 12.6435C17.4185 12.5925 17.4312 12.5797 17.4888 12.5797C17.8595 12.5861 18.2302 12.5797 18.5115 12.5797C18.5754 12.5797 18.5818 12.5989 18.5882 12.6307C18.6137 12.7072 18.6329 12.79 18.6585 12.8665C18.7096 13.0449 18.7608 13.2106 18.7991 13.3827C18.8758 13.7969 19.1762 13.9499 19.4191 14.0391C19.7323 14.1474 20.0072 14.2621 20.2756 14.3896C20.5952 14.5425 20.8829 14.5298 21.1513 14.3577C21.3878 14.2048 21.618 14.0709 21.8353 13.9562C21.8545 13.9562 21.8928 13.9626 21.9056 13.969C22.1996 14.243 22.4425 14.4852 22.6534 14.7146C22.6662 14.7337 22.6726 14.8038 22.6662 14.8229C22.564 15.0268 22.4425 15.2244 22.3275 15.4156C22.3019 15.4602 22.2699 15.5112 22.2444 15.5558C22.1165 15.7724 22.1037 16.0019 22.206 16.2504C22.2699 16.4097 22.3402 16.5754 22.4106 16.7347C22.5 16.9386 22.5895 17.1489 22.6726 17.3592C22.7685 17.595 22.9347 17.7416 23.184 17.8053C23.331 17.8436 23.4844 17.8882 23.6314 17.9264C23.7529 17.9646 23.8807 17.9965 24.0085 18.0284C24.0597 18.0411 24.0597 18.0539 24.0597 18.0857C24.0597 18.4362 24.0661 18.7931 24.0597 19.1499C24.0597 19.1754 24.0597 19.22 23.9702 19.2392C23.8999 19.2583 23.836 19.2774 23.772 19.2965C23.625 19.3411 23.4908 19.3794 23.3502 19.3985C22.9666 19.4558 22.7238 19.6725 22.5895 20.0867C22.5192 20.3098 22.4169 20.5264 22.3211 20.7367C22.2891 20.8132 22.2508 20.8897 22.2188 20.9662C22.0973 21.2402 22.1101 21.4887 22.2571 21.7181C22.3978 21.9412 22.5384 22.177 22.6854 22.4382C22.711 22.4829 22.711 22.502 22.6726 22.5402C22.5064 22.6995 22.3466 22.8588 22.1868 23.0182C22.0973 23.1074 22.0143 23.1902 21.9248 23.2794C21.8992 23.3049 21.88 23.324 21.7841 23.2667C21.701 23.2221 21.618 23.1711 21.5349 23.1265C21.3623 23.0245 21.1961 22.9289 21.0235 22.8333C20.8254 22.7186 20.6144 22.7186 20.3779 22.8206C19.956 23.0054 19.6173 23.1456 19.2977 23.2731C19.0484 23.3687 18.895 23.5343 18.8247 23.7765C18.748 24.0505 18.6713 24.3182 18.601 24.5922C18.5818 24.6687 18.5498 24.7005 18.4348 24.7005C18.275 24.6942 18.1088 24.6942 17.9234 24.6942C17.7956 24.6942 17.6677 24.6942 17.5143 24.7005C17.4376 24.7005 17.4185 24.675 17.4057 24.6241C17.3162 24.3118 17.2459 24.0569 17.182 23.8147C17.1116 23.5471 16.9518 23.375 16.6834 23.2731C16.4533 23.1902 16.2296 23.0883 16.0058 22.9927C15.878 22.9353 15.7438 22.878 15.6159 22.827C15.552 22.8015 15.4817 22.7824 15.4114 22.7632C15.3794 22.7569 15.3411 22.7441 15.3027 22.7314L15.258 22.7186L15.2132 22.7378C15.1749 22.7569 15.1365 22.7696 15.0918 22.7887C14.9959 22.827 14.8936 22.8716 14.7978 22.9226C14.6252 23.0182 14.459 23.1201 14.2992 23.2157L14.2353 23.2539C14.1266 23.324 14.1266 23.324 14.0307 23.2285C13.9732 23.1711 13.9093 23.1074 13.8518 23.05C13.6792 22.878 13.5066 22.7059 13.3276 22.5338C13.2957 22.502 13.2893 22.4892 13.3212 22.4319C13.4491 22.2088 13.5833 21.9858 13.7367 21.7245C13.8901 21.4696 13.8965 21.2083 13.7559 20.9215C13.6408 20.6921 13.513 20.4245 13.4235 20.1377C13.3276 19.8255 13.1486 19.4622 12.6373 19.3921C12.5095 19.373 12.3816 19.3348 12.241 19.2965C12.1707 19.2774 12.1004 19.2583 12.0301 19.2392C11.9534 19.22 11.9278 19.1882 11.9278 19.1117C11.9278 18.7931 11.9278 18.449 11.9278 18.1048C11.9278 18.0411 11.9342 18.0284 11.9981 18.0156C12.094 17.9901 12.1962 17.9646 12.2857 17.9328C12.4327 17.8882 12.567 17.8499 12.714 17.8244C13.1423 17.748 13.3021 17.4484 13.3979 17.1681C13.4874 16.9195 13.5961 16.6646 13.7111 16.4225L13.7751 16.2823C13.8965 16.0082 13.8901 15.7597 13.7495 15.5303L13.6984 15.4411C13.5705 15.2308 13.4427 15.0141 13.3276 14.7974C13.3212 14.7783 13.3276 14.7146 13.3404 14.7018C13.5705 14.4533 13.8198 14.2048 14.0819 13.9562C14.101 13.9435 14.1458 13.9371 14.165 13.9435C14.312 14.02 14.459 14.1092 14.606 14.1984C14.7019 14.2557 14.8042 14.3195 14.9064 14.3768C15.1301 14.5043 15.3603 14.5234 15.5904 14.4342C15.8524 14.3258 16.1209 14.2175 16.383 14.1092C16.5108 14.0582 16.6386 14.0008 16.7665 13.9499C16.9838 13.8606 17.1244 13.6886 17.1883 13.44C17.2267 13.2807 17.2714 13.1214 17.3162 12.9685C17.3418 12.8665 17.3737 12.7518 17.4057 12.6435Z" fill="#FFC600"/>
<path d="M23.51 33.5139C23.4589 33.5331 23.4141 33.5458 23.363 33.5649C23.2479 33.6095 23.1457 33.6478 23.037 33.6733C22.3978 33.8453 21.8417 33.9919 21.3304 34.1257C20.6336 34.3042 19.8602 34.4061 18.8886 34.4635C17.2012 34.5591 15.5776 34.3934 14.0563 33.9855C13.5897 33.8581 13.1167 33.7051 12.6629 33.5586L12.42 33.4821C12.1132 33.3865 11.7744 33.5203 11.6274 33.8007C11.4868 34.0684 11.5763 34.4444 11.8256 34.5973C12.0045 34.7056 12.2027 34.7821 12.3561 34.8331C13.2446 35.139 14.0819 35.3556 14.9192 35.5022C15.9164 35.6807 16.9647 35.7699 18.1152 35.789C19.1954 35.7508 20.6145 35.6615 21.9823 35.2983C22.5065 35.1581 23.0306 34.9988 23.542 34.8395C23.6634 34.8012 23.7912 34.763 23.9127 34.7248C24.0661 34.6801 24.2003 34.5591 24.2834 34.3997C24.3601 34.2468 24.3793 34.0811 24.3282 33.9473C24.2067 33.5713 23.8616 33.3929 23.51 33.5139Z" fill="#FFC600"/>
<path d="M4.27037 10.0563C4.27676 10.0563 4.28315 10.0563 4.28954 10.0563C4.55801 10.0563 4.7242 9.89058 4.83925 9.74401C4.97987 9.56558 5.1141 9.39352 5.25473 9.21508C5.57432 8.79449 5.9131 8.36115 6.26465 7.96604C7.07003 7.05475 8.048 6.21356 9.1602 5.46796C10.0359 4.88167 10.8668 4.42922 11.7042 4.07872C12.1836 3.88117 12.6821 3.71548 13.1679 3.54979C13.3341 3.49243 13.5067 3.43508 13.6729 3.37773C14.0181 3.25665 14.197 2.91252 14.0948 2.56203C14.0564 2.42183 13.9478 2.288 13.8007 2.20516C13.6537 2.12231 13.4875 2.09682 13.3405 2.13506C13.283 2.1478 13.2255 2.16692 13.1679 2.17967C12.9442 2.24339 12.7077 2.30712 12.4904 2.38996L12.2028 2.50467C11.6083 2.74046 10.9883 2.98899 10.4002 3.26939C9.76743 3.57528 9.16659 3.91303 8.61688 4.27627C8.09914 4.61402 7.56861 5.00913 6.89745 5.55718C5.74051 6.50033 4.7178 7.62829 3.76541 9.01753C3.612 9.24057 3.59922 9.49548 3.72706 9.7249C3.8485 9.93519 4.04026 10.0499 4.27037 10.0563Z" fill="#FFC600"/>
<path d="M34.8045 18.0539C34.6511 17.9838 34.4721 17.9775 34.3251 18.0348C34.0439 18.1431 33.9032 18.3662 33.9032 18.7039C33.8968 19.6025 33.8137 20.5265 33.6412 21.5334C33.5964 21.8074 33.5453 22.0432 33.4878 22.2535C33.3855 22.6422 33.2768 23.0501 33.1426 23.4516C32.9956 23.904 32.8613 24.3119 32.6888 24.707C32.465 25.2168 32.2222 25.7266 31.9473 26.2237C31.73 26.6315 31.4679 27.0266 31.225 27.4154L31.1867 27.4727C31.0588 27.6703 30.9182 27.8678 30.784 28.059C30.7137 28.1546 30.6433 28.2566 30.573 28.3585C30.4644 28.5178 30.3813 28.7727 30.6178 29.0786C30.7392 29.2316 30.899 29.3144 31.0716 29.3144C31.1355 29.3144 31.2058 29.3017 31.2698 29.2762C31.4359 29.2188 31.5957 29.1041 31.6916 28.9703C31.992 28.5561 32.3436 28.0717 32.6504 27.5747C33.1234 26.8036 33.5517 25.9624 33.9224 25.0638C34.2995 24.1462 34.5936 23.1967 34.7981 22.2344C35.0154 21.2275 35.1241 20.3799 35.1433 19.5642C35.1497 19.4878 35.1497 19.4113 35.156 19.3348C35.1688 19.1437 35.1752 18.9461 35.1752 18.7485C35.1752 18.6211 35.156 18.4873 35.1113 18.3662C35.0666 18.2387 34.9579 18.124 34.8045 18.0539Z" fill="#FFC600"/>
<path d="M5.12042 27.9122C4.88391 27.5681 4.63463 27.2113 4.4173 26.848C4.09132 26.3 3.72058 25.6436 3.42016 24.9553C3.19645 24.4455 3.01747 23.9038 2.84489 23.3813C2.79375 23.2283 2.74262 23.0754 2.69148 22.9161C2.44859 22.2023 2.33353 21.4567 2.23766 20.7494C2.18652 20.3479 2.15456 19.9273 2.12899 19.5258C2.11621 19.3729 2.10982 19.2263 2.09703 19.0734C2.09064 18.9969 2.09064 18.9204 2.09064 18.8376C2.09064 18.742 2.09064 18.64 2.07786 18.5444C2.0459 18.2385 1.76465 17.9836 1.45145 17.9836C1.29165 17.9836 1.13824 18.0474 1.02319 18.1621C0.888959 18.2959 0.812256 18.4935 0.812256 18.7038C0.812256 18.8185 0.818648 18.9395 0.82504 19.0542C0.831432 19.1307 0.831432 19.2072 0.837824 19.2837C0.869783 20.2141 0.95927 21.0425 1.12546 21.8136C1.21495 22.2215 1.31722 22.7058 1.44506 23.1965C1.54094 23.5725 1.64321 23.9102 1.75826 24.2288C1.89888 24.6303 2.05868 25.0318 2.23766 25.4333C2.40385 25.8093 2.602 26.2554 2.83211 26.676C3.06861 27.1093 3.32428 27.549 3.59914 27.9696C3.88038 28.3966 4.18719 28.8044 4.4237 29.1103C4.50679 29.2186 4.64102 29.2951 4.80082 29.3142C4.82639 29.3206 4.85835 29.3206 4.88391 29.3206C5.02454 29.3206 5.16516 29.276 5.27382 29.1932C5.51032 29.0083 5.64455 28.6706 5.44001 28.3711C5.33135 28.2245 5.22908 28.0652 5.12042 27.9122Z" fill="#FFC600"/>
<path d="M22.7238 3.4987C22.8644 3.55606 23.0114 3.60067 23.1457 3.6389C23.3246 3.69626 23.4908 3.74724 23.6506 3.81734C24.2451 4.07862 24.8523 4.35901 25.5171 4.68402C26.1243 4.98353 26.7379 5.36589 27.4986 5.93306C28.3359 6.55121 29.071 7.22034 29.6974 7.92133C29.9722 8.22722 30.2407 8.5586 30.4964 8.87723C30.6178 9.03017 30.7457 9.18312 30.8735 9.33606C31.0141 9.50812 31.2123 9.59734 31.404 9.59734C31.5319 9.59734 31.6661 9.5591 31.7748 9.46989C31.9154 9.36792 32.0049 9.20861 32.0241 9.03654C32.0432 8.87086 31.9985 8.70517 31.9026 8.57771C31.7876 8.43751 31.6789 8.29732 31.5638 8.15074C31.3146 7.83211 31.0589 7.50711 30.7904 7.20122C30.0426 6.34728 29.1924 5.56982 28.2656 4.90069C27.7415 4.5247 27.2301 4.18058 26.7379 3.88106C26.2969 3.61341 25.8303 3.384 25.3765 3.16095L25.3509 3.14821C25.0057 2.97614 24.6414 2.81683 24.277 2.67663C23.9574 2.54918 23.6251 2.44084 23.3055 2.33251C23.2096 2.30064 23.1201 2.26878 23.0242 2.23692C22.9667 2.2178 22.9092 2.21143 22.8772 2.21143C22.8708 2.21143 22.8644 2.21143 22.8644 2.21143H22.8516C22.5576 2.21143 22.3403 2.34525 22.2252 2.59379C22.1166 2.8232 22.1485 3.05262 22.3083 3.21193C22.4234 3.33939 22.5704 3.44135 22.7238 3.4987Z" fill="#FFC600"/>
<path d="M2.34634 15.9829C3.59916 15.9638 4.60909 14.9314 4.60269 13.6888C4.60269 13.0834 4.3598 12.5098 3.91876 12.0765C3.47132 11.6368 2.88966 11.401 2.27603 11.4074C1.64962 11.4137 1.06796 11.6623 0.639698 12.1083C0.217831 12.5417 -0.0122783 13.1216 0.000505562 13.7334C0.0196813 15.0015 1.02961 15.9893 2.30799 15.9893C2.32078 15.9829 2.33356 15.9829 2.34634 15.9829ZM3.31152 13.7143C3.31792 13.9628 3.20925 14.2177 3.02389 14.4089C2.83213 14.6001 2.57645 14.7084 2.32078 14.7084H2.31438C1.73911 14.702 1.29167 14.2559 1.29167 13.6824C1.29167 13.4275 1.41312 13.1662 1.60488 12.975C1.79025 12.7966 2.03314 12.6946 2.28882 12.6946C2.29521 12.6946 2.30799 12.6946 2.31438 12.6946C2.88326 12.7137 3.31152 13.1471 3.31152 13.7143Z" fill="#FFC600"/>
<path d="M8.29728 29.7987C7.03807 29.786 6.00258 30.8056 5.9834 32.0546C5.97701 32.6728 6.21351 33.2591 6.64177 33.6924C7.07003 34.1257 7.6517 34.3679 8.26532 34.3679C8.27811 34.3679 8.29089 34.3679 8.30367 34.3679C8.91091 34.3679 9.47979 34.1385 9.90805 33.7243C10.3427 33.2973 10.5856 32.7174 10.5856 32.0929C10.592 30.8183 9.58845 29.8114 8.29728 29.7987ZM8.2845 33.0997C8.01604 33.0997 7.76036 32.9914 7.57499 32.8002C7.38324 32.609 7.28096 32.3478 7.28096 32.0865C7.28096 31.5321 7.7284 31.0924 8.29089 31.086H8.29728C8.55935 31.086 8.82142 31.1943 9.01318 31.3855C9.20494 31.5767 9.30721 31.8252 9.30721 32.0865C9.29442 32.66 8.85977 33.0997 8.2845 33.0997Z" fill="#FFC600"/>
<path d="M33.6924 11.4072C33.686 11.4072 33.6796 11.4072 33.6732 11.4072C32.4204 11.42 31.3977 12.446 31.3977 13.7014C31.3977 14.294 31.6406 14.8803 32.0625 15.3073C32.4971 15.7406 33.0724 15.9828 33.686 15.9828H33.6924C34.3188 15.9828 34.9005 15.7406 35.3415 15.3009C35.7762 14.8676 36.0063 14.294 35.9999 13.6886C35.9871 12.4269 34.958 11.4072 33.6924 11.4072ZM34.7151 13.7014C34.7151 13.969 34.5937 14.2303 34.3955 14.4279C34.1974 14.619 33.9481 14.721 33.686 14.7146C33.1363 14.7019 32.6889 14.2431 32.6825 13.6886C32.6825 13.4337 32.8103 13.1533 33.0213 12.9558C33.2002 12.7901 33.4176 12.7009 33.6413 12.7009C33.6605 12.7009 33.6796 12.7009 33.6924 12.7009H33.6988H33.7052C33.9545 12.6881 34.191 12.7837 34.3827 12.9622C34.5937 13.1597 34.7151 13.4337 34.7151 13.7014Z" fill="#FFC600"/>
<path d="M27.7351 29.7988C27.7287 29.7988 27.7287 29.7988 27.7223 29.7988C27.0959 29.7988 26.5079 30.0474 26.0796 30.4871C25.6513 30.9204 25.4148 31.5003 25.4276 32.1248C25.4404 33.3803 26.4503 34.3744 27.7223 34.3808C27.7287 34.3808 27.7351 34.3808 27.7351 34.3808C28.3359 34.3808 28.9304 34.1322 29.365 33.6925C29.7933 33.2592 30.0298 32.6793 30.017 32.093C30.0298 31.5003 29.7997 30.9332 29.365 30.4934C28.9368 30.0474 28.3423 29.7988 27.7351 29.7988ZM28.7322 32.0994C28.7386 32.3479 28.6364 32.6028 28.451 32.794C28.2592 32.9915 27.9972 33.1062 27.7287 33.0999C27.1534 33.0935 26.7252 32.6538 26.7188 32.0739C26.7188 31.819 26.8275 31.5641 27.0192 31.3729C27.211 31.1881 27.4602 31.0861 27.7287 31.0861C27.7351 31.0861 27.7415 31.0861 27.7543 31.0861C28.304 31.0988 28.7322 31.5449 28.7322 32.0994Z" fill="#FFC600"/>
<path d="M17.9938 4.58207H18.0002C18.6394 4.58207 19.2211 4.3399 19.6621 3.88745C20.0968 3.44136 20.3269 2.84233 20.3077 2.19869C20.263 0.956023 19.2403 -0.012621 17.9811 0.000124337C17.361 0.006497 16.7794 0.255031 16.3511 0.694744C15.9229 1.14083 15.6927 1.73349 15.7119 2.36438C15.7439 3.58793 16.7666 4.58207 17.9938 4.58207ZM19.0166 2.30065C19.0166 2.57468 18.9079 2.82321 18.7225 3.00802C18.5308 3.1992 18.2687 3.30116 17.9875 3.30116C17.7254 3.30116 17.4825 3.19283 17.2971 3.00165C17.1054 2.80409 17.0031 2.54919 17.0031 2.27516C17.0095 1.73349 17.4697 1.27466 17.9938 1.27466H18.0002C18.5947 1.30652 19.0229 1.73349 19.0166 2.30065Z" fill="#FFC600"/>
<path d="M22.4425 25.6565C22.4425 25.8477 22.5384 26.058 22.7046 26.2237C22.858 26.3766 23.037 26.4595 23.2095 26.4595C23.3757 26.4595 23.5419 26.3894 23.6634 26.2619C23.7848 26.1408 23.8487 25.9752 23.8487 25.8095C23.8423 25.4335 23.446 25.0256 23.0817 25.0256C22.7429 25.032 22.4425 25.3251 22.4425 25.6565Z" fill="#FFC600"/>
<path d="M11.5699 28.2247C11.7361 28.2247 11.9278 28.1291 12.0812 27.9698C12.241 27.8041 12.3369 27.6002 12.3305 27.4281C12.3241 27.1031 12.0173 26.7909 11.6913 26.7845C11.5187 26.7781 11.3334 26.8737 11.1736 27.0394C11.0138 27.2114 10.9115 27.4281 10.9243 27.5874C10.9243 27.7595 10.9882 27.9188 11.1097 28.0399C11.2375 28.161 11.3973 28.2247 11.5699 28.2247Z" fill="#FFC600"/>
<path d="M24.3602 26.7908C24.0214 26.7908 23.7274 27.0712 23.721 27.4153C23.7146 27.6128 23.8232 27.8486 23.9958 28.0207C24.1301 28.1545 24.2962 28.231 24.4496 28.231C24.456 28.231 24.4688 28.231 24.4752 28.231C24.8523 28.2119 25.1016 27.957 25.0952 27.6001C25.1016 27.2114 24.7181 26.7971 24.3602 26.7908Z" fill="#FFC600"/>
<path d="M6.35408 14.8359C6.36047 14.6065 6.26459 14.205 5.56148 14.1158C5.40168 14.0966 5.24828 14.1476 5.12044 14.256C4.97982 14.377 4.89672 14.5555 4.89033 14.7339C4.88394 14.9123 4.94786 15.0717 5.0693 15.1991C5.21632 15.3521 5.44004 15.4413 5.69571 15.4476C5.7021 15.4476 5.7021 15.4476 5.7085 15.4476C6.07284 15.4413 6.34769 15.18 6.35408 14.8359Z" fill="#FFC600"/>
<path d="M12.5543 25.1912C12.3561 25.3633 12.2155 25.6182 12.2219 25.8158C12.2283 26.1918 12.4967 26.4594 12.8675 26.4594C13.2318 26.4594 13.6025 26.0579 13.6025 25.6692C13.6025 25.3187 13.3405 25.0383 12.9889 25.0319C12.8547 25.0128 12.7013 25.0702 12.5543 25.1912Z" fill="#FFC600"/>
<path d="M25.728 30.0027C25.8941 30.0027 26.0603 29.9326 26.1882 29.8051C26.316 29.6777 26.3863 29.512 26.3799 29.3527C26.3735 28.983 25.9772 28.5752 25.6257 28.5752C25.4467 28.5752 25.2805 28.6453 25.1591 28.7664C25.044 28.8875 24.9801 29.0404 24.9801 29.2125C24.9801 29.5757 25.3764 30.0027 25.728 30.009C25.728 30.0027 25.728 30.0027 25.728 30.0027Z" fill="#FFC600"/>
<path d="M17.7956 10.77C17.8659 10.7955 17.9426 10.8146 18.0193 10.8146C18.1152 10.8146 18.2111 10.7955 18.307 10.7509C18.569 10.6298 18.6905 10.4131 18.6713 10.0818C18.6713 10.069 18.6713 10.0499 18.6713 10.0308C18.6713 9.99254 18.6713 9.9543 18.6649 9.91607C18.6458 9.71852 18.5371 9.54645 18.3709 9.44449C18.2047 9.34253 18.0002 9.32341 17.8148 9.39351C17.6486 9.45724 17.5208 9.57832 17.4441 9.75038C17.3546 9.94793 17.3546 10.1837 17.4441 10.4068C17.5208 10.5725 17.6422 10.7063 17.7956 10.77Z" fill="#FFC600"/>
<path d="M28.4319 14.7591C28.2401 14.7718 28.0483 14.8292 27.8885 14.9184C27.7351 15.0012 27.6393 15.1606 27.6137 15.3454C27.5881 15.5493 27.6584 15.7596 27.7991 15.887C27.9269 16.0081 28.0931 16.0718 28.2721 16.0718C28.3999 16.0718 28.5341 16.04 28.6684 15.9763C28.9113 15.8552 29.0583 15.664 29.0775 15.4473V15.4346C29.0775 15.2307 29.0007 15.0331 28.8601 14.9057C28.7323 14.8037 28.5853 14.7463 28.4319 14.7591Z" fill="#FFC600"/>
<path d="M26.4375 15.4157C26.2202 15.4221 26.022 15.4858 25.8878 15.5431C25.6385 15.6515 25.4787 15.9574 25.549 16.2186C25.6257 16.5182 25.8622 16.7221 26.1818 16.7603L26.2138 16.7667L26.2457 16.754C26.2905 16.7348 26.3416 16.7221 26.3863 16.703C26.5014 16.6647 26.6165 16.6201 26.7251 16.5628C26.9361 16.4481 27.0447 16.1613 26.9808 15.8873C26.9105 15.5878 26.7059 15.4093 26.4375 15.4157Z" fill="#FFC600"/>
<path d="M10.381 28.5751C10.2276 28.5687 10.0742 28.6388 9.93998 28.7663C9.7674 28.932 9.64595 29.1741 9.63956 29.3526C9.63317 29.5183 9.70348 29.684 9.82493 29.805C9.94637 29.9325 10.1126 30.0026 10.2788 30.0026H10.2851C10.4705 30.0026 10.6559 29.907 10.8093 29.7286C10.9627 29.5565 11.0458 29.3462 11.033 29.1869C11.0266 28.8364 10.7645 28.5879 10.381 28.5751Z" fill="#FFC600"/>
<path d="M7.62611 14.7591C7.40878 14.7527 7.20424 14.8547 7.08279 15.0267C6.96135 15.1988 6.93578 15.4218 7.01248 15.6194C7.12115 15.8934 7.44713 16.0846 7.77312 16.0846C7.83065 16.0846 7.88818 16.0782 7.94571 16.0655C8.1055 16.0336 8.23974 15.9316 8.32922 15.7914C8.4251 15.6385 8.45067 15.4537 8.40593 15.2816C8.32283 14.9694 7.9521 14.7846 7.62611 14.7591Z" fill="#FFC600"/>
<path d="M9.03874 16.0337C9.03235 16.1994 9.08348 16.346 9.19854 16.467C9.35194 16.6264 9.59484 16.7283 9.85052 16.7347C10.0295 16.7347 10.1957 16.671 10.3107 16.5499C10.4258 16.4352 10.4897 16.2759 10.4897 16.0974C10.4897 15.7023 10.1509 15.4156 9.68433 15.4092C9.33277 15.4092 9.05792 15.6705 9.03874 16.0337Z" fill="#FFC600"/>
<path d="M18.0194 8.6606C18.0961 8.6606 18.1728 8.64785 18.2495 8.62236C18.5372 8.52677 18.6906 8.26549 18.665 7.92774C18.665 7.915 18.665 7.90225 18.665 7.88951C18.665 7.85127 18.665 7.81941 18.665 7.78117C18.6458 7.5645 18.5308 7.37969 18.3518 7.27773C18.1728 7.17577 17.9491 7.1694 17.751 7.27136C17.4186 7.43067 17.2779 7.87676 17.4441 8.26549C17.5528 8.51403 17.7701 8.6606 18.0194 8.6606Z" fill="#FFC600"/>
<path d="M31.1036 14.7466C31.1036 14.5682 31.0333 14.3961 30.9118 14.275C30.7904 14.1603 30.637 14.0966 30.4708 14.103C30.0553 14.1157 29.6398 14.377 29.6526 14.7912C29.6654 15.1672 29.9275 15.4285 30.2918 15.4285C30.7584 15.4221 31.1036 15.1417 31.1036 14.7466Z" fill="#FFC600"/>
<path d="M18.3518 5.15548C18.1409 5.02803 17.8916 5.02803 17.6934 5.14911C17.4186 5.32117 17.3035 5.79912 17.4058 6.06677C17.4633 6.22609 17.5656 6.4109 17.8021 6.47462C17.8724 6.49374 17.9427 6.50649 18.013 6.50649C18.1664 6.50649 18.3134 6.46188 18.4221 6.36629C18.5819 6.23246 18.665 6.02217 18.6458 5.76726V5.75451C18.6458 5.74177 18.6458 5.71628 18.6458 5.69716C18.6714 5.48049 18.5563 5.27656 18.3518 5.15548Z" fill="#FFC600"/>
<path d="M13.903 18.64C13.903 19.7361 14.3248 20.7621 15.0982 21.5332C15.8717 22.298 16.8944 22.7249 17.9938 22.7249H18.0002C19.106 22.7249 20.1351 22.3043 20.9021 21.5396C21.6691 20.7749 22.0974 19.7553 22.0974 18.6655C22.0974 16.365 20.3013 14.5615 18.0002 14.5552H17.9938C16.888 14.5552 15.8589 14.9758 15.0919 15.7405C14.3248 16.4988 13.903 17.5312 13.903 18.64ZM15.2644 18.6464C15.258 17.9391 15.5521 17.2317 16.0762 16.7091C16.594 16.1929 17.2907 15.8998 17.9938 15.8998C18.0066 15.8998 18.013 15.8998 18.0257 15.8998C18.7416 15.9062 19.4448 16.2184 19.9625 16.7537C20.4675 17.2763 20.7359 17.9454 20.7231 18.6464V18.6528C20.7359 20.1249 19.5342 21.3484 18.0513 21.3675C17.3162 21.3803 16.6259 21.1063 16.1018 20.5965C15.5776 20.093 15.2708 19.3793 15.2644 18.6464Z" fill="#FFC600"/>
</svg>
