<svg width="32" height="31" viewBox="0 0 32 31" fill="none" xmlns="http://www.w3.org/2000/svg">
<path d="M26.3173 27.3247H20.4138V26.162H26.3173C26.8138 26.162 27.2552 25.8131 27.3656 25.2899L28.0828 22.1505C28.0828 22.0342 28.138 21.9761 28.138 21.9179C28.138 21.3947 27.6966 20.9296 27.2 20.9296H25.3794C24.7725 20.9296 24.2759 20.4063 24.2759 19.7668V17.732C24.2759 17.5576 24.1656 17.4413 24 17.4413C23.8897 17.4413 23.7794 17.4995 23.7242 17.6157L22.1794 21.3947C22.0138 21.8016 21.6276 22.0923 21.1863 22.0923H18.7587V20.9296H21.1311L22.6759 17.1506C22.8966 16.6274 23.3931 16.2786 23.9449 16.2786C24.7173 16.2786 25.3242 16.9181 25.3242 17.732V19.7668H27.1449C28.2483 19.7668 29.1863 20.7552 29.1863 21.9179C29.1863 22.0923 29.1862 22.2667 29.1311 22.4412L28.4138 25.5806C28.1931 26.6271 27.3104 27.3247 26.3173 27.3247Z" fill="white" fill-opacity="0.7"/>
<path d="M24 30.8131C19.5862 30.8131 16 27.0341 16 22.3831C16 17.7321 19.5862 13.9531 24 13.9531C28.4138 13.9531 32 17.7321 32 22.3831C32 27.0341 28.4138 30.8131 24 30.8131ZM24 15.1159C20.1931 15.1159 17.1034 18.3716 17.1034 22.3831C17.1034 26.3946 20.1931 29.6503 24 29.6503C27.8069 29.6503 30.8966 26.3946 30.8966 22.3831C30.8966 18.3716 27.8069 15.1159 24 15.1159Z" fill="white" fill-opacity="0.7"/>
<path d="M26.704 15.178H25.6006V1.34122H22.2902V15.0036H21.1868V0.178467H26.704V15.178Z" fill="white" fill-opacity="0.7"/>
<path d="M16.0016 18.0227H14.8982V5.23242H20.4154V15.8716H19.312V6.39518H16.0016V18.0227Z" fill="white" fill-opacity="0.7"/>
<path d="M9.37933 16.2784H8.27588V8.13916H13.7931V14.5343H12.6897V9.30191H9.37933V16.2784Z" fill="white" fill-opacity="0.7"/>
<path d="M13.7941 15.6973H12.6907V16.86H13.7941V15.6973Z" fill="white" fill-opacity="0.7"/>
<path d="M29.2399 1.16284H28.1365V4.06973H29.2399V1.16284Z" fill="white" fill-opacity="0.7"/>
<path d="M29.2399 5.23242H28.1365V6.39518H29.2399V5.23242Z" fill="white" fill-opacity="0.7"/>
<path d="M6.62066 0H5.51721V2.32551H6.62066V0Z" fill="white" fill-opacity="0.7"/>
<path d="M6.62066 4.65088H5.51721V6.97639H6.62066V4.65088Z" fill="white" fill-opacity="0.7"/>
<path d="M8.82607 2.90674H7.1709V4.06949H8.82607V2.90674Z" fill="white" fill-opacity="0.7"/>
<path d="M4.96547 2.90698H3.3103V4.06974H4.96547V2.90698Z" fill="white" fill-opacity="0.7"/>
<path d="M3.31035 19.1855C1.48966 19.1855 0 17.6158 0 15.6972C0 13.7787 1.48966 12.209 3.31035 12.209C5.13103 12.209 6.62069 13.7787 6.62069 15.6972C6.62069 17.6158 5.13103 19.1855 3.31035 19.1855ZM3.31035 13.3717C2.09655 13.3717 1.10345 14.4182 1.10345 15.6972C1.10345 16.9763 2.09655 18.0228 3.31035 18.0228C4.52414 18.0228 5.51724 16.9763 5.51724 15.6972C5.51724 14.4182 4.52414 13.3717 3.31035 13.3717Z" fill="white" fill-opacity="0.7"/>
<path d="M3.31035 29.6503C1.48966 29.6503 0 28.0806 0 26.1621C0 24.2435 1.48966 22.6738 3.31035 22.6738C5.13103 22.6738 6.62069 24.2435 6.62069 26.1621C6.62069 28.0806 5.13103 29.6503 3.31035 29.6503ZM3.31035 23.8366C2.09655 23.8366 1.10345 24.8831 1.10345 26.1621C1.10345 27.4411 2.09655 28.4876 3.31035 28.4876C4.52414 28.4876 5.51724 27.4411 5.51724 26.1621C5.51724 24.8831 4.52414 23.8366 3.31035 23.8366Z" fill="white" fill-opacity="0.7"/>
<path d="M11.5862 24.9992C9.76553 24.9992 8.27588 23.4295 8.27588 21.511C8.27588 19.5924 9.76553 18.0227 11.5862 18.0227C13.4069 18.0227 14.8966 19.5924 14.8966 21.511C14.8966 23.4295 13.4069 24.9992 11.5862 24.9992ZM11.5862 19.1855C10.3724 19.1855 9.37933 20.2319 9.37933 21.511C9.37933 22.79 10.3724 23.8365 11.5862 23.8365C12.8 23.8365 13.7931 22.79 13.7931 21.511C13.7931 20.2319 12.8 19.1855 11.5862 19.1855Z" fill="white" fill-opacity="0.7"/>
<path d="M5.80621 16.9451L5.25879 17.9546L9.13874 20.2908L9.68616 19.2813L5.80621 16.9451Z" fill="white" fill-opacity="0.7"/>
<path d="M8.65357 22.0757L5.55151 24.6907L6.24084 25.5987L9.3429 22.9837L8.65357 22.0757Z" fill="white" fill-opacity="0.7"/>
</svg>
