<svg id="Layer_1" data-name="Layer 1" xmlns="http://www.w3.org/2000/svg" viewBox="0 0 162 29.34"><defs><style>.cls-1,.cls-2{isolation:isolate;}.cls-2{font-size:15px;font-family:Roboto-Regular, Roboto;}.cls-2,.cls-3{fill:#fff;}</style></defs><g class="cls-1"><text class="cls-2" transform="translate(41.29 19.99)">Contact</text></g><path class="cls-3" d="M14.92,9.82H12.66V3.15h8.88V4.57l1.08-.21c.05,0,.09-.09.1-.14a1.48,1.48,0,0,1,2.86,0,.26.26,0,0,0,.17.15,10.36,10.36,0,0,1,3.9,1.45h.08V4.52a1.87,1.87,0,0,1,0-.53,1.06,1.06,0,0,1,1.05-.85c1.25,0,2.5,0,3.76,0a1.09,1.09,0,0,1,1.09,1.08q0,3.38,0,6.75a1.1,1.1,0,0,1-1.07,1.08h-.35c.06.36.11.71.19,1,0,.07.14.13.22.16a1.46,1.46,0,0,1,.63,2.38,3.15,3.15,0,0,1-.69.45c-.06.05-.16.11-.17.18a10.46,10.46,0,0,1-1,3.16s0,0,0,.06l.14.05A2.58,2.58,0,0,1,35.67,22c0,1,0,2,0,3a1.12,1.12,0,0,1-1.11,1.13h0a1.14,1.14,0,0,1-1.11-1.12v-.38a3.43,3.43,0,0,1-.64,0,1.08,1.08,0,0,1-.84-1q0-.78,0-1.56a1.11,1.11,0,0,1,2.22,0c0,.93,0,1.86,0,2.79v.21a.37.37,0,0,0,.37.37.36.36,0,0,0,.37-.35h0c0-1.05,0-2.1,0-3.14A1.83,1.83,0,0,0,33,20.23,1.86,1.86,0,0,0,31.21,22c0,.46,0,.93,0,1.39a1.88,1.88,0,0,0,1.73,2h.11v.73a2.55,2.55,0,0,1-2-1,3.06,3.06,0,0,1-.55-2.25l-.23.15a10.26,10.26,0,0,1-4.46,1.84.23.23,0,0,0-.22.18,1.48,1.48,0,0,1-1.41,1.08,1.5,1.5,0,0,1-1.43-1.06.3.3,0,0,0-.17-.18c-.49-.12-1-.21-1.49-.32-.08.16-.17.32-.25.5a1.7,1.7,0,0,1-2,1,7.24,7.24,0,0,1-6.09-5.84,3.68,3.68,0,0,1,0-1.1,1.44,1.44,0,0,1,.81-1.12l.7-.35c-.1-.52-.21-1-.32-1.54,0-.05-.09-.09-.15-.11a1.49,1.49,0,0,1,0-2.87.26.26,0,0,0,.15-.17,10.58,10.58,0,0,1,1-3.14A.36.36,0,0,0,14.92,9.82ZM25.57,24.21a9.72,9.72,0,0,0,4.69-2.07.6.6,0,0,0,.26-.44A2.33,2.33,0,0,1,32,19.77a1.56,1.56,0,0,0,.9-.93c.08-.17.16-.34.23-.51a9.31,9.31,0,0,0,.62-2.27,1.47,1.47,0,0,1-1-1.42,1.49,1.49,0,0,1,1-1.41c-.08-.34-.16-.67-.22-1,0-.15-.09-.18-.23-.18H31.05a1.15,1.15,0,0,1-1.32-1,2,2,0,0,1,0-.35c0-1.25,0-2.5,0-3.76a.39.39,0,0,0-.19-.35A9.22,9.22,0,0,0,26.91,5.4c-.44-.13-.89-.22-1.33-.33a1.51,1.51,0,0,1-2.85,0c-.33.07-.64.15-1,.2s-.22.11-.22.28c0,1.33,0,2.67,0,4v.26H16a.28.28,0,0,0-.31.17c-.22.51-.48,1-.66,1.53s-.31,1.14-.46,1.71a1.49,1.49,0,0,1,1,1.44,1.52,1.52,0,0,1-1,1.41c.11.48.22.94.34,1.41a.31.31,0,0,0,.2.17,1.62,1.62,0,0,1,1.14,1c.1.24.19.48.28.71a2.24,2.24,0,0,1-.39,2.37.28.28,0,0,0,0,.25c.22.25.45.48.69.71s.2.06.32,0a2.17,2.17,0,0,1,2.28-.39q.38.13.75.3a1.58,1.58,0,0,1,1,1.14.23.23,0,0,0,.13.17l1.46.37a1.49,1.49,0,0,1,2.83,0ZM30.49,5.37V9.81h4.43V5.37ZM19.16,25.44a.88.88,0,0,0,.89-.43,5.46,5.46,0,0,0,.32-.64.78.78,0,0,0-.24-1,3,3,0,0,0-1.58-.55,1.57,1.57,0,0,0-1.2.64.27.27,0,0,1-.34.09,2.8,2.8,0,0,1-1.76-1.76.28.28,0,0,1,.1-.37A1.42,1.42,0,0,0,16,20.07a6.94,6.94,0,0,0-.25-.81c-.26-.87-.81-1.1-1.65-.65a1.06,1.06,0,0,0-.67,1.32,6.42,6.42,0,0,0,3.16,4.66A6,6,0,0,0,19.16,25.44ZM13.87,3.89l.15.18,1.85,2.05c.22.25.4.57.67.7a2.59,2.59,0,0,0,1,0,.51.51,0,0,0,.29-.13L20.25,4l.08-.11ZM20,9.07c-.48-.32-.93-.57-1.32-.89a2.41,2.41,0,0,0-2-.59,1.09,1.09,0,0,0-.36.12L14.48,8.92l-.21.15ZM13.4,8.75l2.39-1.6L13.4,4.49Zm5-1.6L20.8,8.74V4.5ZM30.48,4.6h4.45c0-.13,0-.24,0-.36a.35.35,0,0,0-.35-.36H30.85a.36.36,0,0,0-.37.34v0c0,.12,0,.24,0,.37Zm0,6c0,.14,0,.25,0,.37a.36.36,0,0,0,.35.37h3.73a.37.37,0,0,0,.37-.35v0c0-.12,0-.24,0-.37Zm-6.32-6.7a.74.74,0,0,0-.74.74h0a.75.75,0,0,0,.74.75h0a.76.76,0,0,0,.74-.74.74.74,0,0,0-.71-.76h0ZM14.09,15.4a.75.75,0,0,0,.08-1.49.75.75,0,1,0-.08,1.49Zm20.11,0a.75.75,0,0,0,0-1.49h0a.75.75,0,0,0,0,1.49Zm-10,10a.75.75,0,0,0,.74-.74.75.75,0,0,0-1.49,0h0a.75.75,0,0,0,.75.74Zm9.29-2.59v-.7c0-.26-.15-.42-.37-.42a.37.37,0,0,0-.38.37v1.43a.38.38,0,0,0,.33.42h0c.22,0,.37-.16.37-.43s0-.45,0-.67Z"/><path class="cls-3" d="M24.16,9.82a4.84,4.84,0,1,1-4.83,4.83A4.84,4.84,0,0,1,24.16,9.82Zm1.49,5.23h-3l.17,1.45h2.65Zm-3-.79h3l-.18-1.46H22.83Zm-.74,0,.15-1.47H20.62a.19.19,0,0,0-.14.09,3.51,3.51,0,0,0-.38,1.38ZM20.1,15a3.68,3.68,0,0,0,.37,1.37.21.21,0,0,0,.13.1h1.47L21.92,15Zm6.14,1.47h1.45a.17.17,0,0,0,.14-.09A3.51,3.51,0,0,0,28.21,15H26.39Zm0-3.71.15,1.47h1.82a3.76,3.76,0,0,0-.36-1.35.31.31,0,0,0-.14-.12c-.49,0-1,0-1.46,0ZM23,12.05h2.23a3.32,3.32,0,0,0-.62-1.21.6.6,0,0,0-.81-.18.77.77,0,0,0-.18.18,3.15,3.15,0,0,0-.61,1.21Zm0,5.22a3.16,3.16,0,0,0,.67,1.25.55.55,0,0,0,.76.13.8.8,0,0,0,.13-.13,3,3,0,0,0,.67-1.25Zm-2-5.21h1.14a.21.21,0,0,0,.13-.07l.44-1.14A4,4,0,0,0,21,12.05Zm4.58-1.22c.15.39.29.75.44,1.11a.17.17,0,0,0,.12.1H27.3a4.05,4.05,0,0,0-1.7-1.22Zm1.71,6.42h-.68c-.55,0-.54,0-.73.49l-.32.74a4.11,4.11,0,0,0,1.73-1.23Zm-4.58,1.22-.43-1.11s-.06-.1-.1-.1H21a4.13,4.13,0,0,0,1.71,1.21Z"/><path class="cls-3" d="M23.8,6.86h.72v2.2H23.8Z"/><path class="cls-3" d="M16.36,15V14.3h2.21V15Z"/><path class="cls-3" d="M32,14.3V15h-2.2V14.3Z"/><path class="cls-3" d="M23.79,22.45v-2.2h.72v2.2Z"/></svg>