<svg id="Layer_1" data-name="Layer 1" xmlns="http://www.w3.org/2000/svg" viewBox="0 0 64 64"><defs><style>.cls-1{fill:#fff;}</style></defs><path class="cls-1" d="M56.52,44.73c-.22-.21-.22-.21-.44-.21V44.3A28.29,28.29,0,0,0,58.7,36c0-.22.21-.22.43-.43a8,8,0,0,0,1.75-1.09c.43-.22.65-.88.87-1.31a3.84,3.84,0,0,0-2.4-4.8c-.22,0-.65-.22-.65-.43-.22-.88-.22-1.75-.44-2.62h.87A2.89,2.89,0,0,0,62,22.49V4.83A2.89,2.89,0,0,0,59.13,2H49.32a2.81,2.81,0,0,0-2.83,2.18V9h-.22A31.69,31.69,0,0,0,36,5.27a.47.47,0,0,1-.44-.44,3.84,3.84,0,0,0-7.41,0,.77.77,0,0,1-.22.44c-.87.22-1.74.44-2.83.65V2.22H1.79V19.66H7.68a1.64,1.64,0,0,1-.22.65A28.39,28.39,0,0,0,4.84,28.6a.47.47,0,0,1-.43.44,3.84,3.84,0,0,0,0,7.41c.21,0,.43,0,.43.22.22,1.52.66,2.83.87,4.14A12.77,12.77,0,0,1,4,41.68a3.33,3.33,0,0,0-2.18,2.84,6.15,6.15,0,0,0,0,2.83A19,19,0,0,0,17.71,62.61,4.23,4.23,0,0,0,22.94,60c.22-.44.43-.88.65-1.31,1.31.22,2.62.65,3.93.87A.46.46,0,0,1,28,60a3.85,3.85,0,0,0,7.42,0c.21-.22.43-.44.65-.44a25.38,25.38,0,0,0,11.77-4.8c.22-.21.44-.21.66-.43A8.34,8.34,0,0,0,50,60.21a6,6,0,0,0,5.24,2.62v-2H55a4.88,4.88,0,0,1-4.58-5.23V51.93A4.81,4.81,0,0,1,60,51.49v8.29a.94.94,0,0,1-.87.87,1.46,1.46,0,0,1-.87-1.09V51.49a2.84,2.84,0,0,0-5.67,0v4.15a2.59,2.59,0,0,0,2.18,2.61h1.75v1.09a2.88,2.88,0,0,0,2.83,2.84,3.25,3.25,0,0,0,2.83-3.06V51.27A6.75,6.75,0,0,0,56.52,44.73Zm3.7-12.42a2,2,0,1,1-2-2A2,2,0,0,1,60.22,32.31Zm0-9.82a.94.94,0,0,1-.87.88H49.54a.94.94,0,0,1-.87-.88v-.87H60.22Zm0-2.83H48.67V8.1H60.22ZM48.88,5.05a1,1,0,0,1,.88-.87h9.81a.94.94,0,0,1,.87.87v.87H48.67C48.67,5.71,48.45,5.27,48.88,5.05ZM32.1,4a2.3,2.3,0,0,1,2,2,2,2,0,1,1-2-2Zm-27,0H22.28a.21.21,0,0,0-.21.22l-6.54,7.2a1.72,1.72,0,0,1-.88.43,5.24,5.24,0,0,1-2.61,0c-.66-.22-1.09-1.09-1.75-1.74C8.77,8.1,7,6.36,5.5,4.62c-.22,0-.22-.22-.44-.44Zm18.1,1.75V16.83l-6.33-4.15Zm-19.41,0,6.32,7L3.75,16.83Zm2.4,12c.22-.22.22-.44.44-.44,1.52-1.09,3.27-2.18,4.79-3.27.22,0,.44-.22.88-.22a6.33,6.33,0,0,1,5.23,1.53c1.09.87,2.18,1.53,3.49,2.4ZM5.5,34.27a1.72,1.72,0,0,1-1.75-1.75,2,2,0,0,1,2-2,1.78,1.78,0,0,1,1.75,2A1.92,1.92,0,0,1,5.5,34.27ZM22.07,57.82a13.32,13.32,0,0,1-.88,1.74,2.18,2.18,0,0,1-2.39,1.09,16.32,16.32,0,0,1-7-2.18A16.3,16.3,0,0,1,3.53,46.26a2.69,2.69,0,0,1,1.75-3.49c2.18-1.09,3.7-.43,4.36,1.75.22.65.43,1.52.65,2.18a3.76,3.76,0,0,1-1.52,3.48c-.22,0-.44.44-.22.88a6.89,6.89,0,0,0,4.58,4.58c.22.21.65,0,.87-.22a4.14,4.14,0,0,1,3.27-1.75,9.59,9.59,0,0,1,4.14,1.53A2.09,2.09,0,0,1,22.07,57.82Zm9.81,2.83a2.29,2.29,0,0,1-2-2,2,2,0,1,1,2,2ZM54.77,43.43a4.27,4.27,0,0,1-2.4,2.39,6.36,6.36,0,0,0-3.7,5A1.21,1.21,0,0,1,48,51.93a26.57,26.57,0,0,1-12.43,5.45c-.43-1.53-2-2.62-4.36-2A3.79,3.79,0,0,0,27.52,58a27.82,27.82,0,0,1-3.71-.87.47.47,0,0,1-.44-.43,4.17,4.17,0,0,0-2.61-3.06,8.18,8.18,0,0,0-2-.87,5.43,5.43,0,0,0-5.89,1.09c-.44.22-.65.22-.87,0-.66-.65-1.09-1.31-1.75-2a.41.41,0,0,1,0-.66A6.06,6.06,0,0,0,11.38,45c-.22-.65-.43-1.31-.65-2a4.56,4.56,0,0,0-3.05-2.62.46.46,0,0,1-.44-.43c-.22-1.31-.65-2.4-.87-3.71A3.81,3.81,0,0,0,9,32.52a3.34,3.34,0,0,0-2.61-3.7c.43-1.53.87-3.05,1.31-4.58a30.64,30.64,0,0,1,1.74-3.93,1.16,1.16,0,0,1,.87-.43H24.68V8.76a.58.58,0,0,1,.66-.66A10.78,10.78,0,0,0,28,7.67a4,4,0,0,0,3.71,2.61,3.82,3.82,0,0,0,3.71-2.61c1.09.22,2.39.65,3.48.87a20.32,20.32,0,0,1,7,3.27,1.14,1.14,0,0,1,.44.87V23.37a3,3,0,0,0,3.49,2.4h5.88c.44,0,.66,0,.66.43.22.87.43,1.75.65,2.62a3.79,3.79,0,0,0-2.61,3.7A4,4,0,0,0,57,36.23a19.71,19.71,0,0,1-1.52,5.89ZM56.3,53.89v2c-.22.66-.44,1.09-1.09,1.09s-.87-.65-.87-1.09V51.93c0-.44.65-.87,1.09-.87a1,1,0,0,1,.87,1.09Z"/><path class="cls-1" d="M31.88,19.66A12.65,12.65,0,1,0,44.52,32.31,12.66,12.66,0,0,0,31.88,19.66Zm8.5,5.67H37.33c-.22,0-.44,0-.44-.22-.43-.87-.65-1.74-1.09-2.83A12.87,12.87,0,0,1,40.38,25.33Zm-9.59-3c0-.22.22-.22.43-.44a1.63,1.63,0,0,1,2.18.44,11,11,0,0,1,1.53,3.27H29A12.15,12.15,0,0,1,30.79,22.28Zm4.58,5.23.43,3.92H28l.44-3.92Zm-7.2-5.23a12.48,12.48,0,0,1-1.09,3c0,.22,0,.22-.22.22H23.81A9.26,9.26,0,0,1,28.17,22.28ZM22.5,27.73c.22-.22.22-.22.44-.22h3.71l-.44,3.92h-4.8A10.6,10.6,0,0,1,22.5,27.73Zm0,9.15a6.62,6.62,0,0,1-1.09-3.48v-.22h5l.43,3.92H22.94C22.72,37.1,22.5,37.1,22.5,36.88Zm1.31,2.4h3.05a.22.22,0,0,1,.22.22c.44.87.66,1.75,1.09,2.84A10.61,10.61,0,0,1,23.81,39.28Zm9.38,3.49c-.22,0-.22.22-.44.22a1.41,1.41,0,0,1-2-.44A6,6,0,0,1,29,39.28l5.89.22A6.88,6.88,0,0,1,33.19,42.77Zm-4.8-5.45L28,33.4H35.8l-.43,3.92Zm7.19,5.23a7.55,7.55,0,0,0,.88-2c.65-1.31.43-1.31,2-1.31h1.74A12.26,12.26,0,0,1,35.58,42.55Zm6.11-5.45c-.22,0-.22.22-.44.22h-3.7L38,33.4h4.8A10.6,10.6,0,0,1,41.69,37.1ZM41.91,28a9.25,9.25,0,0,1,.87,3.48H38l-.43-3.92a24.84,24.84,0,0,1,3.92.22C41.69,27.73,41.91,27.73,41.91,28Z"/><rect class="cls-1" x="31.01" y="11.81" width="1.96" height="5.67"/><rect class="cls-1" x="11.6" y="31.43" width="5.89" height="1.96"/><rect class="cls-1" x="46.7" y="31.43" width="5.67" height="1.96"/><rect class="cls-1" x="31.01" y="47.13" width="1.96" height="5.67"/></svg>