<svg id="Layer_1" data-name="Layer 1" xmlns="http://www.w3.org/2000/svg" viewBox="0 0 64 64"><defs><style>.cls-1{fill:#e9b25f;}</style></defs><path class="cls-1" d="M56.64,44.32c-.22-.22-.22-.22-.44-.22v-.22a28.23,28.23,0,0,0,2.62-8.28c0-.22.22-.22.43-.44A7.61,7.61,0,0,0,61,34.07c.43-.22.65-.87.87-1.31A3.82,3.82,0,0,0,59.47,28c-.22,0-.65-.22-.65-.44-.22-.87-.22-1.74-.44-2.62h.87a2.88,2.88,0,0,0,2.84-2.83V4.42a2.89,2.89,0,0,0-2.84-2.84H49.44a2.83,2.83,0,0,0-2.83,2.18v4.8h-.22a31.91,31.91,0,0,0-10.25-3.7.46.46,0,0,1-.43-.44,3.84,3.84,0,0,0-7.42,0,.78.78,0,0,1-.21.44c-.88.21-1.75.43-2.84.65V1.8H1.91V19.25H7.8a1.69,1.69,0,0,1-.22.65A28.33,28.33,0,0,0,5,28.18a.46.46,0,0,1-.43.44,3.84,3.84,0,0,0,0,7.41c.22,0,.43,0,.43.22.22,1.53.66,2.84.88,4.14a12.89,12.89,0,0,1-1.75.88A3.3,3.3,0,0,0,1.91,44.1a6.19,6.19,0,0,0,0,2.84A19,19,0,0,0,17.83,62.2a4.24,4.24,0,0,0,5.23-2.62c.22-.44.44-.87.65-1.31,1.31.22,2.62.66,3.93.87a.47.47,0,0,1,.44.44,3.84,3.84,0,0,0,7.41,0c.22-.22.43-.44.65-.44a25.55,25.55,0,0,0,11.78-4.79c.21-.22.43-.22.65-.44A8.33,8.33,0,0,0,50.1,59.8a6,6,0,0,0,5.23,2.62v-2h-.22a4.88,4.88,0,0,1-4.58-5.23V51.51a4.81,4.81,0,0,1,9.6-.43v8.28a.94.94,0,0,1-.88.87,1.44,1.44,0,0,1-.87-1.09V51.08a2.84,2.84,0,1,0-5.67,0v4.14a2.6,2.6,0,0,0,2.18,2.62h1.75v1.09a2.89,2.89,0,0,0,2.83,2.83,3.25,3.25,0,0,0,2.84-3V50.86A6.75,6.75,0,0,0,56.64,44.32Zm3.7-12.43a2,2,0,1,1-2-2A2,2,0,0,1,60.34,31.89Zm0-9.81a.93.93,0,0,1-.87.87H49.66a.93.93,0,0,1-.87-.87v-.87H60.34Zm0-2.83H48.79V7.69H60.34ZM49,4.64a.94.94,0,0,1,.87-.88h9.81a.94.94,0,0,1,.87.88v.87H48.79C48.79,5.29,48.57,4.86,49,4.64ZM32.22,3.55a2.29,2.29,0,0,1,2,2,2,2,0,1,1-2-2Zm-27,0H22.41a.21.21,0,0,0-.22.21L15.65,11a1.68,1.68,0,0,1-.87.44,5.53,5.53,0,0,1-2.62,0c-.66-.22-1.09-1.09-1.75-1.75C8.89,7.69,7.14,6,5.62,4.2c-.22,0-.22-.22-.44-.44Zm18.1,1.74V16.41L17,12.27Zm-19.41,0,6.33,7L3.87,16.41Zm2.4,12c.22-.22.22-.43.44-.43,1.52-1.09,3.27-2.18,4.79-3.27.22,0,.44-.22.88-.22a6.33,6.33,0,0,1,5.23,1.52c1.09.88,2.18,1.53,3.49,2.4ZM5.62,33.85a1.72,1.72,0,0,1-1.75-1.74,2,2,0,0,1,2-2,1.78,1.78,0,0,1,1.74,2A1.92,1.92,0,0,1,5.62,33.85ZM22.19,57.4a14,14,0,0,1-.87,1.74,2.18,2.18,0,0,1-2.4,1.09,16.18,16.18,0,0,1-7-2.18A16.23,16.23,0,0,1,3.66,45.84,2.66,2.66,0,0,1,5.4,42.36c2.18-1.09,3.71-.44,4.36,1.74.22.65.44,1.53.65,2.18a3.76,3.76,0,0,1-1.52,3.49c-.22,0-.44.44-.22.87a6.87,6.87,0,0,0,4.58,4.58c.22.22.65,0,.87-.22a4.13,4.13,0,0,1,3.27-1.74,9.53,9.53,0,0,1,4.14,1.52A2.09,2.09,0,0,1,22.19,57.4ZM32,60.23a2.3,2.3,0,0,1-2-2,2,2,0,1,1,2,2ZM54.89,43a4.32,4.32,0,0,1-2.4,2.4,6.35,6.35,0,0,0-3.7,5,1.18,1.18,0,0,1-.66,1.09A26.48,26.48,0,0,1,35.71,57c-.44-1.52-2-2.61-4.36-2a3.8,3.8,0,0,0-3.71,2.62,31.33,31.33,0,0,1-3.71-.87.46.46,0,0,1-.43-.44,4.16,4.16,0,0,0-2.62-3.05,7.32,7.32,0,0,0-2-.87A5.41,5.41,0,0,0,13,53.48c-.43.21-.65.21-.87,0-.66-.66-1.09-1.31-1.75-2a.41.41,0,0,1,0-.65,6.06,6.06,0,0,0,1.09-6.32c-.21-.66-.43-1.31-.65-2A4.53,4.53,0,0,0,7.8,40a.47.47,0,0,1-.44-.44c-.22-1.31-.65-2.4-.87-3.7a3.81,3.81,0,0,0,2.62-3.71A3.37,3.37,0,0,0,6.49,28.4c.44-1.52.87-3,1.31-4.58A31.15,31.15,0,0,1,9.54,19.9a1.14,1.14,0,0,1,.87-.44H24.8V8.34a.58.58,0,0,1,.66-.65,11,11,0,0,0,2.62-.44,4,4,0,0,0,3.7,2.62,3.8,3.8,0,0,0,3.71-2.62c1.09.22,2.4.66,3.49.88a20.36,20.36,0,0,1,7,3.27,1.11,1.11,0,0,1,.44.87V23a3,3,0,0,0,3.49,2.4h5.89c.43,0,.65,0,.65.44.22.87.44,1.74.65,2.61a3.81,3.81,0,0,0-2.61,3.71,4,4,0,0,0,2.61,3.71,19.35,19.35,0,0,1-1.52,5.88Zm1.53,10.47v2c-.22.65-.44,1.09-1.09,1.09s-.87-.66-.87-1.09V51.51c0-.43.65-.87,1.09-.87a1,1,0,0,1,.87,1.09Z"/><path class="cls-1" d="M32,19.25A12.65,12.65,0,1,0,44.65,31.89,12.65,12.65,0,0,0,32,19.25Zm8.5,5.66h-3c-.22,0-.44,0-.44-.21-.43-.88-.65-1.75-1.09-2.84A13.14,13.14,0,0,1,40.5,24.91Zm-9.59-3.05c0-.22.22-.22.44-.43a1.64,1.64,0,0,1,2.18.43,11.17,11.17,0,0,1,1.52,3.27H29.17A11.83,11.83,0,0,1,30.91,21.86Zm4.58,5.23L35.92,31H28.08l.43-3.93Zm-7.2-5.23a12.08,12.08,0,0,1-1.09,3.05c0,.22,0,.22-.21.22H23.93A9.39,9.39,0,0,1,28.29,21.86Zm-5.67,5.45c.22-.22.22-.22.44-.22h3.71L26.33,31h-4.8A10.59,10.59,0,0,1,22.62,27.31Zm0,9.16A6.62,6.62,0,0,1,21.53,33v-.22h5L27,36.69H23.06C22.84,36.69,22.62,36.69,22.62,36.47Zm1.31,2.4H27a.21.21,0,0,1,.21.22c.44.87.66,1.74,1.09,2.83A10.5,10.5,0,0,1,23.93,38.87Zm9.38,3.49c-.22,0-.22.21-.44.21a1.42,1.42,0,0,1-2-.43,5.94,5.94,0,0,1-1.74-3.27l5.88.22A6.92,6.92,0,0,1,33.31,42.36Zm-4.8-5.45L28.08,33h7.84l-.43,3.93Zm7.2,5.23a8.18,8.18,0,0,0,.87-2c.65-1.31.43-1.31,2-1.31h1.74A12.3,12.3,0,0,1,35.71,42.14Zm6.1-5.45c-.22,0-.22.22-.43.22H37.67L38.1,33h4.8A10.38,10.38,0,0,1,41.81,36.69ZM42,27.53A9.07,9.07,0,0,1,42.9,31H38.1l-.43-3.93a24.71,24.71,0,0,1,3.92.22C41.81,27.31,42,27.31,42,27.53Z"/><rect class="cls-1" x="31.13" y="11.4" width="1.96" height="5.67"/><rect class="cls-1" x="11.72" y="31.02" width="5.89" height="1.96"/><rect class="cls-1" x="46.83" y="31.02" width="5.67" height="1.96"/><rect class="cls-1" x="31.13" y="46.72" width="1.96" height="5.67"/></svg>