<svg id="Layer_1" data-name="Layer 1" xmlns="http://www.w3.org/2000/svg" viewBox="0 0 162 29.34"><defs><style>.cls-1,.cls-2{isolation:isolate;}.cls-2{font-size:15px;font-family:Roboto-Regular, Roboto;}.cls-2,.cls-3{fill:#e9b25f;}</style></defs><g class="cls-1"><text class="cls-2" transform="translate(40.04 19.99)">Contact</text></g><path class="cls-3" d="M13.66,9.82H11.4V3.15h8.89V4.57l1.08-.21s.08-.09.1-.14a1.48,1.48,0,0,1,2.86,0,.26.26,0,0,0,.16.15A10.34,10.34,0,0,1,28.4,5.82h.07V4.52a3.08,3.08,0,0,1,0-.53,1.08,1.08,0,0,1,1-.85c1.26,0,2.51,0,3.77,0a1.08,1.08,0,0,1,1.08,1.08q0,3.38,0,6.75a1.1,1.1,0,0,1-1.06,1.08H33c.07.36.12.71.2,1,0,.07.13.13.22.16A1.46,1.46,0,0,1,34,15.63a3.71,3.71,0,0,1-.69.45c-.07.05-.16.11-.17.18a10.46,10.46,0,0,1-1,3.16.13.13,0,0,0,0,.06l.13.05A2.59,2.59,0,0,1,34.42,22c0,1,0,2,0,3a1.13,1.13,0,0,1-1.11,1.13h0a1.12,1.12,0,0,1-1.1-1.12v-.38a3.39,3.39,0,0,1-.64,0,1.07,1.07,0,0,1-.84-1c0-.52,0-1,0-1.56a1.11,1.11,0,0,1,2.22,0c0,.93,0,1.86,0,2.79v.21a.37.37,0,0,0,.74,0h0c0-1.05,0-2.1,0-3.14A1.85,1.85,0,0,0,30,22c0,.46,0,.93,0,1.39a1.88,1.88,0,0,0,1.72,2h.12v.73a2.53,2.53,0,0,1-2-1,3,3,0,0,1-.56-2.25l-.22.15a10.26,10.26,0,0,1-4.46,1.84.23.23,0,0,0-.22.18,1.49,1.49,0,0,1-1.41,1.08,1.5,1.5,0,0,1-1.43-1.06.3.3,0,0,0-.17-.18c-.49-.12-1-.21-1.5-.32-.07.16-.16.32-.24.5a1.71,1.71,0,0,1-2,1,7.23,7.23,0,0,1-6.08-5.84,3.68,3.68,0,0,1,0-1.1,1.45,1.45,0,0,1,.82-1.12l.7-.35c-.11-.52-.21-1-.32-1.54a.27.27,0,0,0-.16-.11,1.53,1.53,0,0,1-1.08-1.44,1.51,1.51,0,0,1,1.09-1.43.27.27,0,0,0,.16-.17,10,10,0,0,1,1-3.14ZM24.32,24.21A9.72,9.72,0,0,0,29,22.14a.62.62,0,0,0,.25-.44,2.36,2.36,0,0,1,1.45-1.93,1.56,1.56,0,0,0,.9-.93c.07-.17.16-.34.23-.51a8.86,8.86,0,0,0,.61-2.27,1.47,1.47,0,0,1-1-1.42,1.5,1.5,0,0,1,1-1.41c-.07-.34-.15-.67-.21-1,0-.15-.1-.18-.24-.18H29.79a1.15,1.15,0,0,1-1.31-1,1,1,0,0,1,0-.35V7a.35.35,0,0,0-.19-.35A9.29,9.29,0,0,0,25.66,5.4c-.45-.13-.9-.22-1.34-.33a1.5,1.5,0,0,1-2.84,0c-.33.07-.65.15-1,.2s-.22.11-.22.28c0,1.33,0,2.67,0,4v.26H14.75a.27.27,0,0,0-.31.17c-.22.51-.49,1-.66,1.53s-.31,1.14-.46,1.71a1.5,1.5,0,0,1,0,2.85c.12.48.22.94.35,1.41a.29.29,0,0,0,.2.17,1.6,1.6,0,0,1,1.13,1c.1.24.19.48.28.71a2.22,2.22,0,0,1-.38,2.37.25.25,0,0,0,0,.25,9.22,9.22,0,0,0,.69.71c.1.1.2.06.31,0a2.17,2.17,0,0,1,2.28-.39c.26.09.51.19.76.3a1.57,1.57,0,0,1,1,1.14.26.26,0,0,0,.14.17l1.45.37a1.5,1.5,0,0,1,2.84,0ZM29.24,5.37V9.81h4.43V5.37ZM17.9,25.44a.88.88,0,0,0,.89-.43c.12-.21.23-.42.33-.64a.78.78,0,0,0-.24-1,3,3,0,0,0-1.58-.55,1.59,1.59,0,0,0-1.21.64.27.27,0,0,1-.34.09A2.8,2.8,0,0,1,14,21.81a.28.28,0,0,1,.11-.37,1.44,1.44,0,0,0,.61-1.37,4.47,4.47,0,0,0-.25-.81c-.25-.87-.8-1.1-1.65-.65a1.05,1.05,0,0,0-.66,1.32,6.39,6.39,0,0,0,3.16,4.66A5.93,5.93,0,0,0,17.9,25.44ZM12.61,3.89l.16.18,1.85,2.05c.22.25.39.57.67.7a2.58,2.58,0,0,0,1,0,.51.51,0,0,0,.29-.13L19,4l.07-.11ZM18.7,9.07a15.34,15.34,0,0,1-1.33-.89,2.38,2.38,0,0,0-2-.59,1.09,1.09,0,0,0-.36.12c-.61.4-1.22.8-1.82,1.21L13,9.07Zm-6.56-.32,2.4-1.6-2.4-2.66Zm5-1.6,2.38,1.59V4.5ZM29.22,4.6h4.46c0-.13,0-.24,0-.36a.36.36,0,0,0-.35-.36H29.6a.35.35,0,0,0-.37.34v0c0,.12,0,.24,0,.37Zm0,6v.37a.37.37,0,0,0,.35.37H33.3a.37.37,0,0,0,.38-.35v-.39Zm-6.31-6.7a.75.75,0,0,0-.75.74h0a.76.76,0,0,0,.75.75h0a.75.75,0,0,0,.73-.74.73.73,0,0,0-.7-.76ZM12.84,15.4a.75.75,0,1,0-.71-.78.75.75,0,0,0,.71.78Zm20.1,0a.75.75,0,0,0,.74-.75.76.76,0,0,0-.76-.74h0a.75.75,0,0,0,0,1.49Zm-10,10a.74.74,0,1,0-.74-.74h0a.75.75,0,0,0,.75.74Zm9.29-2.59v-.7c0-.26-.15-.42-.36-.42a.37.37,0,0,0-.38.37v1.43a.37.37,0,0,0,.33.42h0a.38.38,0,0,0,.38-.43c0-.22,0-.45,0-.67Z"/><path class="cls-3" d="M22.91,9.82a4.84,4.84,0,1,1-4.84,4.83A4.85,4.85,0,0,1,22.91,9.82Zm1.49,5.23h-3l.17,1.45h2.65Zm-3-.79h3l-.17-1.46H21.58Zm-.74,0,.14-1.47H19.36a.2.2,0,0,0-.13.09,3.7,3.7,0,0,0-.39,1.38ZM18.84,15a3.89,3.89,0,0,0,.38,1.37.19.19,0,0,0,.13.1h1.47L20.66,15ZM25,16.51h1.45a.17.17,0,0,0,.14-.09A3.51,3.51,0,0,0,27,15H25.14Zm0-3.71.15,1.47H27a3.58,3.58,0,0,0-.37-1.35.24.24,0,0,0-.14-.12c-.48,0-1,0-1.46,0Zm-3.2-.75H24a3.17,3.17,0,0,0-.62-1.21.58.58,0,0,0-.8-.18.77.77,0,0,0-.18.18,3.32,3.32,0,0,0-.62,1.21Zm0,5.22a3.14,3.14,0,0,0,.66,1.25.57.57,0,0,0,.77.13.49.49,0,0,0,.12-.13A3.18,3.18,0,0,0,24,17.27Zm-2-5.21H20.9A.16.16,0,0,0,21,12l.44-1.14a4,4,0,0,0-1.7,1.2Zm4.58-1.22L24.77,12a.19.19,0,0,0,.13.1h1.15a4,4,0,0,0-1.71-1.22Zm1.71,6.42h-.69c-.54,0-.54,0-.73.49-.09.24-.2.47-.31.74a4.17,4.17,0,0,0,1.73-1.23Zm-4.59,1.22c-.14-.39-.28-.75-.42-1.11,0,0-.07-.1-.1-.1H19.75a4.09,4.09,0,0,0,1.72,1.21Z"/><path class="cls-3" d="M22.55,6.86h.71v2.2h-.71Z"/><path class="cls-3" d="M15.11,15V14.3h2.21V15Z"/><path class="cls-3" d="M30.7,14.3V15H28.5V14.3Z"/><path class="cls-3" d="M22.54,22.45v-2.2h.72v2.2Z"/></svg>