<svg id="Layer_1" data-name="Layer 1" xmlns="http://www.w3.org/2000/svg" viewBox="0 0 64 64"><defs><style>.cls-1{fill:#fff;}</style></defs><path class="cls-1" d="M48.56,55.33l-2.61-2A25.06,25.06,0,0,0,52,47.71a25.71,25.71,0,0,0,5.22-15.23c0-.87-.43-1.31-1.08-1.31h-10a1,1,0,0,0-.87,1.09c0,.66-.22,1.31-.22,2A12.89,12.89,0,0,1,30.72,45.1,13.25,13.25,0,0,1,19.18,32.7v-.22A13.09,13.09,0,0,1,32,19.21a1.16,1.16,0,0,0,1.31-1.31V8.33A1.16,1.16,0,0,0,32,7a26,26,0,0,0-11.53,3.05c-1.52.87-2.83,2-4.35,2.83a34.42,34.42,0,0,0-3.05-2.18,3,3,0,0,0-1.31-.44H2v2.18h9.14c.22-.22.44,0,.65,0,.88.65,1.75,1.31,2.83,2A25,25,0,0,0,7,34.66,24.71,24.71,0,0,0,17.88,53.15l-2,2a1.14,1.14,0,0,1-.87.44H2v2H15.7a1.65,1.65,0,0,0,1.09-.43,34.32,34.32,0,0,0,2.83-2.83c.22.22.43.22.43,0a24.42,24.42,0,0,0,23.5.44.67.67,0,0,1,.88,0c1.08.65,2,1.52,3,2.17a3.09,3.09,0,0,0,1.31.44H61.4v-2H48.56ZM31.15,9.41v7.84A15.39,15.39,0,0,0,17,31.39H9.17A22.81,22.81,0,0,1,31.15,9.41Zm-.22,45.92a22.8,22.8,0,0,1-22-22h7.83A15.38,15.38,0,0,0,30.93,47.49Zm2.4,0v-8A15,15,0,0,0,47.25,33.35h8.06A23,23,0,0,1,33.33,55.33Z"/><path class="cls-1" d="M30.93,23.78v2.61H28.76c-1.53,0-1.74.21-1.74,1.74v1.3a9.63,9.63,0,0,0-2.61.22h-.22c-.65,0-.87.44-.87,1.09v5.87c0,.66.43.87,1.09.87H40.29c.65,0,.87-.43.87-1.08V20.29c0-.65-.65-1.08-1.52-.87H35.72c-.65,0-.87.44-.87,1.09v2H32.24C31.37,22.47,30.93,22.69,30.93,23.78ZM27,35.31h-2V31.39h2Zm4.13,0h-2v-7h2Zm6.09-13.93h2V35.31h-2Zm-4.13,3.05h2V35.31h-2Z"/><path class="cls-1" d="M61.62,21.82A25.33,25.33,0,0,0,37.46,2.23c-.87,0-1.3.22-1.3,1.31V12.9a1.15,1.15,0,0,0,1.3,1.3A13.31,13.31,0,0,1,50.3,27c0,1.09.22,1.31,1.31,1.31h4.57l4.78.21c1.09,0,1.31-.43,1.31-1.52C62.05,25.3,61.83,23.56,61.62,21.82Zm-9.36,4.57A15.4,15.4,0,0,0,38.11,12.24V4.41a23.16,23.16,0,0,1,22.2,22Z"/><rect class="cls-1" x="6.13" y="60.55" width="8.05" height="1.96"/><rect class="cls-1" x="49.21" y="60.55" width="8.05" height="1.96"/><polygon class="cls-1" points="11.13 5.28 6.13 5.28 6.13 7.24 10.91 7.24 11.13 5.28"/><rect class="cls-1" x="1.99" y="5.28" width="1.96" height="1.96"/><rect class="cls-1" x="25.06" y="38.57" width="1.96" height="1.96"/><rect class="cls-1" x="29.19" y="38.36" width="1.96" height="1.96"/><rect class="cls-1" x="33.11" y="38.57" width="1.96" height="1.96"/><rect class="cls-1" x="37.24" y="38.36" width="1.96" height="1.96"/><rect class="cls-1" x="1.99" y="60.55" width="1.96" height="1.96"/><rect class="cls-1" x="59.22" y="60.55" width="1.96" height="1.96"/></svg>