<svg id="Layer_1" data-name="Layer 1" xmlns="http://www.w3.org/2000/svg" viewBox="0 0 64 64"><defs><style>.cls-1{fill:#e9b25f;}</style></defs><path class="cls-1" d="M48.74,55.22l-2.61-2a25.1,25.1,0,0,0,6.1-5.66,25.78,25.78,0,0,0,5.22-15.23c0-.87-.44-1.3-1.09-1.3h-10a1,1,0,0,0-.87,1.08c0,.66-.22,1.31-.22,2A12.88,12.88,0,0,1,30.9,45a13.24,13.24,0,0,1-11.53-12.4v-.22A13.09,13.09,0,0,1,32.21,19.1a1.15,1.15,0,0,0,1.3-1.31V8.22a1.15,1.15,0,0,0-1.3-1.31A26,26,0,0,0,20.67,10c-1.52.87-2.83,2-4.35,2.83a34.42,34.42,0,0,0-3.05-2.18,3,3,0,0,0-1.3-.43H2.18v2.17h9.14c.21-.22.43,0,.65,0a31.51,31.51,0,0,0,2.83,2A25,25,0,0,0,7.18,34.55,24.7,24.7,0,0,0,18.06,53l-2,2a1.11,1.11,0,0,1-.87.44h-13v2H15.89A1.63,1.63,0,0,0,17,57a34.32,34.32,0,0,0,2.83-2.83c.22.22.44.22.44,0a24.39,24.39,0,0,0,23.5.44.66.66,0,0,1,.87,0c1.09.65,2,1.52,3,2.17a3,3,0,0,0,1.3.44H61.58v-2H48.74ZM31.34,9.31v7.83A15.39,15.39,0,0,0,17.19,31.28H9.36A22.79,22.79,0,0,1,31.34,9.31Zm-.22,45.91a22.81,22.81,0,0,1-22-22H17A15.41,15.41,0,0,0,31.12,47.39Zm2.39,0v-8A15,15,0,0,0,47.44,33.24h8.05A23,23,0,0,1,33.51,55.22Z"/><path class="cls-1" d="M31.12,23.67v2.61H28.94c-1.52,0-1.74.22-1.74,1.74v1.3a9.63,9.63,0,0,0-2.61.22h-.22c-.65,0-.87.44-.87,1.09v5.88c0,.65.44.87,1.09.87H40.47c.66,0,.88-.44.88-1.09V20.19c0-.66-.66-1.09-1.53-.88H35.91c-.66,0-.88.44-.88,1.09v2H32.42C31.55,22.36,31.12,22.58,31.12,23.67ZM27.2,35.2h-2V31.28h2Zm4.14,0h-2v-7h2Zm6.09-13.93h2V35.2h-2Zm-4.14,3.05h2V35.2h-2Z"/><path class="cls-1" d="M61.8,21.71A25.31,25.31,0,0,0,37.65,2.12c-.87,0-1.31.22-1.31,1.31v9.36a1.15,1.15,0,0,0,1.31,1.3A13.3,13.3,0,0,1,50.48,26.93c0,1.09.22,1.31,1.31,1.31h4.57l4.79.21c1.09,0,1.3-.43,1.3-1.52C62.24,25.19,62,23.45,61.8,21.71Zm-9.36,4.57A15.39,15.39,0,0,0,38.3,12.13V4.3a23.15,23.15,0,0,1,22.19,22Z"/><rect class="cls-1" x="6.31" y="60.44" width="8.05" height="1.96"/><rect class="cls-1" x="49.4" y="60.44" width="8.05" height="1.96"/><polygon class="cls-1" points="11.32 5.17 6.31 5.17 6.31 7.13 11.1 7.13 11.32 5.17"/><rect class="cls-1" x="2.18" y="5.17" width="1.96" height="1.96"/><rect class="cls-1" x="25.24" y="38.46" width="1.96" height="1.96"/><rect class="cls-1" x="29.38" y="38.25" width="1.96" height="1.96"/><rect class="cls-1" x="33.29" y="38.46" width="1.96" height="1.96"/><rect class="cls-1" x="37.43" y="38.25" width="1.96" height="1.96"/><rect class="cls-1" x="2.18" y="60.44" width="1.96" height="1.96"/><rect class="cls-1" x="59.41" y="60.44" width="1.96" height="1.96"/></svg>