<svg id="Layer_1" data-name="Layer 1" xmlns="http://www.w3.org/2000/svg" viewBox="0 0 162 29.34"><defs><style>.cls-1,.cls-2{isolation:isolate;}.cls-2{font-size:13.97px;font-family:Roboto-Regular, Roboto;}.cls-2,.cls-4{fill:#e9b25f;}.cls-3{letter-spacing:-0.01em;}</style></defs><g class="cls-1"><text class="cls-2" transform="translate(31.39 21.75)">G<tspan class="cls-3" x="9.52" y="0">o</tspan><tspan x="17.38" y="0">verning Dynamics</tspan></text></g><path class="cls-4" d="M11.11,24.47c-.4.39-.78.8-1.19,1.18a.78.78,0,0,1-.46.21H3.65l-.12,0V25H9.12a.68.68,0,0,0,.39-.16c.29-.26.56-.54.85-.83a10.66,10.66,0,0,1-4.64-8A10.67,10.67,0,0,1,8.88,7.4c-.39-.29-.77-.59-1.17-.87a.55.55,0,0,0-.28,0H3.53V5.64h.26c1.29,0,2.58,0,3.87,0a1.05,1.05,0,0,1,.54.18c.46.31.89.66,1.3,1,.64-.41,1.24-.84,1.88-1.19A10.43,10.43,0,0,1,16.3,4.34c.4,0,.55.14.55.55V9c0,.4-.14.54-.55.56a5.6,5.6,0,0,0-5.48,5.72s0,.09,0,.13A5.6,5.6,0,0,0,22,16c0-.27,0-.55.06-.83a.43.43,0,0,1,.4-.46h4.3c.33,0,.47.18.47.55a10.79,10.79,0,0,1-4.9,8.9c.39.3.77.58,1.15.85.06.05.17,0,.26,0h5.2v.86h-.26c-1.72,0-3.44,0-5.16,0a1.05,1.05,0,0,1-.54-.18c-.44-.29-.85-.62-1.27-.94a.29.29,0,0,0-.36,0,10.63,10.63,0,0,1-10-.14Zm11.76-8.92a6.5,6.5,0,0,1-6,6V25a9.87,9.87,0,0,0,9.41-9.44ZM9.94,14.66a6.61,6.61,0,0,1,6-6.05V5.22a9.87,9.87,0,0,0-9.42,9.44Zm-3.39.88A9.84,9.84,0,0,0,16,25V21.59a6.61,6.61,0,0,1-6-6.05Z"/><path class="cls-4" d="M14.27,13.81v-.53c0-.69.07-.76.78-.76H16V11.36c0-.42.15-.56.57-.56h1.16V10a.43.43,0,0,1,.37-.5h1.7a.43.43,0,0,1,.5.36.28.28,0,0,1,0,.13v6.76a.43.43,0,0,1-.36.5H13.05a.44.44,0,0,1-.5-.37.29.29,0,0,1,0-.13c0-.81,0-1.63,0-2.45a.44.44,0,0,1,.36-.5h1.36Zm5.15,2.57v-6h-.83v6Zm-1.72,0v-4.7h-.83v4.7Zm-1.72,0v-3h-.83v3Zm-2.56,0h.84V14.69h-.84Z"/><path class="cls-4" d="M26.74,13.38h-2c-.43,0-.57-.14-.58-.56a5.61,5.61,0,0,0-5.48-5.47c-.4,0-.54-.15-.54-.56v-4c0-.44.14-.58.58-.57a10.74,10.74,0,0,1,10.32,8.36,17.88,17.88,0,0,1,.28,2.2c0,.5-.12.63-.6.63Zm1.72-.87A9.85,9.85,0,0,0,19,3.09V6.46a6.61,6.61,0,0,1,6,6.05Z"/><path class="cls-4" d="M5.25,27.17H8.66V28H5.25Z"/><path class="cls-4" d="M23.75,28v-.82h3.42V28Z"/><path class="cls-4" d="M7.37,4.33H5.26V3.49H7.37Z"/><path class="cls-4" d="M3.53,3.49h.82v.83H3.53Z"/><path class="cls-4" d="M14.27,17.7v.82h-.84V17.7Z"/><path class="cls-4" d="M15.15,17.69H16v.84h-.82Z"/><path class="cls-4" d="M17.7,18.54h-.82V17.7h.82Z"/><path class="cls-4" d="M18.59,18.52V17.7h.83v.82Z"/><path class="cls-4" d="M4.36,28H3.53v-.83h.83Z"/><path class="cls-4" d="M28.88,28h-.81v-.83h.81Z"/></svg>