<svg id="Layer_1" data-name="Layer 1" xmlns="http://www.w3.org/2000/svg" viewBox="0 0 162 29.34"><defs><style>.cls-1,.cls-2{isolation:isolate;}.cls-2{font-size:13.97px;font-family:Roboto-Regular, Roboto;}.cls-2,.cls-4{fill:#fff;}.cls-3{letter-spacing:-0.01em;}</style></defs><g class="cls-1"><text class="cls-2" transform="translate(31.57 21.41)">G<tspan class="cls-3" x="9.52" y="0">o</tspan><tspan x="17.38" y="0">verning Dynamics</tspan></text></g><path class="cls-4" d="M10.27,24.13c-.39.4-.78.81-1.18,1.18a.7.7,0,0,1-.47.21c-1.93,0-3.87,0-5.81,0H2.69v-.85H8.28a.59.59,0,0,0,.4-.16c.29-.25.55-.53.85-.82a10.64,10.64,0,0,1-4.65-8A10.66,10.66,0,0,1,8.05,7.07c-.39-.29-.78-.59-1.18-.87a.46.46,0,0,0-.28,0H2.7V5.31H6.82a1.12,1.12,0,0,1,.54.18c.46.32.9.66,1.31,1,.63-.41,1.23-.84,1.87-1.19A10.32,10.32,0,0,1,15.46,4c.4,0,.55.14.55.55V8.62c0,.4-.14.54-.55.56A5.6,5.6,0,0,0,10,14.9V15a5.6,5.6,0,0,0,11.12.61,7.53,7.53,0,0,0,.07-.83.44.44,0,0,1,.4-.47h4.3c.32,0,.47.19.46.56a10.79,10.79,0,0,1-4.9,8.9c.4.29.77.58,1.15.85a.57.57,0,0,0,.26,0h5.2v.86H22.63a1.05,1.05,0,0,1-.54-.18c-.43-.3-.85-.62-1.27-1a.3.3,0,0,0-.36,0,10.63,10.63,0,0,1-10-.15ZM22,15.21a6.5,6.5,0,0,1-6,6v3.43a9.88,9.88,0,0,0,9.42-9.43ZM9.11,14.33a6.58,6.58,0,0,1,6-6.05V4.89a9.85,9.85,0,0,0-9.41,9.44Zm-3.4.88a9.85,9.85,0,0,0,9.43,9.42V21.26a6.6,6.6,0,0,1-6-6.05Z"/><path class="cls-4" d="M13.44,13.48V13c0-.7.07-.76.77-.76h.95V11c0-.43.14-.56.57-.56h1.15v-.8a.42.42,0,0,1,.37-.49H19a.43.43,0,0,1,.5.36v6.88a.44.44,0,0,1-.37.5H12.21a.43.43,0,0,1-.5-.36V14a.45.45,0,0,1,.37-.5h1.36Zm5.14,2.57v-6h-.83v6Zm-1.72,0v-4.7H16v4.7Zm-1.72,0v-3h-.83v3Zm-2.55,0h.83V14.36h-.83Z"/><path class="cls-4" d="M25.9,13.05h-2c-.43,0-.57-.14-.58-.56A5.59,5.59,0,0,0,17.86,7c-.41,0-.55-.15-.55-.56v-4c0-.44.14-.58.58-.57A10.75,10.75,0,0,1,28.22,10.2a16.46,16.46,0,0,1,.27,2.21c0,.49-.11.63-.6.63Zm1.72-.88a9.84,9.84,0,0,0-9.43-9.41V6.13a6.59,6.59,0,0,1,6,6Z"/><path class="cls-4" d="M4.42,26.84H7.83v.83H4.42Z"/><path class="cls-4" d="M22.91,27.66v-.82h3.42v.82Z"/><path class="cls-4" d="M6.54,4H4.42V3.16H6.54Z"/><path class="cls-4" d="M2.69,3.16h.83V4H2.69Z"/><path class="cls-4" d="M13.43,17.37v.82h-.84v-.82Z"/><path class="cls-4" d="M14.31,17.36h.82v.84h-.82Z"/><path class="cls-4" d="M16.86,18.21H16v-.84h.82Z"/><path class="cls-4" d="M17.75,18.19v-.82h.84v.82Z"/><path class="cls-4" d="M3.52,27.68H2.7v-.84h.82Z"/><path class="cls-4" d="M28.05,27.68h-.82v-.84h.82Z"/></svg>