<svg width="409" height="492" viewBox="0 0 409 492" fill="none" xmlns="http://www.w3.org/2000/svg">
    <defs>
        <style type="text/css">
            .st0 {
                stroke-dasharray: 0;
                stroke-dashoffset: 2000;
                animation: dash 5s linear reverse infinite running;
            }

            @keyframes dash {
                from {
                    stroke-dashoffset: 2000;
                }
                to {
                    stroke-dashoffset: 0;
                }
            }
        </style>
    </defs>

    <rect width="234" height="234" rx="117" fill="url(#paint0_linear)"/>
    <path d="M57.9863 122V109.22H62.6303C63.6743 109.22 64.5863 109.388 65.3663 109.724C66.1583 110.06 66.8183 110.516 67.3463 111.092C67.8743 111.668 68.2703 112.346 68.5343 113.126C68.7983 113.894 68.9303 114.716 68.9303 115.592C68.9303 116.564 68.7803 117.446 68.4803 118.238C68.1923 119.018 67.7723 119.69 67.2203 120.254C66.6683 120.806 66.0023 121.238 65.2223 121.55C64.4543 121.85 63.5903 122 62.6303 122H57.9863ZM66.4283 115.592C66.4283 114.98 66.3443 114.416 66.1763 113.9C66.0083 113.384 65.7623 112.94 65.4383 112.568C65.1143 112.196 64.7123 111.908 64.2323 111.704C63.7643 111.5 63.2303 111.398 62.6303 111.398H60.4703V119.822H62.6303C63.2423 119.822 63.7823 119.714 64.2503 119.498C64.7303 119.282 65.1263 118.988 65.4383 118.616C65.7623 118.232 66.0083 117.782 66.1763 117.266C66.3443 116.75 66.4283 116.192 66.4283 115.592ZM71.7711 122V109.22H77.4231C78.0111 109.22 78.5511 109.346 79.0431 109.598C79.5471 109.838 79.9791 110.162 80.3391 110.57C80.6991 110.966 80.9811 111.422 81.1851 111.938C81.3891 112.442 81.4911 112.952 81.4911 113.468C81.4911 114.296 81.2811 115.052 80.8611 115.736C80.4531 116.408 79.8951 116.894 79.1871 117.194L82.1031 122H79.3131L76.7031 117.716H74.2551V122H71.7711ZM74.2551 115.538H77.3691C77.5971 115.538 77.8071 115.484 77.9991 115.376C78.2031 115.268 78.3771 115.124 78.5211 114.944C78.6651 114.752 78.7791 114.53 78.8631 114.278C78.9471 114.026 78.9891 113.756 78.9891 113.468C78.9891 113.168 78.9411 112.892 78.8451 112.64C78.7491 112.388 78.6171 112.172 78.4491 111.992C78.2931 111.8 78.1071 111.656 77.8911 111.56C77.6871 111.452 77.4771 111.398 77.2611 111.398H74.2551V115.538ZM84.6418 122V109.22H87.1258V119.822H93.6418V122H84.6418ZM103.859 109.22H106.055L110.915 122H108.359L107.171 118.814H102.707L101.537 122H98.981L103.859 109.22ZM106.721 117.068L104.957 112.046L103.121 117.068H106.721ZM121.616 120.56C120.596 121.58 119.408 122.09 118.052 122.09C117.212 122.09 116.42 121.922 115.676 121.586C114.944 121.25 114.302 120.788 113.75 120.2C113.21 119.612 112.778 118.922 112.454 118.13C112.142 117.326 111.986 116.462 111.986 115.538C111.986 114.662 112.142 113.84 112.454 113.072C112.778 112.292 113.216 111.614 113.768 111.038C114.332 110.45 114.992 109.988 115.748 109.652C116.504 109.304 117.326 109.13 118.214 109.13C119.414 109.13 120.44 109.382 121.292 109.886C122.156 110.39 122.804 111.068 123.236 111.92L121.382 113.288C121.058 112.652 120.602 112.166 120.014 111.83C119.438 111.494 118.808 111.326 118.124 111.326C117.584 111.326 117.086 111.44 116.63 111.668C116.186 111.896 115.802 112.208 115.478 112.604C115.166 113 114.92 113.456 114.74 113.972C114.572 114.488 114.488 115.034 114.488 115.61C114.488 116.21 114.584 116.774 114.776 117.302C114.968 117.818 115.232 118.268 115.568 118.652C115.904 119.036 116.3 119.342 116.756 119.57C117.224 119.786 117.728 119.894 118.268 119.894C119.504 119.894 120.62 119.312 121.616 118.148V117.248H119.042V115.43H123.668V122H121.616V120.56ZM135.559 119.822V122H126.685V109.22H135.397V111.398H129.169V114.476H134.551V116.492H129.169V119.822H135.559ZM140.88 113.81V122H138.396V109.22H140.322L146.982 117.608V109.238H149.466V122H147.45L140.88 113.81ZM162.582 111.398H158.496V122H156.03V111.398H151.944V109.22H162.582V111.398ZM176.911 119.822V122H169.603V119.822H172.159V114.368C172.051 114.512 171.877 114.662 171.637 114.818C171.409 114.962 171.157 115.1 170.881 115.232C170.605 115.364 170.317 115.472 170.017 115.556C169.729 115.64 169.471 115.682 169.243 115.682V113.432C169.459 113.432 169.723 113.366 170.035 113.234C170.347 113.09 170.653 112.922 170.953 112.73C171.253 112.538 171.511 112.352 171.727 112.172C171.955 111.98 172.099 111.83 172.159 111.722H174.625V119.822H176.911Z"
          fill="white" fill-opacity="0.7"/>
    <path class="st0"  d="M401.5 489L401.5 420C401.5 405.088 389.412 393 374.5 393L305.999 393C291.087 393 278.999 380.912 278.999 366L278.999 155C278.999 140.088 266.91 128 251.999 128L233.999 128"
          stroke="#4A4A4A">
        <animate attributeName="stroke-dashoffset" values="0 2000" dur="5s" repeatCount="indefinite" />
    </path>
    <path class="st0"  d="M393 483.077H400.077V476H401.923V483.077H409V484.922H401.924V492H400.078V484.923H393V483.077Z"
          fill="#B4B4B4"/>
    <defs>
        <linearGradient id="paint0_linear" x1="25.8307" y1="22.1796" x2="247.413" y2="58.4054"
                        gradientUnits="userSpaceOnUse">
            <stop stop-color="#1F1C18"/>
            <stop offset="1" stop-color="#16222B"/>
        </linearGradient>
    </defs>
</svg>
