<svg id="Layer_1" data-name="Layer 1" xmlns="http://www.w3.org/2000/svg" viewBox="0 0 162 29.34"><defs><style>.cls-1{isolation:isolate;font-size:15px;font-family:Roboto-Regular, Roboto;}.cls-1,.cls-2{fill:#e9b25f;}</style></defs><text class="cls-1" transform="translate(29.19 21.38)">Substitution Rates</text><path class="cls-2" d="M14,13.1v-.79H16.3v-.78H13.15v.76h-.78c0-.42,0-.83,0-1.25a.36.36,0,0,1,.4-.32h.77V6.53c0-.44.12-.56.55-.56h6a1.19,1.19,0,0,0,1.33-1,1.31,1.31,0,0,0,0-.28c0-.2,0-.41,0-.62a.39.39,0,0,1,.35-.42H25a.38.38,0,0,1,.41.31V4A2.81,2.81,0,0,1,25,6a.52.52,0,0,1,.4.59c0,1.47,0,2.94,0,4.42,0,.43-.13.55-.57.55h-.6v4h1.42c.4,0,.54.13.54.53v4.37c0,.54-.09.63-.63.64h-.16v4.19c0,.42-.13.55-.54.55H16.33V25h1.15v-.8h-.76v-.78h.76v-.79h-.76V21.8h.76V21h-2v-.79h2.74v-.79H16.73v-.79h1.54v-.79H16.72v-.79h1.55v-.79H15.94v-.79l.36,0v-.77H15.14v-.8H16.3V13.1Zm6.7-6.32H18.31V10.7h2.34Zm-1.19,4.75H17.12v3.92h2.34Zm-.36,4.73v3.93h2.34V16.26ZM20.65,21H18.31v3.92h2.34ZM14.35,6.78v3.93h3.13V9.92H15.14V9.13h2.34V8.34H15.14V7.55h2.34V6.78ZM24.68,4.41H22.24A2.28,2.28,0,0,1,21.85,6c.59,0,1.14,0,1.68,0a1,1,0,0,0,.92-.61,5.26,5.26,0,0,0,.23-1ZM21.46,7.53H24.6V6.77H21.46Zm3.15.83H21.47v.76h3.14Zm0,2.34V9.94H21.47v.76Zm-4.33,1.58h3.13v-.76H20.28Zm0,1.58h3.13V13.1H20.28Zm0,1.58h3.13v-.76H20.28Zm2,.82V17H25.4v-.76Zm3.14,2.35v-.77H22.27v.77Zm-3.13.81v.77H25.4v-.77Zm-.8,2.34H24.6V21H21.47Zm3.14.83H21.48v.76h3.13Zm-3.14,1.57v.77H24.6v-.76Z"/><path class="cls-2" d="M7,12.69c-.15-.5-.32-1-.43-1.49A9.26,9.26,0,0,1,6.43,10c0-.34.14-.49.47-.49h4.6A.41.41,0,0,1,12,10a6.57,6.57,0,0,1-.47,2.36l-.12.31c.28.06.55.09.82.17a3.91,3.91,0,0,1,2.93,3.77c0,2,0,4,0,5.95a.45.45,0,0,0,.16.41,1.83,1.83,0,0,1,.63,1.52c0,.27,0,.54,0,.82a.39.39,0,0,1-.36.43H3.06c-.47,0-.58-.11-.59-.58v-.84a1.69,1.69,0,0,1,.46-1.17,1.23,1.23,0,0,0,.34-.89c0-1.8,0-3.61,0-5.41a4,4,0,0,1,3.6-4.14Zm7.35,9.88V16.72a3.18,3.18,0,0,0-3.09-3.24H7.32a3.16,3.16,0,0,0-3.26,3.07.74.74,0,0,0,0,.21v5.59a1.63,1.63,0,0,1-.45,1.21,1.6,1.6,0,0,0-.33,1.38H15.13c0-.19,0-.36,0-.53a1.2,1.2,0,0,0-.4-.89c-.2-.21-.42-.15-.64-.15-.44,0-.89,0-1.32,0v-.79ZM7.24,10.33a6.06,6.06,0,0,0,.6,2.25.22.22,0,0,0,.18.11h2.32a.33.33,0,0,0,.22-.16,3.83,3.83,0,0,0,.29-.73c.13-.48.23-1,.34-1.46Z"/><path class="cls-2" d="M8.58,17v-.77h.79V17h.78v.8H8.61a.59.59,0,0,0-.62.56.59.59,0,0,0,.56.62h.73a1.39,1.39,0,0,1,.2,2.77h-.1v.6h-.8v-.61H7.41V21H9.27a.61.61,0,0,0,.67-.46.58.58,0,0,0-.42-.71l-.14,0H8.64a1.38,1.38,0,0,1-.19-2.76Z"/></svg>