<svg id="Layer_1" data-name="Layer 1" xmlns="http://www.w3.org/2000/svg" viewBox="0 0 162 29.34"><defs><style>.cls-1{isolation:isolate;font-size:15px;font-family:Roboto-Regular, Roboto;}.cls-1,.cls-2{fill:#fff;}</style></defs><text class="cls-1" transform="translate(29.29 21.38)">Substitution Rates</text><path class="cls-2" d="M14.05,13.1v-.79h2.34v-.78H13.25v.76h-.79c0-.42,0-.83,0-1.25a.35.35,0,0,1,.39-.32h.77V6.53c0-.44.12-.56.56-.56h6a1.18,1.18,0,0,0,1.32-1,1.31,1.31,0,0,0,0-.28V4a.39.39,0,0,1,.36-.42h3.17a.38.38,0,0,1,.41.31V4a2.81,2.81,0,0,1-.37,2c.32.09.39.3.39.59,0,1.47,0,2.94,0,4.42,0,.43-.12.55-.56.55h-.61v4h1.43c.4,0,.53.13.53.53v4.37c0,.54-.08.63-.63.64H25.5v4.19c0,.42-.12.55-.54.55H16.42V25h1.15v-.8h-.76v-.78h.77v-.79h-.76V21.8h.75V21H15.63v-.79h2.74v-.79H16.82v-.79h1.54v-.79H16.82v-.79h1.55v-.79H16v-.79l.36,0v-.77H15.24v-.8h1.15V13.1Zm6.7-6.32H18.4V10.7h2.35Zm-1.19,4.75H17.22v3.92h2.34Zm-.37,4.73v3.93h2.34V16.26ZM20.75,21H18.4v3.92h2.35ZM14.45,6.78v3.93h3.13V9.92H15.23V9.13h2.34V8.34H15.23V7.55h2.35V6.78ZM24.77,4.41H22.33A2.27,2.27,0,0,1,22,6c.59,0,1.13,0,1.67,0a1,1,0,0,0,.93-.61,5.23,5.23,0,0,0,.22-1ZM21.56,7.53h3.13V6.77H21.56Zm3.14.83H21.57v.76H24.7Zm0,2.34V9.94H21.57v.76Zm-4.33,1.58h3.14v-.76H20.37Zm0,1.58h3.14V13.1H20.37Zm0,1.58h3.14v-.76H20.37Zm2,.82V17h3.13v-.76Zm3.13,2.35v-.77H22.36v.77Zm-3.13.81v.77h3.13v-.77Zm-.8,2.34h3.13V21H21.56Zm3.14.83H21.57v.76H24.7Zm-3.14,1.57v.77h3.13v-.76Z"/><path class="cls-2" d="M7.08,12.69c-.14-.5-.31-1-.42-1.49A6.66,6.66,0,0,1,6.53,10c0-.34.13-.49.47-.49h4.6c.32,0,.46.15.46.47a6.57,6.57,0,0,1-.47,2.36l-.12.31c.28.06.56.09.82.17a3.91,3.91,0,0,1,2.93,3.77c0,2,0,4,0,5.95a.49.49,0,0,0,.17.41A1.83,1.83,0,0,1,16,24.49c0,.27,0,.54,0,.82a.4.4,0,0,1-.37.43H3.15c-.47,0-.58-.11-.58-.58v-.84A1.68,1.68,0,0,1,3,23.15a1.15,1.15,0,0,0,.34-.89c0-1.8,0-3.61,0-5.41A4,4,0,0,1,7,12.71Zm7.35,9.88V16.72a3.17,3.17,0,0,0-3.08-3.24H7.42a3.18,3.18,0,0,0-3.27,3.07v5.8a1.59,1.59,0,0,1-.45,1.21,1.6,1.6,0,0,0-.33,1.38H15.22c0-.19,0-.36,0-.53a1.16,1.16,0,0,0-.4-.89c-.2-.21-.42-.15-.64-.15-.44,0-.88,0-1.31,0v-.79ZM7.33,10.33a6.26,6.26,0,0,0,.6,2.25.23.23,0,0,0,.18.11h2.32a.35.35,0,0,0,.23-.16,4.59,4.59,0,0,0,.28-.73c.13-.48.23-1,.35-1.46Z"/><path class="cls-2" d="M8.68,17v-.77h.78V17h.78v.8H8.71A.59.59,0,0,0,8.64,19h.74a1.39,1.39,0,0,1,.2,2.77H9.47v.6H8.68v-.61H7.51V21H9.37a.61.61,0,0,0,.67-.46.59.59,0,0,0-.42-.71l-.15,0H8.73a1.38,1.38,0,0,1-.19-2.76Z"/></svg>