<svg id="Layer_1" data-name="Layer 1" xmlns="http://www.w3.org/2000/svg" viewBox="0 0 64 64"><defs><style>.cls-1{fill:#e9b25f;}</style></defs><path class="cls-1" d="M60.74,34.42H57.11V24h1.56c1.29-.26,1.55-.52,1.55-1.56V11a1.41,1.41,0,0,0-1-1.55,7.36,7.36,0,0,0,1-5.2c0-.52-.51-.78-1-.78H50.87c-.51,0-.77.52-.77,1V6.89a2.94,2.94,0,0,1-3.38,2.6H31.14c-1.3,0-1.56.51-1.56,1.55V22.21H27.5c-.52,0-1,.26-1,.78v3.12h2.08V24h8.05v2.08h-6v2.08h6.49V30H34v2.08h3.12v2.08h-1v2.08h6v2.07H37.89v2.08h3.89v2.08H37.89v2.08h3.89v2.08h-7V48.7h4.94v2.08H37.63v2.08h2.08v1.82H37.63v2.07h2.08v2.08H36.59v2.08H58.67c1,0,1.29-.26,1.29-1.3V48.7h.52c1.3,0,1.56-.26,1.56-1.55V35.72C62,34.68,61.78,34.42,60.74,34.42ZM52.17,5.59h6.24a11.44,11.44,0,0,1-.52,2.6,2.27,2.27,0,0,1-2.34,1.55H51.13A6.21,6.21,0,0,0,52.17,5.59ZM50.1,11.82h8v1.82h-8Zm0,4.16h8v2.08h-8Zm0,3.89h8V22h-8ZM55,24v2.08H47V24ZM47,34.16V32.08H55v2.08ZM50.1,36.5V46.63H43.86V36.5ZM47,30.26V28.19H55v2.07ZM42,11.82h6V22H42ZM31.65,22V11.82h8.06v1.82h-6v2.08h6V17.8h-6v2.07h6V22Zm7.28,12.21V24h6V34.16ZM48,58.83H42V48.7h6Zm10.13.26h-8V57h8Zm0-4.15h-8V52.86h8Zm0-4.16h-8V48.7h8Zm2.07-4.15h-8V44.55h8Zm0-4.16h-8V40.39h8Zm0-3.9h-8V36.5h8Z"/><path class="cls-1" d="M33.47,53.12V37.54a10.27,10.27,0,0,0-7.53-9.87c-.52-.26-1.3-.26-2.08-.52,0-.26.26-.52.26-.78a27.42,27.42,0,0,0,1.56-6.24,1.22,1.22,0,0,0-1.3-1.29H12.44c-1,0-1.3.51-1.3,1.29a12.66,12.66,0,0,0,.26,3.12c.26,1.3.78,2.6,1,3.9a.25.25,0,0,0-.26.26A10.27,10.27,0,0,0,2.83,38.05v14a2.62,2.62,0,0,1-.78,2.34,4.79,4.79,0,0,0-1.3,3.11v2.08c0,1,.26,1.3,1.56,1.56h32.2a1,1,0,0,0,1-1V58.05A4.45,4.45,0,0,0,34,54.16C33.47,53.9,33.47,53.64,33.47,53.12ZM23.34,20.91l-.78,3.9c-.26.52-.51,1.3-.77,1.82-.26.26-.26.52-.52.52h-6c-.26,0-.52,0-.52-.26a12.08,12.08,0,0,1-1.56-6ZM33.73,59.09H3.09a4.52,4.52,0,0,1,.77-3.63,4.14,4.14,0,0,0,1-3.12V37.28a8.37,8.37,0,0,1,8.57-8.06H23.6a8.15,8.15,0,0,1,8,8.32V52.86H27.76V55.2h3.38c.51,0,1-.26,1.55.26a2.8,2.8,0,0,1,1,2.33Z"/><path class="cls-1" d="M18.67,43.51H16.85a1.56,1.56,0,1,1,0-3.12h3.9V38.31H18.67V36.24H16.59v2.07A3.65,3.65,0,0,0,13.47,42a3.5,3.5,0,0,0,3.64,3.38h2.08a1.48,1.48,0,0,1,1,1.82,2,2,0,0,1-1.82,1.29H13.47v2.08h3.12v1.56h2.34V50.52h.26a3.48,3.48,0,0,0,3.37-3.63A3.93,3.93,0,0,0,18.67,43.51Z"/></svg>