<svg id="Layer_1" data-name="Layer 1" xmlns="http://www.w3.org/2000/svg" viewBox="0 0 64 64"><defs><style>.cls-1{fill:#fff;}</style></defs><path class="cls-1" d="M60.69,34.42H57.05V24h1.56c1.3-.26,1.56-.52,1.56-1.56V11a1.41,1.41,0,0,0-1-1.55,7.32,7.32,0,0,0,1-5.2c0-.52-.52-.78-1-.78H50.82c-.52,0-.78.52-.78,1V6.89a2.94,2.94,0,0,1-3.38,2.6H31.08c-1.3,0-1.56.51-1.56,1.55V22.21H27.44c-.52,0-1,.26-1,.78v3.12h2.08V24h8.05v2.08h-6v2.08h6.49V30H33.93v2.08h3.12v2.08H36v2.08h6v2.07H37.83v2.08h3.9v2.08h-3.9v2.08h3.9v2.08h-7V48.7h4.94v2.08H37.57v2.08h2.08v1.82H37.57v2.07h2.08v2.08H36.53v2.08H58.61c1,0,1.3-.26,1.3-1.3V48.7h.52c1.3,0,1.55-.26,1.55-1.55V35.72C62,34.68,61.73,34.42,60.69,34.42ZM52.12,5.59h6.23a11.44,11.44,0,0,1-.52,2.6,2.27,2.27,0,0,1-2.34,1.55H51.08A6.21,6.21,0,0,0,52.12,5.59ZM50,11.82h8.05v1.82H50ZM50,16h8.05v2.08H50Zm0,3.89h8.05V22H50ZM55,24v2.08h-8V24Zm-8,10.13V32.08h8v2.08ZM50,36.5V46.63H43.8V36.5Zm-3.12-6.24V28.19h8v2.07ZM42,11.82h6V22H42ZM31.6,22V11.82h8v1.82h-6v2.08h6V17.8h-6v2.07h6V22Zm7.27,12.21V24h6V34.16ZM48,58.83H42V48.7h6Zm10.13.26H50V57h8.05Zm0-4.15H50V52.86h8.05Zm0-4.16H50V48.7h8.05Zm2.08-4.15H52.12V44.55h8.05Zm0-4.16H52.12V40.39h8.05Zm0-3.9H52.12V36.5h8.05Z"/><path class="cls-1" d="M33.42,53.12V37.54a10.28,10.28,0,0,0-7.54-9.87c-.52-.26-1.3-.26-2.07-.52,0-.26.26-.52.26-.78a27.93,27.93,0,0,0,1.55-6.24,1.22,1.22,0,0,0-1.29-1.29H12.38c-1,0-1.3.51-1.3,1.29a12.66,12.66,0,0,0,.26,3.12c.26,1.3.78,2.6,1,3.9a.25.25,0,0,0-.26.26A10.27,10.27,0,0,0,2.77,38.05v14A2.62,2.62,0,0,1,2,54.42a4.79,4.79,0,0,0-1.3,3.11v2.08c0,1,.26,1.3,1.56,1.56h32.2a1,1,0,0,0,1-1V58.05a4.45,4.45,0,0,0-1.56-3.89C33.42,53.9,33.42,53.64,33.42,53.12ZM23.29,20.91l-.78,3.9c-.26.52-.52,1.3-.78,1.82-.26.26-.26.52-.52.52h-6c-.26,0-.51,0-.51-.26a12.08,12.08,0,0,1-1.56-6ZM33.68,59.09H3a4.49,4.49,0,0,1,.78-3.63,4.14,4.14,0,0,0,1-3.12V37.28a8.36,8.36,0,0,1,8.57-8.06H23.55a8.15,8.15,0,0,1,8.05,8.32V52.86H27.7V55.2h3.38c.52,0,1-.26,1.56.26a2.8,2.8,0,0,1,1,2.33Z"/><path class="cls-1" d="M18.61,43.51H16.79a1.56,1.56,0,0,1,0-3.12h3.9V38.31H18.61V36.24H16.53v2.07A3.65,3.65,0,0,0,13.42,42a3.49,3.49,0,0,0,3.63,3.38h2.08a1.48,1.48,0,0,1,1,1.82,2,2,0,0,1-1.82,1.29H13.42v2.08h3.11v1.56h2.34V50.52h.26a3.49,3.49,0,0,0,3.38-3.63A3.94,3.94,0,0,0,18.61,43.51Z"/></svg>