<svg id="Layer_1" data-name="Layer 1" xmlns="http://www.w3.org/2000/svg" viewBox="0 0 64 64"><defs><style>.cls-1{fill:#fff;}.cls-2{fill:#e4e4e4;}</style></defs><path class="cls-1" d="M38.33,57.2a.75.75,0,0,0-.26-.05H26.77A.83.83,0,0,0,26,58a.76.76,0,0,0,.05.27,6.76,6.76,0,0,0,12.83,0A.84.84,0,0,0,38.33,57.2Z"/><path class="cls-1" d="M56.37,46A21.52,21.52,0,0,1,53.56,35.3V28.15A22.11,22.11,0,0,0,52.94,23a1.94,1.94,0,0,0-1.88-1.48A11.41,11.41,0,0,1,39.75,10V9.46a2,2,0,0,0-1.37-2c-.46-.13-.91-.25-1.38-.36V6.61a4.72,4.72,0,0,0-4.5-4.82,4.63,4.63,0,0,0-4.68,4.58v.75a21.45,21.45,0,0,0-16.55,21V35.3A21.57,21.57,0,0,1,8.45,46L6.74,49a3.72,3.72,0,0,0,1,5.18,3.76,3.76,0,0,0,2,.65H55.07a3.73,3.73,0,0,0,3-5.83Z"/><path class="cls-2" d="M51.05,18.82a8.85,8.85,0,1,0-8.68-9V10A8.77,8.77,0,0,0,51.05,18.82Z"/></svg>